<svg version="1" xmlns="http://www.w3.org/2000/svg" width="400pt" height="400pt" viewBox="0 0 400.000000 400.000000"><path d="M252.7 20.8c-9.7 9.7-17.7 18-17.7 18.3 0 .3 7.8.6 17.3.7 9.4 0 31.1.1 48 .2l30.8.2-7.3 7c-14.8 14.2-49.6 47.7-62.3 59.9-21.2 20.6-24.7 23.9-25.5 23.9-.4 0-1.4-.7-2.1-1.6-2-2.4-11.6-8.7-18.7-12.3-12.8-6.5-33-11.9-51.2-13.7-9.5-1-31.6-1.1-39.5-.1-27.3 3.1-50.6 13.7-72.7 33.1C18.7 165.4.8 202.7.6 243c-.1 24.3 2 38.3 8.4 56.7 4.4 12.4 14.2 30.3 21.5 39.2 12.5 15.3 27.1 28.3 42 37.4 7.1 4.4 25.3 12.7 27.7 12.7.9 0 1.9.4 2.2.9.3.5 1.8 1.1 3.3 1.4 1.6.2 6 1.1 9.8 2 12.1 2.7 17.5 3.1 34.5 3.1 18.3 0 26.1-.8 34.8-3.3 1.7-.5 3.2-.8 3.2-.6 0 .6 19.3-6.2 24.6-8.6 29.6-13.8 56.7-40.1 70.4-68.4 9.6-19.7 13.3-36 13.4-58.5.1-34.8-7.4-64.3-21.4-85-2.1-3.1-4.6-6.2-5.5-7-1.5-1.3-.4-2.6 12.2-14.8 7.6-7.4 26-25.2 40.8-39.7 38.3-37.3 39.5-38.4 39.6-38.2.1.1.3 21.8.4 48.2.2 26.4.3 48.1.4 48.1 0 .1 8.4-8.1 18.6-18.3l18.5-18.5V3H270.5l-17.8 17.8zm2179.5 3898.9c18.6 2.2 36 9.6 52.3 22.2 2.8 2.2 14.3 13.7 17.8 17.8 9 10.5 18.3 29.4 20.4 41.1.3 1.6 1 5.1 1.5 7.9 1.8 8.6.6 32.9-1.8 41.4-5.2 17.6-13 30.3-27.1 44.1-16.8 16.4-35.5 25.6-58 28.5-4.5.6-21.8.6-25 .1-1.4-.3-4.4-.7-6.7-1-9.2-1.2-16.2-3.5-28.4-9.6-11.3-5.6-20-12.1-29.6-22.4-17.3-18.5-26.2-40.5-26.8-66.1-.2-6.6.1-14.5.6-17.5s1.1-7 1.4-8.9c.7-4.4 3.7-13.2 6.8-20.3 8.9-20 27.5-38.8 48.1-48.8 17.4-8.4 34-11 54.5-8.5z"/></svg>