<?xml version="1.0" standalone="no"?>
<!DOCTYPE svg PUBLIC "-//W3C//DTD SVG 1.1//EN" "http://www.w3.org/Graphics/SVG/1.1/DTD/svg11.dtd" >
<svg>
<metadata>
Created by FontForge 20090914 at Thu Aug  4 18:02:12 2016
 By www-data
Copyright &#194;&#169; 2006-2009 Dalton Maag Ltd. All rights reserved. This font may not be altered in any way without prior permission of Dalton Maag Ltd.
</metadata>
<defs>
<font id="CoTextCorp-Bold" horiz-adv-x="497" >
  <font-face 
    font-family="Co Text Corp"
    font-weight="700"
    font-stretch="normal"
    units-per-em="1000"
    panose-1="2 11 8 3 6 2 2 2 2 4"
    ascent="800"
    descent="-200"
    x-height="509.999"
    cap-height="687"
    bbox="-226 -258.003 1392 962"
    underline-thickness="50"
    underline-position="-50"
    unicode-range="U+0008-U+FB04"
  />
<missing-glyph horiz-adv-x="500" 
d="M50 0v750h400v-750h-400zM400 50v650h-300v-650h300z" />
    <glyph glyph-name="f_f" unicode="ff" horiz-adv-x="741" 
d="M71 396c-22.667 0 -38.502 5.00098 -47.502 15.001s-13.5 24 -13.5 42c0 14 2 26.167 6 36.5l8 20.5h80v30c0 32 4.83301 60.333 14.5 85s23.167 45.167 40.5 61.5s38 28.833 62 37.5s50.333 13 79 13c17.333 0 33.833 -1.16699 49.5 -3.5s29.5 -6.33301 41.5 -12
s21.5 -12.834 28.5 -21.501s10.5 -19.334 10.5 -32.001c0 -14.667 -3.16699 -27.167 -9.5 -37.5s-13.833 -18.833 -22.5 -25.5c-1.33301 0.666992 -4 2.66699 -8 6s-9.16699 6.66602 -15.5 9.99902s-13.833 6.33301 -22.5 9s-18 4 -28 4c-29.333 0 -50 -8.66699 -62 -26
s-18 -38 -18 -62v-36h202v30c0 64.667 18.167 113.667 54.5 147s84.833 50 145.5 50c18.667 0 36.834 -1.16699 54.501 -3.5s33.334 -6.33301 47.001 -12s24.667 -13 33 -22s12.5 -19.833 12.5 -32.5c0 -14.667 -3.33301 -27.5 -10 -38.5s-14.334 -19.833 -23.001 -26.5
c-1.33301 0.666992 -4 2.83398 -8 6.50098s-9.5 7.33398 -16.5 11.001s-15.5 7 -25.5 10s-21.333 4.5 -34 4.5c-17.333 0 -31.666 -2.33301 -42.999 -7s-20.5 -11 -27.5 -19s-12 -17.333 -15 -28s-4.5 -22 -4.5 -34v-36h97c22.667 0 38.5 -5 47.5 -15s13.5 -24 13.5 -42
c0 -14 -2 -26.167 -6 -36.5l-8 -20.5h-144v-396h-140v396h-202v-396h-140v396h-33z" />
    <glyph glyph-name="f_i" unicode="fi" horiz-adv-x="669" 
d="M448 396l-204.001 -0.00390625v-396h-140v396h-33c-22.667 0 -38.5 5 -47.5 15s-13.5 24 -13.5 42c0 14 2 26.167 6 36.5l8 20.5h80v30c0 32 5.66699 60.333 17 85s27.5 45.167 48.5 61.5s46.333 28.833 76 37.5s62.5 13 98.5 13c42.667 0 74.834 -3.66699 96.501 -11
s36.167 -12.666 43.5 -15.999c6.66699 -3.33301 14.5 -8.66602 23.5 -15.999s13.5 -19.666 13.5 -36.999c0 -14.667 -3.33301 -27.5 -10 -38.5s-14.334 -19.833 -23.001 -26.5c-1.33301 0.666992 -5.5 3.33398 -12.5 8.00098s-16.5 9.5 -28.5 14.5s-25.667 9.5 -41 13.5
s-31.666 6 -48.999 6c-40 0 -68.833 -8.66699 -86.5 -26s-26.5 -38 -26.5 -62v-36h283c22.667 0 38.5 -5 47.5 -15s13.5 -24 13.5 -42v-453h-140v396z" />
    <glyph glyph-name="f_l" unicode="fl" horiz-adv-x="664" 
d="M244 0h-140.001v396h-33c-22.667 0 -38.5 5 -47.5 15s-13.5 24 -13.5 42c0 14 2 26.167 6 36.5l8 20.5h80v30c0 32 5.66699 60.333 17 85s27.5 45.167 48.5 61.5s46.333 28.833 76 37.5s62.5 13 98.5 13c30.667 0 60 -2.16699 88 -6.5s52.667 -9.33301 74 -15
s38.833 -11.167 52.5 -16.5s21.834 -9 24.501 -11v-688h-140v620c-11.333 3.33301 -24.5 6.33301 -39.5 9s-31.833 4 -50.5 4c-37.333 0 -64.833 -8.5 -82.5 -25.5s-26.5 -37.5 -26.5 -61.5v-36h87c22.667 0 38.5 -5 47.5 -15s13.5 -24 13.5 -42c0 -14 -2 -26.167 -6 -36.5
l-8 -20.5h-134v-396z" />
    <glyph glyph-name="f_f_i" unicode="ffi" horiz-adv-x="1020" 
d="M799 396l-204.001 -0.000976562v-396h-140v396h-211v-396h-140v396h-33c-22.667 0 -38.5 5 -47.5 15s-13.5 24 -13.5 42c0 14 2 26.167 6 36.5l8 20.5h80v30c0 32 4.83301 60.333 14.5 85s23.167 45.167 40.5 61.5s38 28.833 62 37.5s50.333 13 79 13
c17.333 0 33.833 -1.16699 49.5 -3.5s29.5 -6.33301 41.5 -12s21.5 -12.834 28.5 -21.501s10.5 -19.334 10.5 -32.001c0 -14.667 -3.16699 -27.167 -9.5 -37.5s-13.833 -18.833 -22.5 -25.5c-1.33301 0.666992 -4 2.66699 -8 6s-9.16699 6.66602 -15.5 9.99902
s-13.833 6.33301 -22.5 9s-18 4 -28 4c-29.333 0 -50 -8.66699 -62 -26s-18 -38 -18 -62v-36h211v30c0 32 5.66699 60.333 17 85s27.5 45.167 48.5 61.5s46.333 28.833 76 37.5s62.5 13 98.5 13c42.667 0 74.834 -3.66699 96.501 -11s36.167 -12.666 43.5 -15.999
c6.66699 -3.33301 14.5 -8.66602 23.5 -15.999s13.5 -19.666 13.5 -36.999c0 -14.667 -3.33301 -27.5 -10 -38.5s-14.334 -19.833 -23.001 -26.5c-1.33301 0.666992 -5.5 3.33398 -12.5 8.00098s-16.5 9.5 -28.5 14.5s-25.667 9.5 -41 13.5s-31.666 6 -48.999 6
c-40 0 -68.833 -8.66699 -86.5 -26s-26.5 -38 -26.5 -62v-36h283c22.667 0 38.5 -5 47.5 -15s13.5 -24 13.5 -42v-453h-140v396z" />
    <glyph glyph-name="f_f_l" unicode="ffl" horiz-adv-x="1006" 
d="M586 0l-140.001 0.00292969v396h-202v-396h-140v396h-33c-22.667 0 -38.5 5 -47.5 15s-13.5 24 -13.5 42c0 14 2 26.167 6 36.5l8 20.5h80v30c0 32 4.83301 60.333 14.5 85s23.167 45.167 40.5 61.5s38 28.833 62 37.5s50.333 13 79 13
c17.333 0 33.833 -1.16699 49.5 -3.5s29.5 -6.33301 41.5 -12s21.5 -12.834 28.5 -21.501s10.5 -19.334 10.5 -32.001c0 -14.667 -3.16699 -27.167 -9.5 -37.5s-13.833 -18.833 -22.5 -25.5c-1.33301 0.666992 -4 2.66699 -8 6s-9.16699 6.66602 -15.5 9.99902
s-13.833 6.33301 -22.5 9s-18 4 -28 4c-29.333 0 -50 -8.66699 -62 -26s-18 -38 -18 -62v-36h202v30c0 32 5.66699 60.333 17 85s27.5 45.167 48.5 61.5s46.333 28.833 76 37.5s62.5 13 98.5 13c30.667 0 60 -2.16699 88 -6.5s52.667 -9.33301 74 -15
s38.833 -11.167 52.5 -16.5s21.834 -9 24.501 -11v-688h-140v620c-11.333 3.33301 -24.5 6.33301 -39.5 9s-31.833 4 -50.5 4c-37.333 0 -64.833 -8.5 -82.5 -25.5s-26.5 -37.5 -26.5 -61.5v-36h87c22.667 0 38.5 -5 47.5 -15s13.5 -24 13.5 -42c0 -14 -2 -26.167 -6 -36.5
l-8 -20.5h-134v-396z" />
    <glyph glyph-name=".notdef" horiz-adv-x="500" 
d="M50 0v750h400v-750h-400zM400 50v650h-300v-650h300z" />
    <glyph glyph-name=".null" horiz-adv-x="0" 
 />
    <glyph glyph-name=".null" horiz-adv-x="0" 
 />
    <glyph glyph-name=".null" horiz-adv-x="0" 
 />
    <glyph glyph-name="nonmarkingreturn" unicode="&#x9;" horiz-adv-x="232" 
 />
    <glyph glyph-name="nonmarkingreturn" unicode="&#xd;" horiz-adv-x="232" 
 />
    <glyph glyph-name="space" unicode=" " horiz-adv-x="232" 
 />
    <glyph glyph-name="exclam" unicode="!" horiz-adv-x="268" 
d="M64 627c0 22.667 6.66699 38.332 20 46.999s31 13 53 13c15.333 0 29.5 -1.66699 42.5 -5s21.167 -5.66602 24.5 -6.99902v-451h-140v403zM220 68.998c0 -24 -8.33301 -44.333 -25 -61s-37 -25 -61 -25s-44.333 8.33301 -61 25s-25 37 -25 61s8.33301 44.333 25 61
s37 25 61 25s44.333 -8.33301 61 -25s25 -37 25 -61z" />
    <glyph glyph-name="quotedbl" unicode="&#x22;" horiz-adv-x="544" 
d="M82 677c0 22.667 6.66699 38.332 20 46.999s31 13 53 13c15.333 0 29.5 -1.66699 42.5 -5s21.167 -5.66602 24.5 -6.99902v-341h-140v293zM322 676.998c0 22.667 6.66699 38.332 20 46.999s31 13 53 13c15.333 0 29.5 -1.66699 42.5 -5s21.167 -5.66602 24.5 -6.99902
v-341h-140v293z" />
    <glyph glyph-name="numbersign" unicode="#" horiz-adv-x="777" 
d="M176 170h-61.0059c-24 0 -40.833 4.83301 -50.5 14.5s-14.5 24.167 -14.5 43.5c0 14 2.16699 26.333 6.5 37l8.5 21h131l22 128h-61c-24 0 -40.833 4.83301 -50.5 14.5s-14.5 24.167 -14.5 43.5c0 14 2.16699 26.333 6.5 37l8.5 21h131l22 128
c2.66699 13.333 8.33398 24.333 17.001 33s23.334 13 44.001 13c16 0 29.833 -2.5 41.5 -7.5s18.5 -8.83301 20.5 -11.5l-27 -155h127l22 128c2.66699 13.333 8.33398 24.333 17.001 33s23.334 13 44.001 13c16 0 29.833 -2.5 41.5 -7.5s18.5 -8.83301 20.5 -11.5l-27 -155
h60c24.667 0 41.834 -4.83301 51.501 -14.5s14.5 -24.167 14.5 -43.5c0 -14.667 -2.16699 -27.167 -6.5 -37.5l-8.5 -20.5h-130l-22 -128h59c24.667 0 41.834 -4.83301 51.501 -14.5s14.5 -24.167 14.5 -43.5c0 -14.667 -2.16699 -27.167 -6.5 -37.5l-8.5 -20.5h-129
l-29 -170h-120l29 170h-125l-29 -170h-120zM314.994 286h126l22 128h-126z" />
    <glyph glyph-name="dollar" unicode="$" horiz-adv-x="652" 
d="M282 -112v110.993c-36.667 2.66699 -69.5 8.33398 -98.5 17.001s-54 18.334 -75 29.001s-37.833 20.834 -50.5 30.501s-21 16.5 -25 20.5l66 91c2.66699 -3.33301 8.83398 -8.66602 18.501 -15.999s22.334 -15 38.001 -23s34.167 -15.667 55.5 -23s45 -12.333 71 -15v179
l-26 5c-27.333 5.33301 -53.333 12.833 -78 22.5s-46.334 22.334 -65.001 38.001s-33.334 34.5 -44.001 56.5s-16 48 -16 78c0 24 3.83301 47.667 11.5 71s20.5 44.333 38.5 63s41.667 34.334 71 47.001s65.333 20.667 108 24v68c0 22.667 12.333 34 37 34
c12.667 0 22.167 -1 28.5 -3s11.166 -3.66699 14.499 -5v-95c24.667 -2 46.667 -5.16699 66 -9.5s36 -9 50 -14s25.667 -10 35 -15s16.333 -9.16699 21 -12.5c10.667 -7.33301 18.834 -15.5 24.501 -24.5s8.5 -19.167 8.5 -30.5c0 -21.333 -5.16699 -38.666 -15.5 -51.999
s-19.833 -23 -28.5 -29c-4 4.66699 -10.333 10.667 -19 18s-19.5 14.666 -32.5 21.999s-28.5 14.166 -46.5 20.499s-39 10.833 -63 13.5v-172l15 -3c72 -14 127 -35.833 165 -65.5s57 -73.5 57 -131.5c0 -27.333 -4.5 -53.166 -13.5 -77.499s-23 -45.666 -42 -63.999
s-43.5 -33.5 -73.5 -45.5s-66 -19.333 -108 -22v-111h-80zM362 272.993v-163.002c18.667 2.66699 34 6.83398 46 12.501s21.333 12.167 28 19.5s11.167 15.333 13.5 24s3.5 17.334 3.5 26.001c0 20 -6.66699 36.833 -20 50.5s-35.333 23.5 -66 29.5zM191 501.991
c0 -16 6.00098 -31.168 18.001 -45.501s34.667 -24.833 68 -31.5l5 -1v157c-19.333 -2.66699 -34.833 -6.83398 -46.5 -12.501s-20.834 -12.167 -27.501 -19.5s-11.167 -15.166 -13.5 -23.499s-3.5 -16.166 -3.5 -23.499z" />
    <glyph glyph-name="percent" unicode="%" horiz-adv-x="1051" 
d="M390 0l-131 0.000976562l399 693c6 10.667 13.667 20.667 23 30s25.333 14 48 14c18.667 0 33 -4.33301 43 -13s16.667 -17.334 20 -26.001zM1007 178.001c0 -27.333 -5.33301 -52.833 -16 -76.5s-25 -44.167 -43 -61.5s-39 -31.166 -63 -41.499s-49.667 -15.5 -77 -15.5
s-53 5.16699 -77 15.5s-45 24.166 -63 41.499s-32.333 37.833 -43 61.5s-16 49.167 -16 76.5s5.33301 52.833 16 76.5s25 44.334 43 62.001s39 31.5 63 41.5s49.667 15 77 15s53 -5 77 -15s45 -23.833 63 -41.5s32.333 -38.334 43 -62.001s16 -49.167 16 -76.5zM443 542.001
c0 -27.333 -5.33301 -52.666 -16 -75.999s-25 -43.833 -43 -61.5s-39.167 -31.5 -63.5 -41.5s-50.166 -15 -77.499 -15s-53 5 -77 15s-45 23.833 -63 41.5s-32.333 38.167 -43 61.5s-16 48.666 -16 75.999s5.33301 52.833 16 76.5s25 44.334 43 62.001s39 31.5 63 41.5
s49.667 15 77 15s53.166 -5 77.499 -15s45.5 -23.833 63.5 -41.5s32.333 -38.334 43 -62.001s16 -49.167 16 -76.5zM897 178.001c0 12.667 -2.33301 24.834 -7 36.501s-11.167 21.834 -19.5 30.501s-17.833 15.5 -28.5 20.5s-22 7.5 -34 7.5s-23.333 -2.5 -34 -7.5
s-20.167 -11.833 -28.5 -20.5s-14.833 -18.834 -19.5 -30.501s-7 -23.834 -7 -36.501c0 -13.333 2.33301 -25.666 7 -36.999s11.167 -21.166 19.5 -29.499s17.833 -15 28.5 -20s22 -7.5 34 -7.5s23.333 2.5 34 7.5s20.167 11.667 28.5 20s14.833 18.166 19.5 29.499
s7 23.666 7 36.999zM332 542.001c0 12.667 -2.33301 24.834 -7 36.501s-11.167 21.834 -19.5 30.501s-17.833 15.5 -28.5 20.5s-22 7.5 -34 7.5s-23.333 -2.5 -34 -7.5s-20.167 -11.833 -28.5 -20.5s-14.833 -18.834 -19.5 -30.501s-7 -23.834 -7 -36.501
s2.33301 -24.667 7 -36s11.167 -21.333 19.5 -30s17.833 -15.5 28.5 -20.5s22 -7.5 34 -7.5s23.333 2.5 34 7.5s20.167 11.833 28.5 20.5s14.833 18.667 19.5 30s7 23.333 7 36z" />
    <glyph glyph-name="ampersand" unicode="&#x26;" horiz-adv-x="750" 
d="M501 291l-164.998 0.000976562c-43.333 0 -74.5 -9.16699 -93.5 -27.5s-28.5 -40.833 -28.5 -67.5c0 -14 2.83301 -26.667 8.5 -38s15.167 -21.333 28.5 -30s31.166 -15.334 53.499 -20.001s50.166 -7 83.499 -7c35.333 0 62 0.833008 80 2.5s29 3.16699 33 4.5v183z
M641.002 291.001l-0.000976562 -291.002c-12 -2 -25.333 -4 -40 -6s-31.834 -3.83301 -51.501 -5.5s-42.167 -3 -67.5 -4s-54.666 -1.5 -87.999 -1.5c-57.333 0 -106.5 4.66699 -147.5 14s-74.5 22.833 -100.5 40.5s-45.167 39.167 -57.5 64.5s-18.5 53.666 -18.5 84.999
c0 32.667 10.167 64.167 30.5 94.5s50.5 53.166 90.5 68.499c-36 15.333 -62.667 36.666 -80 63.999s-26 56.666 -26 87.999c0 30.667 6 58.334 18 83.001s29.167 45.834 51.5 63.501s49.666 31.334 81.999 41.001s68.5 14.5 108.5 14.5c24.667 0 47 -1.66699 67 -5
s37.167 -7.16602 51.5 -11.499s25.833 -8.66602 34.5 -12.999s14.667 -7.5 18 -9.5c21.333 -14 32 -32 32 -54c0 -9.33301 -1.5 -17.833 -4.5 -25.5s-6.33301 -14.5 -10 -20.5s-7.5 -11 -11.5 -15s-7 -6.66699 -9 -8c-0.666992 0.666992 -4.66699 3.66699 -12 9
s-17.666 11 -30.999 17s-29.666 11.5 -48.999 16.5s-41.333 7.5 -66 7.5c-46 0 -79.167 -8.83301 -99.5 -26.5s-30.5 -40.5 -30.5 -68.5s10.667 -49.333 32 -64s54.333 -22 99 -22h292c24 0 40.833 -5.16699 50.5 -15.5s14.5 -25.166 14.5 -44.499
c0 -14.667 -2.16699 -27.5 -6.5 -38.5l-8.5 -21.5h-57z" />
    <glyph glyph-name="quotesingle" unicode="'" horiz-adv-x="282" 
d="M71 677c0 22.667 6.66699 38.332 20 46.999s31 13 53 13c15.333 0 29.5 -1.66699 42.5 -5s21.167 -5.66602 24.5 -6.99902v-341h-140v293z" />
    <glyph glyph-name="parenleft" unicode="(" horiz-adv-x="385" 
d="M205 302c0 -50.667 3.83301 -94.332 11.5 -130.999s18.167 -67.667 31.5 -93s29 -45.333 47 -60s37.333 -25 58 -31v-119c-91.333 10 -163 51.833 -215 125.5s-78 176.5 -78 308.5s26 234.833 78 308.5s123.667 115.5 215 125.5v-119c-20.667 -6 -40 -16.333 -58 -31
s-33.667 -34.667 -47 -60s-23.833 -56.333 -31.5 -93s-11.5 -80.334 -11.5 -131.001z" />
    <glyph glyph-name="parenright" unicode=")" horiz-adv-x="385" 
d="M180 302c0 50.667 -3.83301 94.332 -11.5 130.999s-18.167 67.667 -31.5 93s-29 45.333 -47 60s-37.333 25 -58 31v119c91.333 -10 163 -51.833 215 -125.5s78 -176.5 78 -308.5s-26 -234.833 -78 -308.5s-123.667 -115.5 -215 -125.5v119c20.667 6 40 16.333 58 31
s33.667 34.667 47 60s23.833 56.333 31.5 93s11.5 80.334 11.5 131.001z" />
    <glyph glyph-name="asterisk" unicode="*" horiz-adv-x="598" 
d="M433 593c11.333 5.33301 21.1699 9.16699 29.5029 11.5s17.166 3.5 26.499 3.5c8 0 15.667 -1.16699 23 -3.5s14 -6.83301 20 -13.5s10.833 -15.834 14.5 -27.501s5.5 -26.834 5.5 -45.501v-4l-163 -50l113 -142l-98 -68l-104 153l-104 -153l-98 68l111 142l-163 50v4
c0 18.667 1.83301 33.834 5.5 45.501s8.5 20.834 14.5 27.501s12.667 11.167 20 13.5s15 3.5 23 3.5c9.33301 0 18.166 -1.16699 26.499 -3.5s18.166 -6.16602 29.499 -11.499l81 -38l-10 121c-0.666992 21.333 5 36.833 17 46.5s28.667 14.5 50 14.5
c14 0 27.333 -1.83301 40 -5.5s19.667 -5.83398 21 -6.50098l-11 -170z" />
    <glyph glyph-name="plus" unicode="+" horiz-adv-x="652" 
d="M140 277c-24.667 0 -42 5.5 -52 16.5s-15 26.5 -15 46.5c0 15.333 2.16699 28.666 6.5 39.999l8.5 22h173v133c0 21.333 6 36 18 44s28.333 12 49 12c14 0 27 -1.5 39 -4.5s19.667 -5.16699 23 -6.5v-178h122c24.667 0 42 -5.5 52 -16.5s15 -26.5 15 -46.5
c0 -15.333 -2.16699 -28.666 -6.5 -39.999l-8.5 -22h-174v-184h-129v184h-121z" />
    <glyph glyph-name="comma" unicode="," horiz-adv-x="282" 
d="M38 -159c2 2 7.16602 8 15.499 18s17.5 22.167 27.5 36.5s19.333 30 28 47s14.334 33.833 17.001 50.5c-25.333 4 -45 13.333 -59 28s-21 34.667 -21 60c0 26 8.5 47 25.5 63s38.833 24 65.5 24c12 0 24 -2.16699 36 -6.5s22.5 -11.333 31.5 -21s16.333 -22.167 22 -37.5
s8.5 -34 8.5 -56c0 -36 -6.83301 -69.5 -20.5 -100.5s-28.667 -58 -45 -81s-31.833 -41.5 -46.5 -55.5s-23 -21.667 -25 -23z" />
    <glyph glyph-name="hyphen" unicode="-" horiz-adv-x="375" 
d="M118 208c-26 0 -44.333 5.66699 -55 17s-16 27.666 -16 48.999c0 16.667 2.33301 30.834 7 42.501l9 22.5h194c26 0 44.333 -5.66699 55 -17s16 -27.666 16 -48.999c0 -16.667 -2.33301 -30.834 -7 -42.501l-9 -22.5h-194z" />
    <glyph glyph-name="period" unicode="." horiz-adv-x="282" 
d="M232 74c0 -25.333 -8.83301 -46.833 -26.5 -64.5s-39.167 -26.5 -64.5 -26.5s-46.833 8.83301 -64.5 26.5s-26.5 39.167 -26.5 64.5s8.83301 46.833 26.5 64.5s39.167 26.5 64.5 26.5s46.833 -8.83301 64.5 -26.5s26.5 -39.167 26.5 -64.5z" />
    <glyph glyph-name="slash" unicode="/" horiz-adv-x="377" 
d="M141 -17h-133.997l222 708c3.33301 11.333 9.66602 21.833 18.999 31.5s24.666 14.5 45.999 14.5s38.666 -3.16699 51.999 -9.5s21.333 -10.5 24 -12.5z" />
    <glyph glyph-name="zero" unicode="0" horiz-adv-x="652" 
d="M614 334c0 -54 -6.33301 -102.667 -19 -146s-31.167 -80.166 -55.5 -110.499s-54.333 -53.666 -90 -69.999s-76.834 -24.5 -123.501 -24.5s-88 8.16699 -124 24.5s-66.167 39.666 -90.5 69.999s-42.666 67.166 -54.999 110.499s-18.5 92 -18.5 146
s6.16699 102.833 18.5 146.5s30.666 80.834 54.999 111.501s54.5 54.167 90.5 70.5s77.333 24.5 124 24.5s87.834 -8.16699 123.501 -24.5s65.667 -39.833 90 -70.5s42.833 -67.834 55.5 -111.501s19 -92.5 19 -146.5zM467 334c0 34 -2.83301 65.5 -8.5 94.5
s-14.334 54.167 -26.001 75.5s-26.334 38 -44.001 50s-38.5 18 -62.5 18s-45 -6 -63 -18s-32.667 -28.667 -44 -50s-19.833 -46.5 -25.5 -75.5s-8.5 -60.5 -8.5 -94.5s2.83301 -65.5 8.5 -94.5s14.167 -54 25.5 -75s26 -37.333 44 -49s39 -17.5 63 -17.5
s44.833 5.83301 62.5 17.5s32.334 28 44.001 49s20.334 46 26.001 75s8.5 60.5 8.5 94.5z" />
    <glyph glyph-name="one" unicode="1" horiz-adv-x="652" 
d="M303 0v497.999l-129 -103c-6 0.666992 -13 2.5 -21 5.5s-15.5 7.33301 -22.5 13s-12.833 12.834 -17.5 21.501s-7 18.667 -7 30c0 18 5.5 33 16.5 45s25.167 24.667 42.5 38l114 87c15.333 11.333 29.833 19.666 43.5 24.999s30.5 8 50.5 8c22 0 39 -2.66699 51 -8
s18.667 -8.66602 20 -9.99902v-650h-141z" />
    <glyph glyph-name="two" unicode="2" horiz-adv-x="652" 
d="M80 0l-0.00195312 113.004c3.33301 2 14.5 9.66699 33.5 23l65.5 47.5l75 57.5c25.333 20 46 37.667 62 53c30.667 30 55.667 57.667 75 83s29 53.666 29 84.999c0 12.667 -2 25.5 -6 38.5s-10.667 24.833 -20 35.5s-22.166 19.5 -38.499 26.5s-36.5 10.5 -60.5 10.5
c-21.333 0 -39.666 -3.33301 -54.999 -10s-28.5 -14.834 -39.5 -24.501s-20 -20 -27 -31s-12.167 -20.833 -15.5 -29.5c-26 4.66699 -45.833 13.5 -59.5 26.5s-20.5 27.5 -20.5 43.5c0 26.667 12.333 52 37 76c5.33301 5.33301 13.333 11.666 24 18.999s24 14.166 40 20.499
s35 11.833 57 16.5s46.667 7 74 7c40 0 76 -5.16699 108 -15.5s59 -25 81 -44s38.833 -42 50.5 -69s17.5 -56.833 17.5 -89.5c0 -24 -3.5 -46.5 -10.5 -67.5s-15.667 -40.167 -26 -57.5s-21.833 -33.333 -34.5 -48s-24.667 -27.667 -36 -39c-14 -14 -29.667 -28.5 -47 -43.5
s-34 -28.667 -50 -41l-42 -31.5c-12 -8.66699 -19 -13.667 -21 -15h273v-126h-493z" />
    <glyph glyph-name="three" unicode="3" horiz-adv-x="652" 
d="M311 404c40 0 69.334 7.83496 88.001 23.502s28 36.167 28 61.5c0 12.667 -2.16699 24.5 -6.5 35.5s-11.333 20.667 -21 29s-22.334 15 -38.001 20s-34.5 7.5 -56.5 7.5c-26 0 -47.833 -3.83301 -65.5 -11.5s-32.167 -16.5 -43.5 -26.5s-19.666 -20 -24.999 -30
s-9 -17.333 -11 -22c-26 2 -45.333 9.83301 -58 23.5s-19 29.167 -19 46.5c0 9.33301 1.33301 18.333 4 27s7.66699 17.667 15 27c5.33301 6.66699 13 14.167 23 22.5s23.5 16.166 40.5 23.499s37.667 13.5 62 18.5s53.5 7.5 87.5 7.5
c45.333 0 84.166 -5.16699 116.499 -15.5s58.833 -24 79.5 -41s35.834 -36.667 45.501 -59s14.5 -45.833 14.5 -70.5c0 -21.333 -3.66699 -40.666 -11 -57.999s-16.5 -32.5 -27.5 -45.5s-23 -23.833 -36 -32.5s-25.5 -15.334 -37.5 -20.001
c42 -11.333 73.5 -31.5 94.5 -60.5s31.5 -61.833 31.5 -98.5c0 -60.667 -22.5 -109.667 -67.5 -147s-111.167 -56 -198.5 -56c-40 0 -75.333 3.5 -106 10.5s-56.5 14.667 -77.5 23s-37.333 16.333 -49 24s-18.167 12.167 -19.5 13.5l59 104c2.66699 -2 9 -6.33301 19 -13
s23 -13.5 39 -20.5s34.5 -13.167 55.5 -18.5s44.167 -8 69.5 -8c46.667 0 80 8.66699 100 26s30 39.333 30 66c0 30 -11.167 52.667 -33.5 68s-53.5 23 -93.5 23h-70c-2.66699 4 -6.16699 11.667 -10.5 23s-6.5 24.666 -6.5 39.999c0 20 5.16699 35 15.5 45
s29.166 15 56.499 15h14z" />
    <glyph glyph-name="four" unicode="4" horiz-adv-x="652" 
d="M544 259c23.333 0 39.5 -5.16992 48.5 -15.5029s13.5 -24.833 13.5 -43.5c0 -13.333 -1.66699 -25.833 -5 -37.5s-6.33301 -19.5 -9 -23.5h-82v-139h-138v139h-152c-63.333 0 -108.333 9.83301 -135 29.5s-40 50.5 -40 92.5c0 20 3.16699 40.667 9.5 62
s14.666 42.5 24.999 63.5s22.333 41.667 36 62s27.834 39.5 42.501 57.5c20 24.667 40.667 47.834 62 69.501s43 40.834 65 57.501s44.5 29.834 67.5 39.501s46.167 14.5 69.5 14.5c25.333 0 45.333 -3 60 -9s24 -10.667 28 -14v-405h34zM372 551.997
c-5.33301 -3.33301 -18.666 -13.667 -39.999 -31s-45 -42 -71 -74c-26.667 -32.667 -46.334 -61.5 -59.001 -86.5s-19 -45.167 -19 -60.5s6 -26 18 -32s27.667 -9 47 -9h124v293z" />
    <glyph glyph-name="five" unicode="5" horiz-adv-x="652" 
d="M123 590c1.33301 26 8.33301 45.498 21 58.498s32.667 19.5 60 19.5h274c28 0 47.667 -4.83301 59 -14.5s17 -25.167 17 -46.5c0 -16 -2.5 -29.833 -7.5 -41.5s-8.83301 -19.5 -11.5 -23.5h-288l-4 -123c8 1.33301 18.5 2.83301 31.5 4.5s31.5 2.5 55.5 2.5
c46 0 85.167 -6 117.5 -18s58.5 -27.833 78.5 -47.5s34.5 -42.5 43.5 -68.5s13.5 -53 13.5 -81c0 -34 -6 -65 -18 -93s-29.833 -52 -53.5 -72s-52.834 -35.5 -87.501 -46.5s-74.667 -16.5 -120 -16.5c-40 0 -74.5 3.16699 -103.5 9.5s-53.167 13.333 -72.5 21
s-34 14.834 -44 21.501s-15.333 10.667 -16 12l56 100c0.666992 -0.666992 5.5 -3.66699 14.5 -9s21 -11 36 -17s32.833 -11.333 53.5 -16s43.334 -7 68.001 -7c26.667 0 49 2.83301 67 8.5s32.5 13.167 43.5 22.5s18.833 20.333 23.5 33s7 26 7 40s-2.16699 27.5 -6.5 40.5
s-12.333 24.5 -24 34.5s-27.5 18 -47.5 24s-46 9 -78 9c-42.667 0 -78.167 -4.16699 -106.5 -12.5s-48.833 -15.166 -61.5 -20.499z" />
    <glyph glyph-name="six" unicode="6" horiz-adv-x="652" 
d="M594 231c0 -36 -6.83203 -69.1641 -20.499 -99.4971s-32.5 -56.5 -56.5 -78.5s-52.333 -39.167 -85 -51.5s-68.334 -18.5 -107.001 -18.5s-74.334 6 -107.001 18s-60.834 28.667 -84.501 50s-42.167 46.666 -55.5 75.999s-20 61.666 -20 96.999c0 46 10.167 89 30.5 129
s43.833 77.333 70.5 112l134 176l13 15.5c4.66699 5.66699 10.334 10.667 17.001 15s14.834 8 24.501 11s21.167 4.5 34.5 4.5c24 0 42.833 -4.83301 56.5 -14.5s22.167 -17.5 25.5 -23.5l-168 -216c7.33301 4 18 7.83301 32 11.5s29.667 5.5 47 5.5
c34 0 64.5 -5.5 91.5 -16.5s50 -26.333 69 -46s33.5 -42.834 43.5 -69.501s15 -55.667 15 -87zM453.001 224.003c0 38 -12 69.167 -36 93.5s-55 36.5 -93 36.5c-18.667 0 -35.834 -3.33301 -51.501 -10s-29.334 -15.667 -41.001 -27s-20.667 -25 -27 -41
s-9.5 -33.333 -9.5 -52s3.16699 -36 9.5 -52s15.333 -29.667 27 -41s25.334 -20.333 41.001 -27s32.834 -10 51.501 -10c38 0 69 12.167 93 36.5s36 55.5 36 93.5z" />
    <glyph glyph-name="seven" unicode="7" horiz-adv-x="652" 
d="M581 595c0 -10.667 -2.33203 -23.168 -6.99902 -37.501s-10.334 -29.166 -17.001 -44.499l-26 -58l-35.5 -77.5l-41 -90.5l-44 -97l-44 -98l-40.5 -92h-146l121 270.5l125 270.5h-287c-25.333 0 -43 5.33301 -53 16s-15 26 -15 46c0 15.333 2.16699 29 6.5 41
s7.83301 20 10.5 24h403c60 0 90 -24.333 90 -73z" />
    <glyph glyph-name="eight" unicode="8" horiz-adv-x="652" 
d="M607 182c0 -30 -6.16602 -57.167 -18.499 -81.5s-30.5 -45.166 -54.5 -62.499s-53.5 -30.833 -88.5 -40.5s-75.167 -14.5 -120.5 -14.5s-85.5 4.83301 -120.5 14.5s-64.333 23.167 -88 40.5s-41.667 38.166 -54 62.499s-18.5 51.5 -18.5 81.5c0 32 9.66699 62.667 29 92
s46.666 51.333 81.999 66c-32 16 -56 37.167 -72 63.5s-24 54.5 -24 84.5s6 57.167 18 81.5s29.5 45.166 52.5 62.499s50.833 30.833 83.5 40.5s70 14.5 112 14.5s79.5 -4.83301 112.5 -14.5s61 -23.167 84 -40.5s40.5 -38.166 52.5 -62.499s18 -51.5 18 -81.5
s-8.16699 -58.167 -24.5 -84.5s-40.5 -47.5 -72.5 -63.5c37.333 -16 65.333 -38.333 84 -67s28 -59 28 -91zM454.001 484c0 26.667 -10.5 49.167 -31.5 67.5s-53.5 27.5 -97.5 27.5s-76.333 -9.16699 -97 -27.5s-31 -40.833 -31 -67.5c0 -27.333 10.333 -50 31 -68
s53 -27 97 -27s76.5 9 97.5 27s31.5 40.667 31.5 68zM463.001 190c0 26.667 -11.5 49.167 -34.5 67.5s-57.5 27.5 -103.5 27.5s-80.5 -9.16699 -103.5 -27.5s-34.5 -40.833 -34.5 -67.5s11.5 -49.334 34.5 -68.001s57.5 -28 103.5 -28s80.5 9.33301 103.5 28
s34.5 41.334 34.5 68.001z" />
    <glyph glyph-name="nine" unicode="9" horiz-adv-x="652" 
d="M330 -8l-163.003 0.000976562l188 243c-3.33301 -2 -11.5 -4.83301 -24.5 -8.5s-29.167 -5.5 -48.5 -5.5c-34.667 0 -65.834 5.5 -93.501 16.5s-51.167 26.167 -70.5 45.5s-34.166 42.333 -44.499 69s-15.5 55.667 -15.5 87c0 36 6.83301 69.167 20.5 99.5
s32.5 56.5 56.5 78.5s52.333 39.167 85 51.5s68.334 18.5 107.001 18.5s74.334 -6 107.001 -18s60.834 -28.667 84.501 -50s42.167 -46.833 55.5 -76.5s20 -61.834 20 -96.501c0 -46 -10.167 -89 -30.5 -129s-43.833 -77.333 -70.5 -112zM198.997 446.001
c0 -38 12 -69.167 36 -93.5s55 -36.5 93 -36.5c18.667 0 35.834 3.33301 51.501 10s29.167 15.667 40.5 27s20.333 25 27 41s10 33.333 10 52s-3.33301 36 -10 52s-15.667 29.667 -27 41s-24.833 20.333 -40.5 27s-32.834 10 -51.501 10c-38 0 -69 -12.167 -93 -36.5
s-36 -55.5 -36 -93.5z" />
    <glyph glyph-name="colon" unicode=":" horiz-adv-x="282" 
d="M232 419c0 -25.333 -8.83301 -46.833 -26.5 -64.5s-39.167 -26.5 -64.5 -26.5s-46.833 8.83301 -64.5 26.5s-26.5 39.167 -26.5 64.5s8.83301 46.833 26.5 64.5s39.167 26.5 64.5 26.5s46.833 -8.83301 64.5 -26.5s26.5 -39.167 26.5 -64.5zM232 74
c0 -25.333 -8.83301 -46.833 -26.5 -64.5s-39.167 -26.5 -64.5 -26.5s-46.833 8.83301 -64.5 26.5s-26.5 39.167 -26.5 64.5s8.83301 46.833 26.5 64.5s39.167 26.5 64.5 26.5s46.833 -8.83301 64.5 -26.5s26.5 -39.167 26.5 -64.5z" />
    <glyph glyph-name="semicolon" unicode=";" horiz-adv-x="282" 
d="M232 419c0 -25.333 -8.83301 -46.833 -26.5 -64.5s-39.167 -26.5 -64.5 -26.5s-46.833 8.83301 -64.5 26.5s-26.5 39.167 -26.5 64.5s8.83301 46.833 26.5 64.5s39.167 26.5 64.5 26.5s46.833 -8.83301 64.5 -26.5s26.5 -39.167 26.5 -64.5zM38 -159
c2 2 7.16602 8 15.499 18s17.5 22.167 27.5 36.5s19.333 30 28 47s14.334 33.833 17.001 50.5c-25.333 4 -45 13.333 -59 28s-21 34.667 -21 60c0 26 8.5 47 25.5 63s38.833 24 65.5 24c12 0 24 -2.16699 36 -6.5s22.5 -11.333 31.5 -21s16.333 -22.167 22 -37.5
s8.5 -34 8.5 -56c0 -36 -6.83301 -69.5 -20.5 -100.5s-28.667 -58 -45 -81s-31.833 -41.5 -46.5 -55.5s-23 -21.667 -25 -23z" />
    <glyph glyph-name="less" unicode="&#x3c;" horiz-adv-x="652" 
d="M136 267c-17.333 7.33301 -29.667 17.1689 -37 29.502s-11 26.166 -11 41.499c0 18 2.66699 32.667 8 44s9 18.666 11 21.999l457 187v-138l-303 -111l303 -111v-138z" />
    <glyph glyph-name="equal" unicode="=" horiz-adv-x="652" 
d="M140 408c-24.667 0 -42 5.5 -52 16.5s-15 26.5 -15 46.5c0 15.333 2.16699 28.666 6.5 39.999l8.5 22h424c24.667 0 42 -5.5 52 -16.5s15 -26.5 15 -46.5c0 -15.333 -2.16699 -28.666 -6.5 -39.999l-8.5 -22h-424zM140 147c-24.667 0 -42 5.5 -52 16.5s-15 26.5 -15 46.5
c0 15.333 2.16699 28.666 6.5 39.999l8.5 22h424c24.667 0 42 -5.5 52 -16.5s15 -26.5 15 -46.5c0 -15.333 -2.16699 -28.666 -6.5 -39.999l-8.5 -22h-424z" />
    <glyph glyph-name="greater" unicode="&#x3e;" horiz-adv-x="652" 
d="M516 417c17.333 -7.33301 29.667 -17.1689 37 -29.502s11 -26.166 11 -41.499c0 -18 -2.66699 -32.667 -8 -44s-9 -18.666 -11 -21.999l-457 -187v138l303 111l-303 111v138z" />
    <glyph glyph-name="question" unicode="?" horiz-adv-x="561" 
d="M323 69c0 -24 -8.33301 -44.333 -25 -61s-37 -25 -61 -25s-44.333 8.33301 -61 25s-25 37 -25 61s8.33301 44.333 25 61s37 25 61 25s44.333 -8.33301 61 -25s25 -37 25 -61zM167 220l-0.00292969 28.9922c0 20.667 3 38.334 9 53.001s14 27.334 24 38.001
s21.167 19.667 33.5 27l37.5 22c24 13.333 45 28.833 63 46.5s27 40.834 27 69.501c0 12.667 -2 24.5 -6 35.5s-10.5 20.667 -19.5 29s-20.833 14.833 -35.5 19.5s-32.667 7 -54 7c-26.667 0 -48.667 -4.16699 -66 -12.5s-31.333 -17.666 -42 -27.999
s-18.167 -20.166 -22.5 -29.499s-6.83301 -15.333 -7.5 -18c-27.333 4 -47 11.833 -59 23.5s-18 26.5 -18 44.5c0 12 2.33301 22.833 7 32.5s10.667 18.834 18 27.501c2.66699 3.33301 8.33398 8.66602 17.001 15.999s21 14.833 37 22.5s36.333 14.5 61 20.5
s54.334 9 89.001 9c42 0 78.333 -5 109 -15s56 -23.667 76 -41s34.833 -37.333 44.5 -60s14.5 -46.667 14.5 -72c0 -26 -3.16699 -48.667 -9.5 -68s-14.5 -36.333 -24.5 -51s-21.333 -27.5 -34 -38.5s-25.334 -21.167 -38.001 -30.5
c-15.333 -11.333 -28.666 -20.666 -39.999 -27.999s-20.666 -14.666 -27.999 -21.999s-13 -15.166 -17 -23.499s-6 -18.5 -6 -30.5v-4h-140z" />
    <glyph glyph-name="at" unicode="@" horiz-adv-x="1015" 
d="M835 251c0 52 -8.50391 98.6729 -25.5039 140.006s-40.333 76.5 -70 105.5s-64.334 51.167 -104.001 66.5s-82.5 23 -128.5 23s-88.833 -7.66699 -128.5 -23s-74.167 -37.5 -103.5 -66.5s-52.5 -64.167 -69.5 -105.5s-25.5 -88 -25.5 -140c0 -51.333 8.66699 -98 26 -140
s41.5 -77.833 72.5 -107.5s68.333 -52.667 112 -69s91.834 -24.5 144.501 -24.5c33.333 0 62 1.16699 86 3.5s43.833 5 59.5 8s27.334 5.66699 35.001 8s12.167 3.83301 13.5 4.5l32 -106c-4.66699 -2 -13 -4.66699 -25 -8s-27.667 -6.83301 -47 -10.5
s-42.833 -6.83398 -70.5 -9.50098s-59.167 -4 -94.5 -4c-66.667 0 -128.667 11 -186 33s-107 53 -149 93s-74.833 88 -98.5 144s-35.5 117.667 -35.5 185c0 68 11.833 129.833 35.5 185.5s56 103.334 97 143.001s88.833 70.334 143.5 92.001s113.334 32.5 176.001 32.5
s121.5 -10.833 176.5 -32.5s103 -52.334 144 -92.001s73.333 -87.334 97 -143.001s35.5 -117.5 35.5 -185.5c0 -36 -4.5 -72.5 -13.5 -109.5s-20.167 -73.5 -33.5 -109.5c-6.66699 -1.33301 -21.834 -3 -45.501 -5s-52.5 -4 -86.5 -6s-71.5 -3.66699 -112.5 -5
s-82.5 -2 -124.5 -2c-47.333 0 -87.166 3.33301 -119.499 10s-58.5 16.5 -78.5 29.5s-34.333 29.167 -43 48.5s-13 41.666 -13 66.999c0 48 16.833 83.667 50.5 107s87.5 35 161.5 35c23.333 0 42.5 -0.666992 57.5 -2s23.167 -2.33301 24.5 -3v12
c0 29.333 -8.16699 50.5 -24.5 63.5s-42.166 19.5 -77.499 19.5c-18 0 -34.167 -1.5 -48.5 -4.5s-26.666 -6.5 -36.999 -10.5s-18.833 -8.16699 -25.5 -12.5s-11.667 -7.83301 -15 -10.5c-8 5.33301 -15 13.166 -21 23.499s-9 22.166 -9 35.499c0 12.667 4.5 23.667 13.5 33
s21 16.666 36 21.999s32.667 9.33301 53 12s42.166 4 65.499 4c72 0 125.833 -14.833 161.5 -44.5s53.5 -72.834 53.5 -129.501v-210c3.33301 0 9 0.166992 17 0.5s17 0.666016 27 0.999023s20.333 0.833008 31 1.5s20.334 1.33398 29.001 2.00098
c1.33301 4 3.16602 10.5 5.49902 19.5s4.83301 19.667 7.5 32s4.83398 25.833 6.50098 40.5s2.5 29.667 2.5 45zM583.996 223.006c-3.33301 0.666992 -10.999 1.5 -22.999 2.5s-29.667 1.5 -53 1.5c-36.667 0 -61.167 -6 -73.5 -18s-18.5 -27 -18.5 -45
s7.16699 -32 21.5 -42s41.166 -15 80.499 -15c11.333 0 23.833 0.166992 37.5 0.5s23.167 0.833008 28.5 1.5v114z" />
    <glyph glyph-name="A" unicode="A" horiz-adv-x="762" 
d="M10 0l47.5 122l51 124.5l50 119.5l45.5 106.5l37.5 85.5c11 24.667 19.833 43.667 26.5 57c14.667 31.333 31 52.666 49 63.999s39.667 17 65 17c26 0 45.833 -3.66699 59.5 -11s23.167 -13.666 28.5 -18.999c12 -20.667 26.333 -48.5 43 -83.5l52.5 -116l55.5 -132
l53 -132.5l45.5 -117l32.5 -85h-154c-5.33301 14.667 -12.833 34.167 -22.5 58.5l-34.5 87.5h-327l-34 -87l-23 -59h-147zM378 553c-3.33301 -6.66699 -8.83203 -19.333 -16.499 -38l-27 -67l-34.5 -85.5l-37 -92.5h229l-36.5 92.5l-34.5 85l-27.5 66.5
c-7.66699 18.667 -12.834 31.667 -15.501 39z" />
    <glyph glyph-name="B" unicode="B" horiz-adv-x="677" 
d="M85 609c0 52 26.998 77.999 80.998 77.999h198c40 0 74.333 -4.83301 103 -14.5s52.5 -22.667 71.5 -39s33 -35.666 42 -57.999s13.5 -46.166 13.5 -71.499s-4.16699 -47.166 -12.5 -65.499s-18 -33.5 -29 -45.5s-21.5 -21.167 -31.5 -27.5s-16.333 -10.166 -19 -11.499
c11.333 -2.66699 24.333 -7.83398 39 -15.501s28.334 -18 41.001 -31s23.334 -29 32.001 -48s13 -41.5 13 -67.5c0 -20.667 -3.66699 -42.334 -11 -65.001s-20 -43.334 -38 -62.001s-42.167 -34.167 -72.5 -46.5s-68.5 -18.5 -114.5 -18.5h-306v609zM449.998 490.999
c0 21.333 -7.5 40 -22.5 56s-39.5 24 -73.5 24h-127v-163h125c34 0 58.833 8.5 74.5 25.5s23.5 36.167 23.5 57.5zM479.998 203.999c0 10.667 -2.00195 21.333 -6.00195 32s-10 20.167 -18 28.5s-18.167 15 -30.5 20s-27.166 7.5 -44.499 7.5h-154v-175h154
c34.667 0 59.834 9 75.501 27s23.5 38 23.5 60z" />
    <glyph glyph-name="C" unicode="C" horiz-adv-x="700" 
d="M660 590c0 -11.333 -2.16602 -21.6709 -6.49902 -31.0039s-9.5 -17.666 -15.5 -24.999s-12.167 -13.5 -18.5 -18.5s-11.5 -8.5 -15.5 -10.5c-5.33301 5.33301 -12.833 12.333 -22.5 21s-22.167 17 -37.5 25s-33.5 15 -54.5 21s-44.833 9 -71.5 9
c-32 0 -61 -5.66699 -87 -17s-48.333 -27.333 -67 -48s-33.167 -45.5 -43.5 -74.5s-15.5 -61.5 -15.5 -97.5c0 -76.667 19.5 -135 58.5 -175s91.167 -60 156.5 -60c27.333 0 51.833 2.5 73.5 7.5s40.167 10.5 55.5 16.5s27.666 12 36.999 18s15.333 10 18 12l64 -108
c-3.33301 -3.33301 -11.333 -8.83301 -24 -16.5s-30 -15.667 -52 -24s-48.167 -15.666 -78.5 -21.999s-64.833 -9.5 -103.5 -9.5c-50 0 -96.667 7.66699 -140 23s-80.833 38.333 -112.5 69s-56.667 68.334 -75 113.001s-27.5 96.667 -27.5 156
c0 56 9.16699 106.167 27.5 150.5s43.666 82 75.999 113s70.333 54.833 114 71.5s91.167 25 142.5 25c54.667 0 98.667 -5.66699 132 -17s58 -22.666 74 -33.999c12.667 -9.33301 22.334 -19.5 29.001 -30.5s10 -21.833 10 -32.5z" />
    <glyph glyph-name="D" unicode="D" horiz-adv-x="760" 
d="M705 344c0 -52 -8.5 -99.168 -25.5 -141.501s-41.333 -78.5 -73 -108.5s-70 -53.167 -115 -69.5s-95.5 -24.5 -151.5 -24.5h-255v609c0 52 27 78 81 78h166c50 0 92.667 -4.33301 128 -13c38.667 -9.33301 73.167 -23.833 103.5 -43.5s56 -43.667 77 -72
s37 -60.666 48 -96.999s16.5 -75.5 16.5 -117.5zM555 343.999c0 51.333 -11.667 96.168 -35 134.501s-60.333 64.5 -111 78.5c-11.333 3.33301 -24 5.83301 -38 7.5s-28.333 2.5 -43 2.5h-98v-447h104c36.667 0 68.667 5.83301 96 17.5s50.333 27.5 69 47.5
s32.667 43.667 42 71s14 56.666 14 87.999z" />
    <glyph glyph-name="E" unicode="E" horiz-adv-x="648" 
d="M230 282v-155h338v-127h-483v609c0 52 27 78 81 78h339c25.333 0 43 -5.33301 53 -16s15 -26 15 -46c0 -15.333 -2.16699 -29 -6.5 -41s-7.83301 -20 -10.5 -24h-326v-151h261c25.333 0 43 -5.33301 53 -16s15 -26 15 -46c0 -15.333 -2.16699 -29 -6.5 -41
s-7.83301 -20 -10.5 -24h-312z" />
    <glyph glyph-name="F" unicode="F" horiz-adv-x="580" 
d="M85 0v609c0 52 27 78 81 78h306c25.333 0 43 -5.33301 53 -16s15 -26 15 -46c0 -15.333 -2.16699 -29 -6.5 -41s-7.83301 -20 -10.5 -24h-293v-160h214c25.333 0 43 -5.33301 53 -16s15 -26 15 -46c0 -15.333 -2.16699 -29 -6.5 -41s-7.83301 -20 -10.5 -24h-265v-273
h-145z" />
    <glyph glyph-name="G" unicode="G" horiz-adv-x="746" 
d="M589 395c54 0 80.9951 -25.9961 80.9951 -77.9961v-317c-2 -0.666992 -9.83301 -1.83398 -23.5 -3.50098s-31.167 -3.5 -52.5 -5.5s-45.333 -3.83301 -72 -5.5s-53.667 -2.5 -81 -2.5c-56 0 -107.5 7.5 -154.5 22.5s-87.667 37.5 -122 67.5s-61.166 67.5 -80.499 112.5
s-29 97.5 -29 157.5c0 56 9.33301 106.167 28 150.5s44.667 82.166 78 113.499s73 55.333 119 72s96.667 25 152 25c27.333 0 51.666 -1.66699 72.999 -5s40.333 -7.5 57 -12.5s30.834 -10.5 42.501 -16.5s21.5 -11.667 29.5 -17c12.667 -9.33301 22.334 -19.5 29.001 -30.5
s10 -21.833 10 -32.5c0 -11.333 -2.16699 -21.5 -6.5 -30.5s-9.5 -17 -15.5 -24s-12.167 -12.667 -18.5 -17s-11.5 -7.5 -15.5 -9.5l-22.5 21.5c-9.66699 9 -22 17.667 -37 26s-33 15.5 -54 21.5s-44.833 9 -71.5 9c-34 0 -64.833 -5.5 -92.5 -16.5s-51.5 -27 -71.5 -48
s-35.5 -46.667 -46.5 -77s-16.5 -64.5 -16.5 -102.5c0 -39.333 5.66699 -73.833 17 -103.5s27.5 -54.334 48.5 -74.001s46.333 -34.5 76 -44.5s62.834 -15 99.501 -15c24.667 0 43.334 0.666992 56.001 2s21.334 2.66602 26.001 3.99902v156h-75
c-25.333 0 -43 5.33301 -53 16s-15 26 -15 46c0 15.333 2.16699 29 6.5 41s7.83301 20 10.5 24h187z" />
    <glyph glyph-name="H" unicode="H" horiz-adv-x="760" 
d="M530 623c0 23.333 6.83301 39.833 20.5 49.5s32.167 14.5 55.5 14.5c16.667 0 31.5 -2 44.5 -6s21.167 -6.66699 24.5 -8v-673h-145v294h-300v-294h-145v623c0 23.333 6.83301 39.833 20.5 49.5s32.167 14.5 55.5 14.5c16.667 0 31.5 -2 44.5 -6s21.167 -6.66699 24.5 -8
v-254h300v204z" />
    <glyph glyph-name="I" unicode="I" horiz-adv-x="315" 
d="M85 623c0 23.333 6.83301 39.833 20.5 49.5s32.167 14.5 55.5 14.5c16.667 0 31.5 -2 44.5 -6s21.167 -6.66699 24.5 -8v-673h-145v623z" />
    <glyph glyph-name="J" unicode="J" horiz-adv-x="576" 
d="M346 623c0 23.333 6.83398 39.833 20.501 49.5s32.167 14.5 55.5 14.5c16.667 0 31.5 -2 44.5 -6s21.167 -6.66699 24.5 -8v-437c0 -38 -4.5 -72.5 -13.5 -103.5s-23.5 -57.5 -43.5 -79.5s-46 -39.167 -78 -51.5s-71 -18.5 -117 -18.5c-41.333 0 -76.333 5.5 -105 16.5
s-52.334 23.167 -71.001 36.5s-32.5 26 -41.5 38s-13.833 18.667 -14.5 20l89 87c0 -0.666992 2.83301 -5.16699 8.5 -13.5s14.167 -17.333 25.5 -27s25.333 -18.5 42 -26.5s36.667 -12 60 -12c40 0 69 10.667 87 32s27 56.333 27 105v384z" />
    <glyph glyph-name="K" unicode="K" horiz-adv-x="706" 
d="M230 401l53.498 54.499l66.5 65l70.5 67l65.5 60.5c13.333 12 25.833 21.5 37.5 28.5s27.834 10.5 48.501 10.5c14.667 0 27.667 -2.33301 39 -7s21 -9.66699 29 -15s14.167 -10.666 18.5 -15.999s6.83301 -8.33301 7.5 -9c-10 -8 -22.833 -19.167 -38.5 -33.5l-51.5 -48
l-58 -54.5l-57 -54.5l-49 -49l-34 -35.5c62.667 -63.333 120.167 -124.5 172.5 -183.5s100.833 -119.5 145.5 -181.5h-178c-21.333 27.333 -45 56 -71 86l-78.5 87l-76 78c-24.333 24 -45.166 43.667 -62.499 59v-310h-145v623c0 23.333 6.83301 39.833 20.5 49.5
s32.167 14.5 55.5 14.5c16.667 0 31.5 -2 44.5 -6s21.167 -6.66699 24.5 -8v-272z" />
    <glyph glyph-name="L" unicode="L" horiz-adv-x="583" 
d="M85 623c0 23.333 6.83301 39.833 20.5 49.5s32.167 14.5 55.5 14.5c16.667 0 31.5 -2 44.5 -6s21.167 -6.66699 24.5 -8v-546h328v-127h-473v623z" />
    <glyph glyph-name="M" unicode="M" horiz-adv-x="912" 
d="M698 0l-27 481.001l-83 -178l-84 -175h-96l-45 91.5l-44.5 94l-41.5 89.5l-36 78l-26 -481h-145l32 608c1.33301 26.667 9.83301 46.5 25.5 59.5s36.5 19.5 62.5 19.5c23.333 0 43.166 -2.83301 59.499 -8.5s27.833 -10.834 34.5 -15.501l41.5 -86l43.5 -91.5l44.5 -93
c15 -31 30.167 -60.833 45.5 -89.5l81.5 163.5l73.5 155.5c10.667 23.333 23 40 37 50s35 15 63 15c24.667 0 44.834 -3 60.501 -9s25.5 -10.667 29.5 -14l38 -664h-144z" />
    <glyph glyph-name="N" unicode="N" horiz-adv-x="769" 
d="M246 663c3.33301 -3.33301 10.833 -13 22.5 -29l42.5 -59.5l55.5 -79l61.5 -90l60.5 -91.5l52.5 -82v391c0 23.333 6.83301 39.833 20.5 49.5s32.167 14.5 55.5 14.5c16.667 0 31.167 -2 43.5 -6s20.166 -6.66699 23.499 -8v-673h-142l-79 121.5l-88 133l-83.5 123
l-64.5 92.5v-470h-142v614c0 8.66699 1.66699 17.334 5 26.001s8.33301 16.5 15 23.5s15.334 12.667 26.001 17s23 6.5 37 6.5c21.333 0 38 -2.83301 50 -8.5s21.333 -10.834 28 -15.501z" />
    <glyph glyph-name="O" unicode="O" horiz-adv-x="826" 
d="M771 344c0 -51.333 -8.66699 -99 -26 -143s-41.666 -82.167 -72.999 -114.5s-69 -57.666 -113 -75.999s-92.667 -27.5 -146 -27.5s-102 9.16699 -146 27.5s-81.667 43.666 -113 75.999s-55.666 70.5 -72.999 114.5s-26 91.667 -26 143s8.66699 99 26 143
s41.666 82 72.999 114s69 57.167 113 75.5s92.667 27.5 146 27.5s102 -9.16699 146 -27.5s81.667 -43.5 113 -75.5s55.666 -70 72.999 -114s26 -91.667 26 -143zM621 344c0 34 -4.83301 65.667 -14.5 95s-23.334 54.5 -41.001 75.5s-39.334 37.5 -65.001 49.5
s-54.5 18 -86.5 18c-32.667 0 -61.834 -6 -87.501 -18s-47.5 -28.5 -65.5 -49.5s-31.833 -46.167 -41.5 -75.5s-14.5 -61 -14.5 -95s4.83301 -65.5 14.5 -94.5s23.5 -54.333 41.5 -76s39.833 -38.5 65.5 -50.5s54.834 -18 87.501 -18c32 0 60.833 6 86.5 18
s47.334 28.833 65.001 50.5s31.334 47 41.001 76s14.5 60.5 14.5 94.5z" />
    <glyph glyph-name="P" unicode="P" horiz-adv-x="654" 
d="M457 455c0 20.667 -5.33301 41.498 -16 62.498s-27.667 35.5 -51 43.5c-8.66699 3.33301 -19.167 5.83301 -31.5 7.5s-24.833 2.5 -37.5 2.5h-94v-229c5.33301 -1.33301 15.5 -3.16602 30.5 -5.49902s32.167 -3.5 51.5 -3.5c30 0 54.5 3.66699 73.5 11s34 16.833 45 28.5
s18.667 24.834 23 39.501s6.5 29 6.5 43zM357 686.998c15.333 0 30.501 -0.832031 45.501 -2.49902s28.833 -4.16699 41.5 -7.5c27.333 -6.66699 51.166 -17.5 71.499 -32.5s37 -32.667 50 -53s22.667 -42.5 29 -66.5s9.5 -48.333 9.5 -73c0 -29.333 -4.5 -58 -13.5 -86
s-24.167 -53 -45.5 -75s-49.666 -39.667 -84.999 -53s-79.666 -20 -132.999 -20c-24.667 0 -46.334 1.16699 -65.001 3.5s-30.334 4.16602 -35.001 5.49902v-227h-142v609c0 52 27 78 81 78h191z" />
    <glyph glyph-name="Q" unicode="Q" horiz-adv-x="826" 
d="M771 344c0 -56 -10.168 -107.33 -30.501 -153.997s-48.5 -86.334 -84.5 -119.001l82 -107l-105 -80l-92 120c-19.333 -6.66699 -39.666 -11.834 -60.999 -15.501s-43.666 -5.5 -66.999 -5.5c-53.333 0 -102 9.16699 -146 27.5s-81.667 43.666 -113 75.999
s-55.666 70.5 -72.999 114.5s-26 91.667 -26 143s8.66699 99 26 143s41.666 82 72.999 114s69 57.167 113 75.5s92.667 27.5 146 27.5s102 -9.16699 146 -27.5s81.667 -43.5 113 -75.5s55.666 -70 72.999 -114s26 -91.667 26 -143zM620.999 344.003
c0 34 -4.83008 65.666 -14.4971 94.999s-23.334 54.5 -41.001 75.5s-39.334 37.5 -65.001 49.5s-54.5 18 -86.5 18c-32.667 0 -61.834 -6 -87.501 -18s-47.5 -28.5 -65.5 -49.5s-31.833 -46.167 -41.5 -75.5s-14.5 -61 -14.5 -95s4.83301 -65.5 14.5 -94.5
s23.5 -54.333 41.5 -76s39.833 -38.5 65.5 -50.5s54.834 -18 87.501 -18c15.333 0 30.666 1.66699 45.999 5l-62 82c-5.33301 7.33301 -9.33301 14.333 -12 21s-4 14.667 -4 24c0 10.667 3.5 20.334 10.5 29.001s15.5 15.834 25.5 21.501s20.5 10 31.5 13
s20.5 4.83301 28.5 5.5l94 -124c15.333 21.333 27.333 45.666 36 72.999s13 57 13 89z" />
    <glyph glyph-name="R" unicode="R" horiz-adv-x="674" 
d="M85 609c0 52 26.998 77.999 80.998 77.999h186c12.667 0 26 -0.666992 40 -2s26.667 -3 38 -5c28.667 -6 53.834 -15.667 75.501 -29s39.667 -29.666 54 -48.999s25 -40.666 32 -63.999s10.5 -48 10.5 -74c0 -18.667 -2.5 -37.5 -7.5 -56.5s-12.333 -37.167 -22 -54.5
s-21.834 -33.333 -36.501 -48s-32 -26.667 -52 -36c10.667 -14.667 23.5 -33.334 38.5 -56.001l46 -72c15.667 -25.333 30.334 -50.5 44.001 -75.5s25.167 -46.833 34.5 -65.5h-166c-4.66699 10 -12.167 24.833 -22.5 44.5s-22.166 41 -35.499 64s-27.5 46.167 -42.5 69.5
s-29.167 44 -42.5 62c-21.333 0 -39.833 0.166992 -55.5 0.5s-34.167 1.5 -55.5 3.5v-244h-142v609zM453.998 464.999c0 22.667 -4.66504 42.667 -13.998 60s-26.333 30 -51 38c-8 2.66699 -17.833 4.66699 -29.5 6s-23.167 2 -34.5 2h-98v-207
c3.33301 -1.33301 11 -2.83301 23 -4.5s30 -2.5 54 -2.5c29.333 0 53.666 3 72.999 9s34.666 14 45.999 24s19.333 21.5 24 34.5s7 26.5 7 40.5z" />
    <glyph glyph-name="S" unicode="S" horiz-adv-x="631" 
d="M500 514c-6 6.66699 -14.002 14.5 -24.002 23.5s-22.833 17.333 -38.5 25s-34.334 14.167 -56.001 19.5s-46.5 8 -74.5 8c-24 0 -43.833 -2.33301 -59.5 -7s-28 -11 -37 -19s-15.333 -17 -19 -27s-5.5 -20 -5.5 -30c0 -18.667 7.16699 -35.167 21.5 -49.5
s39.833 -25.5 76.5 -33.5l85 -19c32.667 -7.33301 62.334 -16.333 89.001 -27s49.5 -23.834 68.5 -39.501s33.667 -34.5 44 -56.5s15.5 -48 15.5 -78c0 -33.333 -5.33301 -63.5 -16 -90.5s-27.167 -50.167 -49.5 -69.5s-51 -34.333 -86 -45s-76.5 -16 -124.5 -16
c-45.333 0 -85 3.83301 -119 11.5s-62.667 16.5 -86 26.5s-41.666 19.5 -54.999 28.5s-21.666 14.833 -24.999 17.5l68 104c2.66699 -2.66699 9.5 -8 20.5 -16s25.667 -16.333 44 -25s40.5 -16.5 66.5 -23.5s55 -10.5 87 -10.5c26.667 0 48.5 2.5 65.5 7.5
s30.167 11.5 39.5 19.5s15.833 17.333 19.5 28s5.5 21.667 5.5 33c0 25.333 -10.167 45.5 -30.5 60.5s-48.833 26.167 -85.5 33.5l-94 19c-22.667 4.66699 -45.167 11.667 -67.5 21s-42.5 21.833 -60.5 37.5s-32.5 34.667 -43.5 57s-16.5 48.5 -16.5 78.5
s5.33301 57.833 16 83.5s26.834 48.167 48.501 67.5s49 34.5 82 45.5s71.5 16.5 115.5 16.5c33.333 0 62 -1.83301 86 -5.5s44.5 -8 61.5 -13s30.667 -10.167 41 -15.5s18.166 -9.66602 23.499 -12.999c12.667 -8 22.5 -17.667 29.5 -29s10.5 -22.333 10.5 -33
c0 -11.333 -2.33301 -21.5 -7 -30.5s-10 -17 -16 -24s-12.167 -12.667 -18.5 -17s-11.5 -7.5 -15.5 -9.5z" />
    <glyph glyph-name="T" unicode="T" horiz-adv-x="643" 
d="M560 687c25.333 0 43 -5.33301 53 -16s15 -26 15 -46c0 -15.333 -2.16699 -29 -6.5 -41s-7.83301 -20 -10.5 -24h-224v-560h-145v560h-159c-25.333 0 -43 5.33301 -53 16s-15 26 -15 46c0 15.333 2.16699 29 6.5 41s7.83301 20 10.5 24h528z" />
    <glyph glyph-name="U" unicode="U" horiz-adv-x="774" 
d="M75 623c0 23.333 6.83203 39.833 20.499 49.5s32.167 14.5 55.5 14.5c16.667 0 31.5 -2 44.5 -6s21.167 -6.66699 24.5 -8v-361c0 -32 2.5 -60.833 7.5 -86.5s13.833 -47.667 26.5 -66s29.667 -32.5 51 -42.5s48.666 -15 81.999 -15c32.667 0 59.834 5 81.501 15
s38.834 24.167 51.501 42.5s21.5 40.333 26.5 66s7.5 54.5 7.5 86.5v311c0 23.333 6.83301 39.833 20.5 49.5s32.167 14.5 55.5 14.5c16.667 0 31.5 -2 44.5 -6s21.167 -6.66699 24.5 -8v-376c0 -106.667 -26.5 -185.667 -79.5 -237s-130.5 -77 -232.5 -77
s-179.5 25.667 -232.5 77s-79.5 130.333 -79.5 237v326z" />
    <glyph glyph-name="V" unicode="V" horiz-adv-x="723" 
d="M40 514c-9.33301 22.667 -16.667 42.335 -22 59.002s-8 32.667 -8 48c0 8 1.16699 15.833 3.5 23.5s6.33301 14.667 12 21s13 11.5 22 15.5s20.5 6 34.5 6c20 0 35.667 -2.16699 47 -6.5s17.333 -6.83301 18 -7.5c8 -24 17.667 -51.333 29 -82l36 -95.5l39 -100.5
l38.5 -98.5l35.5 -89l30 -71.5c12 27.333 25.5 59.833 40.5 97.5l48 121l51 133l49.5 134.5c7.33301 20.667 17 36.667 29 48s31.333 17 58 17c11.333 0 21.833 -1.33301 31.5 -4s18.167 -5.83398 25.5 -9.50098s13.166 -7 17.499 -10s6.83301 -4.83301 7.5 -5.5
c-3.33301 -10 -10.666 -29 -21.999 -57l-40.5 -99.5l-52 -125.5l-58 -136l-57.5 -130.5l-50 -109.5h-162c-24 47.333 -47.5 96.166 -70.5 146.499l-65.5 145l-55.5 127.5z" />
    <glyph glyph-name="W" unicode="W" horiz-adv-x="1015" 
d="M420 615c6.66699 26.667 16.501 45.334 29.501 56.001s32.167 16 57.5 16c21.333 0 37.333 -2.16699 48 -6.5s18 -7.83301 22 -10.5l15.5 -69l21 -89.5l23.5 -100l24 -100l22.5 -90.5c7 -28 13.167 -51.333 18.5 -70c8 23.333 16.667 50.166 26 80.499l28 94l27.5 97
l24.5 89l19 70c5.33301 19.667 9.33301 33.167 12 40.5c6.66699 20.667 16.167 36.667 28.5 48s31.833 17 58.5 17c11.333 0 21.666 -1.33301 30.999 -4s17.5 -5.66699 24.5 -9s12.5 -6.5 16.5 -9.5s6.33301 -4.83301 7 -5.5c-26 -96.667 -58.333 -201 -97 -313
s-81.667 -227.333 -129 -346h-163c-5.33301 14 -13 38.667 -23 74l-32 118.5l-33.5 132c-11 44.333 -19.833 82.5 -26.5 114.5l-27 -112.5c-10 -41 -20.5 -81.5 -31.5 -121.5l-32.5 -114c-10.667 -36 -20.334 -66.333 -29.001 -91h-162l-33.5 85l-37 100.5l-37 105l-34 97.5
l-26.5 78.5l-16 48.5c-7.33301 22.667 -13.333 42.667 -18 60s-7 33.666 -7 48.999c0 8 1.16699 15.667 3.5 23s6.33301 14 12 20s13 10.833 22 14.5s20.5 5.5 34.5 5.5c20 0 35.667 -2 47 -6s17.333 -6.33301 18 -7l20 -74l26 -92l29.5 -101l30 -99.5l27.5 -88.5
c8.66699 -27.333 16.334 -49.666 23.001 -66.999c10.667 34.667 21.5 73 32.5 115l32 126.5l29 121.5z" />
    <glyph glyph-name="X" unicode="X" horiz-adv-x="697" 
d="M513 0l-26.498 35.4971l-41 54.5l-51 67.5l-56.5 74.5l-52 -72l-46 -65.5l-38 -55l-28 -39.5h-164l34.5 48l58.5 80.5l73.5 101l79.5 109.5l-59 75l-53 66l-42 51c-12 14 -20.333 24 -25 30c-9.33301 11.333 -16.666 21.833 -21.999 31.5s-8 19.834 -8 30.501
c0 15.333 5.33301 29.833 16 43.5s27.667 20.5 51 20.5c17.333 0 30.666 -1.66699 39.999 -5s15.333 -5.66602 18 -6.99902l24.5 -31l38 -50l48.5 -64.5l56 -73.5l43.5 60.5l36.5 51.5l27 38.5c7.33301 10.333 12.666 17.5 15.999 21.5c8 10 15.667 18.667 23 26
s15 13.5 23 18.5s16.833 8.66699 26.5 11s20.834 3.5 33.501 3.5c21.333 0 39.666 -4.16699 54.999 -12.5s25.666 -15.166 30.999 -20.499l-38.5 -48.5l-56 -72l-67 -88l-71.5 -97.5l85.5 -112.5l79 -102.5l63 -82l38.5 -51h-174z" />
    <glyph glyph-name="Y" unicode="Y" horiz-adv-x="688" 
d="M56 526c-12 16 -22.6689 31.8311 -32.002 47.498s-14 31.167 -14 46.5c0 8 1 15.833 3 23.5s5.66699 14.834 11 21.501s12.333 12 21 16s20 6 34 6c20 0 35.333 -2.5 46 -7.5s17.334 -8.5 20.001 -10.5c2 -3.33301 10 -15.666 24 -36.999l50 -76.5l62 -92.5l59 -84
l75 111.5l73 114.5l22.5 33.5c7 10.333 14.5 19 22.5 26s17 12.5 27 16.5s21.667 6 35 6c11.333 0 21.833 -1.5 31.5 -4.5s18.167 -6.33301 25.5 -10s13.333 -7.16699 18 -10.5s7.33398 -5.33301 8.00098 -6l-22 -36.5l-38.5 -62.5l-49.5 -78l-54.5 -83l-53.5 -78.5
c-17.333 -25 -33 -46.167 -47 -63.5v-254h-152v254l-56.5 72.5l-57 75.5l-51.5 69.5z" />
    <glyph glyph-name="Z" unicode="Z" horiz-adv-x="664" 
d="M539 687c30 0 52.498 -6.5 67.498 -19.5s22.5 -33.833 22.5 -62.5c0 -10 -2.16699 -20 -6.5 -30s-9.66602 -19.667 -15.999 -29s-13.166 -18.5 -20.499 -27.5s-14 -16.833 -20 -23.5l-75 -80.5l-94.5 -98.5l-98.5 -101l-86 -88h413v-127h-595v127l44.5 45l64.5 65l77 78
l82 85l80 84l71 76h-331c-25.333 0 -43 5.33301 -53 16s-15 26 -15 46c0 15.333 2.16699 29 6.5 41s7.83301 20 10.5 24h472z" />
    <glyph glyph-name="bracketleft" unicode="[" horiz-adv-x="383" 
d="M225 610l-0.00195312 -615h127v-127h-267v791c0 52 27 78 81 78h179c2.66699 -4 6.33398 -12 11.001 -24s7 -25.667 7 -41c0 -20 -5.16699 -35.333 -15.5 -46s-28.166 -16 -53.499 -16h-69z" />
    <glyph glyph-name="backslash" unicode="\" horiz-adv-x="377" 
d="M7 715c2.66699 2 10.6699 6.16699 24.0029 12.5s30.666 9.5 51.999 9.5s36.666 -4.83301 45.999 -14.5s15.666 -20.167 18.999 -31.5l222 -708h-134z" />
    <glyph glyph-name="bracketright" unicode="]" horiz-adv-x="383" 
d="M89 610c-25.333 0 -43.168 5.33301 -53.501 16s-15.5 26 -15.5 46c0 15.333 2.33301 29 7 41s8.33398 20 11.001 24h179c54 0 81 -26 81 -78v-791h-267v127h127v615h-69z" />
    <glyph glyph-name="asciicircum" unicode="^" horiz-adv-x="538" 
d="M501 331l-132 0.00195312l-102 209l-103 -209h-127l153 302c12 23.333 24.833 38.166 38.5 44.499s28.167 9.5 43.5 9.5c13.333 0 24.5 -1.33301 33.5 -4s16.167 -5.33398 21.5 -8.00098z" />
    <glyph glyph-name="underscore" unicode="_" horiz-adv-x="500" 
d="M0 -125v55h500v-55h-500z" />
    <glyph glyph-name="grave" unicode="`" horiz-adv-x="500" 
d="M136 667c0 1.33301 1 5.83301 3 13.5s5.66699 15.667 11 24s12.5 15.833 21.5 22.5s20.833 10 35.5 10c10 0 18.667 -2 26 -6s16.333 -10 27 -18l104 -82l-41 -61z" />
    <glyph glyph-name="a" unicode="a" horiz-adv-x="604" 
d="M530 4c-2 -0.666992 -9.3291 -2.00098 -21.9961 -4.00098s-29.5 -4 -50.5 -6s-45.833 -3.83301 -74.5 -5.5s-60 -2.5 -94 -2.5c-49.333 0 -89.833 4.16699 -121.5 12.5s-56.834 19.833 -75.501 34.5s-31.5 31.834 -38.5 51.501s-10.5 41.167 -10.5 64.5
c0 28.667 4.33301 53.667 13 75s22.667 38.833 42 52.5s44.166 23.834 74.499 30.501s67.166 10 110.499 10c30 0 55 -0.833008 75 -2.5s31.667 -2.83398 35 -3.50098v16c0 31.333 -10.667 55.333 -32 72s-54.333 25 -99 25c-20 0 -37.667 -1.83301 -53 -5.5
s-28.5 -8 -39.5 -13s-20.333 -10 -28 -15s-13.834 -8.83301 -18.501 -11.5c-9.33301 5.33301 -17.666 13.833 -24.999 25.5s-11 24.834 -11 39.501s4.66699 27.167 14 37.5s21.833 18.666 37.5 24.999s33.667 10.833 54 13.5s41.166 4 62.499 4
c40.667 0 77.834 -3.5 111.501 -10.5s62.667 -19 87 -36s43.166 -39.667 56.499 -68s20 -63.833 20 -106.5v-299zM392.004 223.999c-2 0.666992 -6.00098 1.33398 -12.001 2.00098s-13.333 1.33398 -22 2.00098s-18.167 1.16699 -28.5 1.5s-20.833 0.5 -31.5 0.5
c-24.667 0 -44.667 -2 -60 -6s-27.166 -9.5 -35.499 -16.5s-14 -15.333 -17 -25s-4.5 -19.834 -4.5 -30.501c0 -9.33301 1.33301 -18.333 4 -27s8.16699 -16.5 16.5 -23.5s20 -12.667 35 -17s34.5 -6.5 58.5 -6.5c25.333 0 46.333 1.16699 63 3.5s28 4.16602 34 5.49902v137
z" />
    <glyph glyph-name="b" unicode="b" horiz-adv-x="649" 
d="M455 256c0 46.667 -10.8311 84.166 -32.498 112.499s-51.834 42.5 -90.501 42.5s-67.667 -12.667 -87 -38s-29 -57 -29 -95v-175c4 -2 12.667 -4 26 -6s30.666 -3 51.999 -3c28 0 52.167 4 72.5 12s37 19.333 50 34s22.667 31.834 29 51.501s9.5 41.167 9.5 64.5z
M76.002 676.999c0 22.667 6.66602 38.3271 19.999 46.9941s31 13 53 13c15.333 0 29.5 -1.66699 42.5 -5s21.167 -5.66602 24.5 -6.99902v-264c1.33301 2 5.33301 6.33301 12 13s16.167 13.834 28.5 21.501s27.333 14.334 45 20.001s38.167 8.5 61.5 8.5
c32 0 62.167 -5.5 90.5 -16.5s53.333 -27.167 75 -48.5s38.834 -47.666 51.501 -78.999s19 -67.666 19 -108.999c0 -89.333 -27.5 -159.166 -82.5 -209.499s-136.833 -75.5 -245.5 -75.5c-24 0 -47 0.666992 -69 2s-41.667 2.66602 -59 3.99902s-31.833 2.83301 -43.5 4.5
s-19.5 2.83398 -23.5 3.50098v677z" />
    <glyph glyph-name="c" unicode="c" horiz-adv-x="555" 
d="M338 411c-42.667 0 -77.6689 -13.499 -105.002 -40.499s-41 -65.5 -41 -115.5c0 -26 3.83301 -48.833 11.5 -68.5s18 -36 31 -49s28 -22.833 45 -29.5s35.167 -10 54.5 -10c18.667 0 35.5 2 50.5 6s28 8.5 39 13.5s19.5 9.66699 25.5 14s9.66699 7.16602 11 8.49902
l60 -93c-6.66699 -5.33301 -15.667 -11.5 -27 -18.5s-25.333 -13.667 -42 -20s-35.834 -11.666 -57.501 -15.999s-46.5 -6.5 -74.5 -6.5c-36.667 0 -71.334 5.83301 -104.001 17.5s-61.167 29 -85.5 52s-43.666 51.167 -57.999 84.5s-21.5 71.666 -21.5 114.999
c0 42 7.16699 79.5 21.5 112.5s33.833 61.167 58.5 84.5s53.5 41.166 86.5 53.499s68.5 18.5 106.5 18.5c46.667 0 82.5 -4.5 107.5 -13.5s42.5 -17.167 52.5 -24.5c9.33301 -6.66699 17 -14.667 23 -24s9 -20.666 9 -33.999c0 -10.667 -3.66699 -23.167 -11 -37.5
s-17.666 -26.833 -30.999 -37.5c-3.33301 3.33301 -8.66602 8.33301 -15.999 15s-16.5 13.167 -27.5 19.5s-24.167 11.833 -39.5 16.5s-32.666 7 -51.999 7z" />
    <glyph glyph-name="d" unicode="d" horiz-adv-x="649" 
d="M194 256c0 -23.333 3.16895 -44.832 9.50195 -64.499s16 -36.834 29 -51.501s29.667 -26 50 -34s44.5 -12 72.5 -12c21.333 0 38.666 1 51.999 3s22 4 26 6v175c0 38 -9.66699 69.667 -29 95s-48.333 38 -87 38s-68.834 -14.167 -90.501 -42.5
s-32.5 -65.833 -32.5 -112.5zM573.002 0.000976562c-4 -0.666992 -11.834 -1.83105 -23.501 -3.49805s-26.167 -3.16699 -43.5 -4.5s-37 -2.66602 -59 -3.99902s-45 -2 -69 -2c-109.333 0 -191.333 25.167 -246 75.5s-82 120.166 -82 209.499
c0 41.333 6.33301 77.666 19 108.999s29.834 57.666 51.501 78.999s46.667 37.5 75 48.5s58.5 16.5 90.5 16.5c22.667 0 43 -2.83301 61 -8.5s33.167 -12.334 45.5 -20.001s21.833 -14.834 28.5 -21.501s10.667 -11 12 -13v216c0 22.667 6.66699 38.334 20 47.001
s31 13 53 13c15.333 0 29.5 -1.66699 42.5 -5s21.167 -5.66602 24.5 -6.99902v-725z" />
    <glyph glyph-name="e" unicode="e" horiz-adv-x="599" 
d="M554 330c0 -20.667 -2.83398 -39.3301 -8.50098 -55.9971s-14.667 -30.834 -27 -42.501s-28.666 -20.667 -48.999 -27s-45.5 -9.5 -75.5 -9.5h-200c6 -27.333 22 -50.5 48 -69.5s60.333 -28.5 103 -28.5s75.5 3.16699 98.5 9.5s37.167 10.833 42.5 13.5l38 -99
c-1.33301 -1.33301 -7 -4 -17 -8s-23.5 -8.16699 -40.5 -12.5s-37.167 -8.33301 -60.5 -12s-49.333 -5.5 -78 -5.5c-40 0 -76.833 5.33301 -110.5 16s-63 27 -88 49s-44.5 49.667 -58.5 83s-21 72.666 -21 117.999c0 42 6.5 80 19.5 114s31.333 63.167 55 87.5
s52.167 43.166 85.5 56.499s70.333 20 111 20c38 0 71.5 -5.16699 100.5 -15.5s53.333 -24.5 73 -42.5s34.5 -39 44.5 -63s15 -49.333 15 -76zM421.999 342.004c0 9.33301 -1.83398 19.3311 -5.50098 29.998s-9.5 20.334 -17.5 29.001s-18.667 15.834 -32 21.501
s-29.666 8.5 -48.999 8.5c-21.333 0 -40 -4.66699 -56 -14s-29.333 -21 -40 -35s-18.667 -29.333 -24 -46s-8 -32.667 -8 -48h179c22 0 36.333 4.5 43 13.5s10 22.5 10 40.5z" />
    <glyph glyph-name="f" unicode="f" horiz-adv-x="399" 
d="M71 396c-22.667 0 -38.502 4.99805 -47.502 14.998s-13.5 24 -13.5 42c0 14 2 26.167 6 36.5l8 20.5h80v30c0 64.667 18.167 113.667 54.5 147s84.833 50 145.5 50c18.667 0 36.834 -1.16699 54.501 -3.5s33.334 -6.33301 47.001 -12s24.667 -13 33 -22
s12.5 -19.833 12.5 -32.5c0 -14.667 -3.33301 -27.5 -10 -38.5s-14.334 -19.833 -23.001 -26.5c-1.33301 0.666992 -4 2.83398 -8 6.50098s-9.5 7.33398 -16.5 11.001s-15.5 7 -25.5 10s-21.333 4.5 -34 4.5c-17.333 0 -31.666 -2.33301 -42.999 -7s-20.5 -11 -27.5 -19
s-12 -17.333 -15 -28s-4.5 -22 -4.5 -34v-36h97c22.667 0 38.5 -5 47.5 -15s13.5 -24 13.5 -42c0 -14 -2 -26.167 -6 -36.5l-8 -20.5h-144v-396h-140v396h-33z" />
    <glyph glyph-name="g" unicode="g" horiz-adv-x="651" 
d="M570 273c0 -38 -7.49707 -70.6641 -22.4971 -97.9971s-36.167 -52 -63.5 -74c18.667 -10 33.667 -21.167 45 -33.5s20 -24.5 26 -36.5s10 -23.5 12 -34.5s3 -20.5 3 -28.5c0 -27.333 -6.16699 -51.833 -18.5 -73.5s-29.833 -40.334 -52.5 -56.001
s-49.5 -27.667 -80.5 -36s-64.833 -12.5 -101.5 -12.5c-41.333 0 -77.166 2.83301 -107.499 8.5s-55.666 12.167 -75.999 19.5s-35.833 14.166 -46.5 20.499s-17.334 10.5 -20.001 12.5l53 100c2.66699 -2 8.5 -5.83301 17.5 -11.5s21 -11.5 36 -17.5s33 -11.333 54 -16
s44.5 -7 70.5 -7c38 0 67.667 6.66699 89 20s32 33 32 59c0 12 -3.83301 24 -11.5 36s-19.834 21.667 -36.501 29c-2.66699 -0.666992 -6.83398 -1.33398 -12.501 -2.00098s-11.667 -1.33398 -18 -2.00098s-12.5 -1.16699 -18.5 -1.5s-10.667 -0.5 -14 -0.5
c-38 0 -73 6 -105 18s-59.333 28.833 -82 50.5s-40.334 47.5 -53.001 77.5s-19 63 -19 99s6.5 69 19.5 99s31.167 55.833 54.5 77.5s50.666 38.5 81.999 50.5s65.666 18 102.999 18c34.667 0 67.334 -5.66699 98.001 -17h160c24 0 40.167 -4.66699 48.5 -14
s12.5 -22 12.5 -38c0 -12.667 -2 -25.167 -6 -37.5s-7 -20.166 -9 -23.499l-94 9c10 -9.33301 18.333 -19.833 25 -31.5s12 -23.667 16 -36s6.83301 -24.333 8.5 -36s2.5 -21.5 2.5 -29.5zM430.003 282.003c0 42 -11 75.499 -33 100.499s-51.667 37.5 -89 37.5
s-67 -12.667 -89 -38s-33 -58.666 -33 -99.999s11 -74.666 33 -99.999s51.667 -38 89 -38s67 12.667 89 38s33 58.666 33 99.999z" />
    <glyph glyph-name="h" unicode="h" horiz-adv-x="649" 
d="M216 461c0.666992 1.33301 4.00098 5.5 10.001 12.5s15.167 14.5 27.5 22.5s28.166 15.167 47.499 21.5s43 9.5 71 9.5c29.333 0 56.5 -4.33301 81.5 -13s46.5 -21.667 64.5 -39s32 -39.333 42 -66s15 -58.334 15 -95.001v-314h-140v295c0 77.333 -35.667 116 -107 116
c-36.667 0 -64.5 -13.333 -83.5 -40s-28.5 -60.334 -28.5 -101.001v-270h-140v677c0 22.667 6.66699 38.334 20 47.001s31 13 53 13c15.333 0 29.5 -1.66699 42.5 -5s21.167 -5.66602 24.5 -6.99902v-264z" />
    <glyph glyph-name="i" unicode="i" horiz-adv-x="302" 
d="M229 661c0 -21.333 -7.66699 -39.5 -23 -54.5s-34 -22.5 -56 -22.5c-21.333 0 -39.666 7.5 -54.999 22.5s-23 33.167 -23 54.5s7.66699 39.333 23 54s33.666 22 54.999 22c22 0 40.667 -7.33301 56 -22s23 -32.667 23 -54zM81 450c0 22.667 6.66699 38.332 20 46.999
s31 13 53 13c15.333 0 29.5 -1.66699 42.5 -5s21.167 -5.66602 24.5 -6.99902v-498h-140v450z" />
    <glyph glyph-name="j" unicode="j" horiz-adv-x="302" 
d="M229 661c0 -21.333 -7.66699 -39.5 -23 -54.5s-34 -22.5 -56 -22.5c-21.333 0 -39.666 7.5 -54.999 22.5s-23 33.167 -23 54.5s7.66699 39.333 23 54s33.666 22 54.999 22c22 0 40.667 -7.33301 56 -22s23 -32.667 23 -54zM221 -8
c0 -39.333 -5.33398 -71.834 -16.001 -97.501s-25 -46.334 -43 -62.001s-38.833 -26.667 -62.5 -33s-48.5 -9.5 -74.5 -9.5c-16 0 -31.333 1.16699 -46 3.5s-27.667 5 -39 8s-20.666 6 -27.999 9s-11.666 4.83301 -12.999 5.5l33 93c3.33301 -1.33301 11.666 -4 24.999 -8
s28 -6 44 -6c24.667 0 44.167 5.83301 58.5 17.5s21.5 32.5 21.5 62.5v475c0 22.667 6.66699 38.334 20 47.001s31 13 53 13c15.333 0 29.5 -1.66699 42.5 -5s21.167 -5.66602 24.5 -6.99902v-506z" />
    <glyph glyph-name="k" unicode="k" horiz-adv-x="604" 
d="M76 677c0 22.667 6.66602 38.332 19.999 46.999s31 13 53 13c15.333 0 29.5 -1.66699 42.5 -5s21.167 -5.66602 24.5 -6.99902v-406l40 33.5l46 39.5l44.5 38.5l36.5 30.5c10 8.66699 19.167 16 27.5 22s16.333 10.833 24 14.5s15.667 6.33398 24 8.00098
s17.833 2.5 28.5 2.5c14 0 26.167 -2.16699 36.5 -6.5s19 -9.33301 26 -15s12.5 -11 16.5 -16s6.66699 -8.5 8 -10.5c-8.66699 -8.66699 -23 -21.667 -43 -39l-64 -54l-65 -53c-20.667 -16.667 -36 -28.667 -46 -36c22.667 -18.667 45.667 -39.667 69 -63
s45.833 -47.333 67.5 -72s42 -49.334 61 -74.001s35.833 -47.667 50.5 -69h-174c-15.333 20.667 -32.333 41.667 -51 63l-56.5 62c-19 20 -37.667 38.5 -56 55.5s-35.166 31.833 -50.499 44.5v-225h-140v677z" />
    <glyph glyph-name="l" unicode="l" horiz-adv-x="302" 
d="M81 677c0 22.667 6.66699 38.332 20 46.999s31 13 53 13c15.333 0 29.5 -1.66699 42.5 -5s21.167 -5.66602 24.5 -6.99902v-725h-140v677z" />
    <glyph glyph-name="m" unicode="m" horiz-adv-x="974" 
d="M312 527c40.667 0 78.333 -6.33301 113 -19s62.667 -32.667 84 -60c16.667 21.333 39.5 39.833 68.5 55.5s65.5 23.5 109.5 23.5c29.333 0 57 -4.16699 83 -12.5s48.667 -20.666 68 -36.999s34.5 -36.5 45.5 -60.5s16.5 -51.667 16.5 -83v-334h-140v295
c0 39.333 -8.33301 68.5 -25 87.5s-41 28.5 -73 28.5c-32.667 0 -58.334 -11 -77.001 -33s-28 -54.667 -28 -98v-280h-140v287c0 42 -8.66699 73.167 -26 93.5s-45 30.5 -83 30.5c-28 0 -48.667 -2.33301 -62 -7s-23.333 -8.66699 -30 -12v-392h-140v479
c2.66699 1.33301 10.334 4.66602 23.001 9.99902s29.167 10.833 49.5 16.5s44.333 10.667 72 15s58.167 6.5 91.5 6.5z" />
    <glyph glyph-name="n" unicode="n" horiz-adv-x="643" 
d="M429 0l0.000976562 287.001c0 82.667 -38.333 124 -115 124c-28 0 -49.667 -2.33301 -65 -7s-26.333 -8.66699 -33 -12v-392h-140v479c2.66699 1.33301 10.667 4.66602 24 9.99902s30.5 10.833 51.5 16.5s45.667 10.667 74 15s59.166 6.5 92.499 6.5
c37.333 0 71.5 -4.66699 102.5 -14s57.5 -23 79.5 -41s39 -40.167 51 -66.5s18 -56.5 18 -90.5v-315h-140z" />
    <glyph glyph-name="o" unicode="o" horiz-adv-x="654" 
d="M604 255c0 -38 -6.5 -73.5 -19.5 -106.5s-31.667 -61.667 -56 -86s-53.5 -43.666 -87.5 -57.999s-72 -21.5 -114 -21.5s-80 7.16699 -114 21.5s-63.167 33.666 -87.5 57.999s-43 53 -56 86s-19.5 68.5 -19.5 106.5s6.5 73.5 19.5 106.5s31.667 61.667 56 86
s53.5 43.666 87.5 57.999s72 21.5 114 21.5s80 -7.16699 114 -21.5s63.167 -33.666 87.5 -57.999s43 -53 56 -86s19.5 -68.5 19.5 -106.5zM462 255c0 22.667 -2.83301 43.834 -8.5 63.501s-14.334 36.667 -26.001 51s-25.834 25.666 -42.501 33.999s-36 12.5 -58 12.5
s-41.333 -4.16699 -58 -12.5s-30.834 -19.666 -42.501 -33.999s-20.334 -31.333 -26.001 -51s-8.5 -40.834 -8.5 -63.501s2.83301 -43.834 8.5 -63.501s14.334 -36.667 26.001 -51s25.834 -25.666 42.501 -33.999s36 -12.5 58 -12.5s41.333 4.16699 58 12.5
s30.834 19.666 42.501 33.999s20.334 31.333 26.001 51s8.5 40.834 8.5 63.501z" />
    <glyph glyph-name="p" unicode="p" horiz-adv-x="649" 
d="M76 476c3.33301 2 10.6689 5.83301 22.002 11.5s26.666 11.334 45.999 17.001s43 10.834 71 15.501s60 7 96 7c44.667 0 84.667 -6.83301 120 -20.5s65.5 -32.834 90.5 -57.501s44.167 -54.334 57.5 -89.001s20 -73 20 -115c0 -41.333 -6.33301 -77.5 -19 -108.5
s-29.834 -57 -51.501 -78s-46.667 -36.833 -75 -47.5s-58.5 -16 -90.5 -16c-23.333 0 -43.833 2.16699 -61.5 6.5s-32.667 9.33301 -45 15s-21.833 11.167 -28.5 16.5s-10.667 9 -12 11v-244h-140v676zM455.003 259c0 20.667 -3 40.3271 -9 58.9941s-15 35.334 -27 50.001
s-26.833 26.334 -44.5 35.001s-38.167 13 -61.5 13c-32 0 -55.167 -2.33301 -69.5 -7s-23.5 -8 -27.5 -10v-228c2.66699 -5.33301 6.66699 -11.666 12 -18.999s12.5 -14.166 21.5 -20.499s20.167 -11.666 33.5 -15.999s29.666 -6.5 48.999 -6.5
c38.667 0 68.834 13.333 90.501 40s32.5 63.334 32.5 110.001z" />
    <glyph glyph-name="q" unicode="q" horiz-adv-x="649" 
d="M433 399c-4 2 -13.168 5.33301 -27.501 10s-37.5 7 -69.5 7c-47.333 0 -82.833 -14.833 -106.5 -44.5s-35.5 -69.5 -35.5 -119.5c0 -46.667 10.833 -83 32.5 -109s51.834 -39 90.501 -39s67.667 12.667 87 38s29 57 29 95v162zM432.999 54
c-1.33301 -2 -5.49707 -6.49902 -12.4971 -13.499s-16.667 -14.167 -29 -21.5s-27.333 -13.833 -45 -19.5s-37.834 -8.5 -60.501 -8.5c-32 0 -62.333 5.33301 -91 16s-53.667 26.667 -75 48s-38.333 47.833 -51 79.5s-19 68.167 -19 109.5c0 42 6.66699 80.5 20 115.5
s32.5 64.833 57.5 89.5s55.167 43.834 90.5 57.501s75.333 20.5 120 20.5c36 0 68 -2.33301 96 -7s51.667 -9.83398 71 -15.501s34.666 -11.334 45.999 -17.001s18.666 -9.5 21.999 -11.5v-676h-140v254z" />
    <glyph glyph-name="r" unicode="r" horiz-adv-x="442" 
d="M313 411c-28 0 -49.6699 -2.8291 -65.0029 -8.49609s-26 -10.167 -32 -13.5v-389h-140v466c2.66699 2 10 6.33301 22 13s27.833 13.5 47.5 20.5s42.5 13.333 68.5 19s54.333 8.5 85 8.5c18.667 0 36.334 -1.33301 53.001 -4s31.334 -6.66699 44.001 -12
s22.667 -12.333 30 -21s11 -19.334 11 -32.001c0 -18.667 -3.66699 -33.334 -11 -44.001s-13.666 -18.667 -18.999 -24c-2 2 -6.33301 4.16699 -13 6.5s-14.334 4.66602 -23.001 6.99902s-18.167 4.16602 -28.5 5.49902s-20.166 2 -29.499 2z" />
    <glyph glyph-name="s" unicode="s" horiz-adv-x="589" 
d="M292 422c-39.333 0 -66.1709 -4.82812 -80.5039 -14.4951s-21.5 -21.834 -21.5 -36.501c0 -13.333 6 -23.833 18 -31.5s32 -13.167 60 -16.5l86 -11c62.667 -8 108.334 -24.333 137.001 -49s43 -58.334 43 -101.001c0 -52.667 -20.5 -95.167 -61.5 -127.5
s-101.833 -48.5 -182.5 -48.5c-38 0 -71.833 3 -101.5 9s-55 12.833 -76 20.5s-37.667 15 -50 22s-19.833 11.833 -22.5 14.5l54 95c2 -2 8.16699 -5.83301 18.5 -11.5s24 -11.834 41 -18.501s37 -12.5 60 -17.5s48.167 -7.5 75.5 -7.5c35.333 0 60.5 4.16699 75.5 12.5
s22.5 20.5 22.5 36.5c0 15.333 -6.16699 26.833 -18.5 34.5s-34.166 13.5 -65.499 17.5l-66 8c-28.667 3.33301 -54.5 8.66602 -77.5 15.999s-42.5 17.166 -58.5 29.499s-28.333 27.5 -37 45.5s-13 39.667 -13 65c0 22.667 4.16699 44.167 12.5 64.5s21.5 38 39.5 53
s41.667 27 71 36s65 13.5 107 13.5c46.667 0 84.334 -3.33301 113.001 -10s48.667 -12.667 60 -18c36 -15.333 54 -36.333 54 -63c0 -17.333 -4.66699 -31.333 -14 -42s-19 -19 -29 -25c-1.33301 1.33301 -5.66602 5 -12.999 11s-18 12.333 -32 19s-31.667 12.667 -53 18
s-46.333 8 -75 8z" />
    <glyph glyph-name="t" unicode="t" horiz-adv-x="446" 
d="M244 396v-221.003c0 -29.333 6.83301 -49.166 20.5 -59.499s31.5 -15.5 53.5 -15.5c9.33301 0 18.5 1.16699 27.5 3.5s17 5 24 8s12.833 6 17.5 9s7.33398 4.83301 8.00098 5.5l52 -84c-1.33301 -1.33301 -5.66602 -5 -12.999 -11s-17.833 -12.333 -31.5 -19
s-30.334 -12.667 -50.001 -18s-41.834 -8 -66.501 -8c-64 0 -110.333 16.333 -139 49s-43 75 -43 127v234h-33c-22.667 0 -38.5 5 -47.5 15s-13.5 24 -13.5 42c0 14 2 26.167 6 36.5l8 20.5h80v88c0 22.667 6.66699 38.334 20 47.001s31 13 53 13
c15.333 0 29.5 -1.66699 42.5 -5s21.167 -5.66602 24.5 -6.99902v-136h107c22.667 0 38.5 -5 47.5 -15s13.5 -24 13.5 -42c0 -14 -2 -26.167 -6 -36.5l-8 -20.5h-154z" />
    <glyph glyph-name="u" unicode="u" horiz-adv-x="634" 
d="M418 450c0 22.667 6.66797 38.3301 20.001 46.9971s31 13 53 13c15.333 0 29.5 -1.66699 42.5 -5s21.167 -5.66602 24.5 -6.99902v-498c-2 -0.666992 -8.66699 -1.83398 -20 -3.50098s-25.833 -3.16699 -43.5 -4.5s-37.334 -2.66602 -59.001 -3.99902
s-44.167 -2 -67.5 -2c-102 0 -176.5 19.167 -223.5 57.5s-70.5 94.833 -70.5 169.5v237c0 22.667 6.66699 38.334 20 47.001s31 13 53 13c15.333 0 29.5 -1.66699 42.5 -5s21.167 -5.66602 24.5 -6.99902v-271c0 -40.667 11 -71.667 33 -93s58 -32 108 -32
c18.667 0 32.667 0.5 42 1.5s16.333 2.16699 21 3.5v343z" />
    <glyph glyph-name="v" unicode="v" horiz-adv-x="572" 
d="M567 481c-3.33301 -12.667 -9.66992 -31.498 -19.0029 -56.498s-20.666 -53.167 -33.999 -84.5l-43 -99l-46 -100l-43 -88c-13.333 -26.667 -24.666 -47.667 -33.999 -63h-140c-20 36.667 -40.5 76.5 -61.5 119.5l-58 122.5l-45 100.5
c-12.333 28.333 -19.833 46.166 -22.5 53.499c-4.66699 10.667 -8.5 20.667 -11.5 30s-4.5 19.666 -4.5 30.999c0 8 1.16699 15.667 3.5 23s6.16602 14 11.499 20s12.5 10.833 21.5 14.5s20.5 5.5 34.5 5.5c20 0 34.833 -2 44.5 -6s14.834 -6.33301 15.501 -7
c8 -23.333 18.333 -52 31 -86l40 -104l41 -102c13.333 -32.667 24.666 -59 33.999 -79c3.33301 6.66699 9.83301 21.167 19.5 43.5l32.5 78.5l37.5 95.5l35.5 94.5c8.66699 24 18.834 42 30.501 54s30.167 18 55.5 18c21.333 0 38.333 -4 51 -12s20.334 -13.667 23.001 -17z
" />
    <glyph glyph-name="w" unicode="w" horiz-adv-x="835" 
d="M26 377c-4 10.667 -7.66602 22.334 -10.999 35.001s-5 24.667 -5 36c0 15.333 5 29.5 15 42.5s28.667 19.5 56 19.5c20 0 35.167 -2 45.5 -6s15.833 -6.33301 16.5 -7l34 -119.5l31 -104.5l24.5 -81c7 -22.667 12.167 -38.667 15.5 -48
c6.66699 19.333 17.167 55.166 31.5 107.499l53.5 194.5c6 23.333 15.167 39.833 27.5 49.5s30.166 14.5 53.499 14.5c19.333 0 34 -2 44 -6s16.667 -7 20 -9l33.5 -118.5l28 -103l22 -80c6.33301 -22.333 11.166 -38.166 14.499 -47.499c2.66699 6 6.33398 17 11.001 33
l16.5 54.5l19.5 64.5l19 64.5l16 54c4.66699 15.667 8 26.5 10 32.5c6.66699 19.333 15.667 34.333 27 45s29.666 16 54.999 16c10.667 0 20.5 -1.16699 29.5 -3.5s16.667 -5 23 -8s11.5 -6 15.5 -9s6.33301 -4.83301 7 -5.5c-4.66699 -20 -13.5 -49.5 -26.5 -88.5
s-28.167 -81.833 -45.5 -128.5s-35.666 -93.667 -54.999 -141s-37.333 -89.333 -54 -126h-140l-12 37l-17.5 56l-20 64.5l-19.5 64l-16 53.5c-4.66699 15.333 -8 26.666 -10 33.999c-2 -6.66699 -5.16699 -18.167 -9.5 -34.5s-9.5 -34.833 -15.5 -55.5l-19.5 -65.5l-20 -65
l-17 -54.5c-5 -16 -8.83301 -27.333 -11.5 -34h-140l-49 116.5l-46 115.5l-36 93.5c-10 26.333 -16.333 43.5 -19 51.5z" />
    <glyph glyph-name="x" unicode="x" horiz-adv-x="595" 
d="M556 470c-0.666992 -1.33301 -6.49902 -8.16602 -17.499 -20.499l-42.5 -48.5l-59.5 -68.5l-67.5 -80.5l67.5 -78l64 -75.5l51 -62l29.5 -36.5h-170c-2.66699 4 -8.33398 11.167 -17.001 21.5l-30.5 37l-38 45.5l-39.5 47l-67 -84.5l-50 -66.5h-161
c8 10.667 19.167 24.667 33.5 42l48 58l56.5 68.5l60 72.5l-45 48.5l-40 42l-30.5 31c-8.33301 8.33301 -13.833 14.166 -16.5 17.499c-8 9.33301 -16 20 -24 32s-12 24.667 -12 38c0 16.667 5.5 30.834 16.5 42.501s26.833 17.5 47.5 17.5c19.333 0 33.333 -1.5 42 -4.5
s15 -5.5 19 -7.5l45.5 -56.5l81.5 -96.5c23.333 28.667 43.333 54.167 60 76.5s27.667 36.166 33 41.499c10.667 12 22 22.833 34 32.5s29.667 14.5 53 14.5c24.667 0 44.167 -5.16699 58.5 -15.5s23.5 -18.5 27.5 -24.5z" />
    <glyph glyph-name="y" unicode="y" horiz-adv-x="559" 
d="M399 450c7.33301 17.333 16.3311 31.665 26.998 42.998s28.667 17 54 17c21.333 0 38.333 -4 51 -12s20.334 -13.667 23.001 -17c-4.66699 -16 -11.334 -35.167 -20.001 -57.5s-18.334 -46 -29.001 -71l-32.5 -75.5l-30.5 -70c-19.333 -44 -39.166 -86.667 -59.499 -128
s-42.833 -83.333 -67.5 -126c-11.333 -20 -23.333 -39.167 -36 -57.5s-27.334 -34.666 -44.001 -48.999s-35.5 -25.666 -56.5 -33.999s-45.5 -12.5 -73.5 -12.5c-16.667 0 -32.167 1.33301 -46.5 4s-26.666 5.66699 -36.999 9s-18.833 6.5 -25.5 9.5
s-10.334 5.16699 -11.001 6.5l40 99c4 -2 12.833 -5 26.5 -9s27.5 -6 41.5 -6c20.667 0 38.334 5.83301 53.001 17.5s29 30.5 43 56.5l30 57l-37.5 62.5l-41 70.5l-40.5 71l-36 63.5l-27 48.5c-7.33301 13.333 -12 22 -14 26c-5.33301 10.667 -9.66602 20.5 -12.999 29.5
s-5 19.167 -5 30.5c0 8 1.16699 15.833 3.5 23.5s6.33301 14.5 12 20.5s13 10.833 22 14.5s20.5 5.5 34.5 5.5c20 0 34.833 -2 44.5 -6s14.834 -6.33301 15.501 -7c2 -5.33301 8.16699 -19 18.5 -41l37 -78l47 -96l49.5 -95l36.5 84.5l32.5 78.5l25.5 62.5
c7 17.667 12.167 30.167 15.5 37.5z" />
    <glyph glyph-name="z" unicode="z" horiz-adv-x="561" 
d="M89 396c-22.667 0 -38.499 4.99902 -47.499 14.999s-13.5 24 -13.5 42c0 14 2 26.167 6 36.5l8 20.5h412c21.333 0 38.333 -5.5 51 -16.5s19 -27.833 19 -50.5c0 -14.667 -3.33301 -27.667 -10 -39s-18 -25.666 -34 -42.999l-29.5 -28.5l-49.5 -46.5l-59.5 -55l-58.5 -54
l-46 -42.5c-12.667 -11.667 -20.334 -18.5 -23.001 -20.5h312v-114h-498v113c3.33301 2.66699 12.333 10.667 27 24l53 48.5l67.5 62l69 63.5l57 53l33.5 32h-246z" />
    <glyph glyph-name="braceleft" unicode="{" horiz-adv-x="386" 
d="M360 737c2 -3.33301 5.50195 -10.832 10.502 -22.499s7.5 -25.834 7.5 -42.501c0 -19.333 -3.66699 -34.666 -11 -45.999s-20.333 -17 -39 -17h-14c-20 0 -33.167 -6.5 -39.5 -19.5s-9.5 -26.5 -9.5 -40.5v-109c0 -26 -2.83301 -47.333 -8.5 -64s-13 -30 -22 -40
s-18.833 -17.5 -29.5 -22.5s-21 -8.83301 -31 -11.5c10 -2.66699 20.333 -6.33398 31 -11.001s20.5 -12 29.5 -22s16.333 -23.333 22 -40s8.5 -38 8.5 -64v-109c0 -7.33301 0.666992 -14.5 2 -21.5s4.16602 -13.5 8.49902 -19.5s10.666 -10.833 18.999 -14.5
s19.833 -5.5 34.5 -5.5h28v-127h-71c-51.333 0 -91.166 13.333 -119.499 40s-42.5 65 -42.5 115v115c0 34 -8.16699 58.833 -24.5 74.5s-38.5 23.5 -66.5 23.5h-13v133h13c28 0 50.167 7.83301 66.5 23.5s24.5 40.5 24.5 74.5v115c0 50 14.167 88.333 42.5 115
s68.166 40 119.499 40h74z" />
    <glyph glyph-name="bar" unicode="|" horiz-adv-x="310" 
d="M85 677c0 22.667 6.66699 38.332 20 46.999s31 13 53 13c15.333 0 29.5 -1.66699 42.5 -5s21.167 -5.66602 24.5 -6.99902v-857h-140v809z" />
    <glyph glyph-name="braceright" unicode="}" horiz-adv-x="385" 
d="M100 737c51.333 0 91.168 -13.334 119.501 -40.001s42.5 -65 42.5 -115v-115c0 -34 8.16699 -58.833 24.5 -74.5s38.5 -23.5 66.5 -23.5h13v-133h-13c-28 0 -50.167 -7.83301 -66.5 -23.5s-24.5 -40.5 -24.5 -74.5v-115c0 -50 -14.167 -88.333 -42.5 -115
s-68.166 -40 -119.499 -40h-71v127h28c14.667 0 26.167 1.83301 34.5 5.5s14.666 8.5 18.999 14.5s7.16602 12.5 8.49902 19.5s2 14.167 2 21.5v109c0 26 2.83301 47.333 8.5 64s13 30 22 40s18.833 17.333 29.5 22s21 8.33398 31 11.001c-10 2.66699 -20.333 6.5 -31 11.5
s-20.5 12.5 -29.5 22.5s-16.333 23.333 -22 40s-8.5 38 -8.5 64v109c0 14 -3.16699 27.5 -9.5 40.5s-19.5 19.5 -39.5 19.5h-14c-18.667 0 -31.667 5.66699 -39 17s-11 26.666 -11 45.999c0 16.667 2.5 30.834 7.5 42.501s8.5 19.167 10.5 22.5h74z" />
    <glyph glyph-name="asciitilde" unicode="~" horiz-adv-x="603" 
d="M575 440c0 -27.333 -2.83203 -53.001 -8.49902 -77.001s-14.834 -44.667 -27.501 -62s-28.667 -31 -48 -41s-43 -15 -71 -15c-21.333 0 -42 3 -62 9s-39.667 12.333 -59 19l-51 17c-12 4 -22.833 7.33301 -32.5 10s-20.834 4 -33.501 4
c-17.333 0 -29.833 -6.16699 -37.5 -18.5s-11.5 -25.833 -11.5 -40.5h-105c0 28.667 2.83301 54.834 8.5 78.501s14.667 44.167 27 61.5s28.333 30.833 48 40.5s43.5 14.5 71.5 14.5c18.667 0 37.334 -2.5 56.001 -7.5s34.667 -9.83301 48 -14.5l54 -18
c23.333 -8 40 -13.167 50 -15.5s20 -3.5 30 -3.5c17.333 0 29.833 6.5 37.5 19.5s11.5 26.167 11.5 39.5h105z" />
    <glyph glyph-name="uni00A0" unicode="&#xa0;" horiz-adv-x="232" 
 />
    <glyph glyph-name="exclamdown" unicode="&#xa1;" horiz-adv-x="268" 
d="M204 43c0 -22.667 -6.66699 -38.332 -20 -46.999s-31 -13 -53 -13c-15.333 0 -29.5 1.66699 -42.5 5s-21.167 5.66602 -24.5 6.99902v451h140v-403zM48 601.002c0 24 8.33301 44.333 25 61s37 25 61 25s44.333 -8.33301 61 -25s25 -37 25 -61s-8.33301 -44.333 -25 -61
s-37 -25 -61 -25s-44.333 8.33301 -61 25s-25 37 -25 61z" />
    <glyph glyph-name="cent" unicode="&#xa2;" horiz-adv-x="652" 
d="M329 76c-32 4 -62.0029 12.6631 -90.0029 25.9961s-52.333 31.333 -73 54s-37 49.667 -49 81s-18 66.666 -18 105.999c0 38 5.83301 72.333 17.5 103s27.834 57.334 48.501 80.001s45 41 73 55s58.333 23.333 91 28v81c0 15.333 4.16699 25.833 12.5 31.5
s19.833 8.5 34.5 8.5c10 0 19 -1 27 -3s13.333 -3.66699 16 -5v-112c31.333 -3.33301 55.833 -8.66602 73.5 -15.999s30.834 -14 39.501 -20c9.33301 -6.66699 17 -14.667 23 -24s9 -20.666 9 -33.999c0 -10.667 -3.66699 -23.167 -11 -37.5s-17.666 -26.833 -30.999 -37.5
l-12.5 12c-5.66699 5.33301 -12.834 10.833 -21.501 16.5s-18.834 11 -30.501 16s-24.5 8.5 -38.5 10.5v-307c26.667 4.66699 47.834 11.834 63.501 21.501s24.5 15.5 26.5 17.5l60 -93c-11.333 -9.33301 -29.166 -20.166 -53.499 -32.499s-56.5 -20.833 -96.5 -25.5v-113
h-90v112zM240.997 342.996c0 -39.333 8.33301 -71.333 25 -96s37.667 -41.667 63 -51v293c-27.333 -10 -48.833 -27.333 -64.5 -52s-23.5 -56 -23.5 -94z" />
    <glyph glyph-name="sterling" unicode="&#xa3;" horiz-adv-x="652" 
d="M591 126l-0.000976562 -126.002h-511l21 432c4 79.333 29.333 141.666 76 186.999s112.667 68 198 68c28 0 52.167 -1.66699 72.5 -5s37.833 -7.33301 52.5 -12s26.667 -9.66699 36 -15s17 -10 23 -14c10.667 -7.33301 19 -16.333 25 -27s9 -21.667 9 -33
c0 -18 -5.16699 -33.667 -15.5 -47s-20.166 -22.666 -29.499 -27.999c-2 2.66699 -6.66699 7.83398 -14 15.501s-17.5 15.167 -30.5 22.5s-29.333 14 -49 20s-42.834 9 -69.501 9c-28 0 -51.167 -4.16699 -69.5 -12.5s-33 -19.166 -44 -32.499s-19.167 -29 -24.5 -47
s-8.33301 -36.333 -9 -55l-1 -26h205c22.667 0 38.5 -5 47.5 -15s13.5 -24 13.5 -42c0 -15.333 -2.16699 -28 -6.5 -38s-7.16602 -16.333 -8.49902 -19h-257l-7 -160h367z" />
    <glyph glyph-name="currency" unicode="&#xa4;" horiz-adv-x="650" 
d="M453 343c0 17.333 -3.33301 33.666 -10 48.999s-15.834 28.833 -27.501 40.5s-25.167 20.834 -40.5 27.501s-32 10 -50 10s-34.833 -3.33301 -50.5 -10s-29.167 -15.834 -40.5 -27.501s-20.333 -25.167 -27 -40.5s-10 -31.666 -10 -48.999s3.33301 -33.833 10 -49.5
s15.667 -29.167 27 -40.5s24.833 -20.333 40.5 -27s32.5 -10 50.5 -10s34.667 3.33301 50 10s28.833 15.667 40.5 27s20.834 24.833 27.501 40.5s10 32.167 10 49.5zM509 72l-65.002 66.001c-19.333 -9.33301 -38.666 -16.666 -57.999 -21.999s-39.666 -8 -60.999 -8
c-20.667 0 -40.667 2.66699 -60 8s-38.666 12.666 -57.999 21.999l-66 -66l-43.5 44l-43.5 43l68 67c-10.667 18.667 -18.667 37.5 -24 56.5s-8 39.167 -8 60.5s2.66699 41.5 8 60.5s13.333 37.833 24 56.5l-68 67l87 87l66 -66c19.333 9.33301 38.666 16.666 57.999 21.999
s39.333 8 60 8c20 0 39.833 -2.83301 59.5 -8.5s39.167 -13.167 58.5 -22.5l66 67l44 -43.5l43 -43.5l-68 -67c10.667 -18.667 18.667 -37.5 24 -56.5s8 -39.167 8 -60.5c0 -40.667 -10.667 -79.667 -32 -117l68 -67z" />
    <glyph glyph-name="yen" unicode="&#xa5;" horiz-adv-x="652" 
d="M243 246l-25.5 31.998l-33.5 44h-84c-22.667 0 -38.5 4.5 -47.5 13.5s-13.5 20.5 -13.5 34.5s2 24.5 6 31.5s6.66699 12.167 8 15.5h60c-13.333 18 -25.5 35.167 -36.5 51.5l-27.5 41.5c-9.33301 15.333 -18 30.5 -26 45.5s-12 30.167 -12 45.5
c0 8 1.16699 15.833 3.5 23.5s6.33301 14.834 12 21.501s12.834 12 21.501 16s19.667 6 33 6c18.667 0 32.667 -2.5 42 -7.5s15.333 -8.5 18 -10.5c2 -2.66699 9 -14.5 21 -35.5l44 -75.5l56.5 -92c20.333 -32 39.5 -60 57.5 -84l34.5 55l37 62.5l37 64.5l35.5 60
c11.333 19.333 23.666 34.666 36.999 45.999s32.666 17 57.999 17c11.333 0 21.833 -1.5 31.5 -4.5s18.167 -6.33301 25.5 -10s13.333 -7.16699 18 -10.5s7.33398 -5.33301 8.00098 -6l-18 -31l-31 -52l-40 -65.5l-45 -71.5h27c22.667 0 38.5 -4.33301 47.5 -13
s13.5 -20 13.5 -34s-2 -24.667 -6 -32s-6.66699 -12.666 -8 -15.999h-135l-28 -42.5c-8.66699 -13 -16.667 -24.167 -24 -33.5h140c22.667 0 38.5 -4.33301 47.5 -13s13.5 -20 13.5 -34s-2 -24.667 -6 -32s-6.66699 -12.666 -8 -15.999h-187v-151h-152v151h-143
c-22.667 0 -38.5 4.5 -47.5 13.5s-13.5 20.5 -13.5 34.5s2 24.5 6 31.5s6.66699 12.167 8 15.5h190z" />
    <glyph glyph-name="brokenbar" unicode="&#xa6;" horiz-adv-x="310" 
d="M85 677c0 22.667 6.66699 38.332 20 46.999s31 13 53 13c15.333 0 29.5 -1.66699 42.5 -5s21.167 -5.66602 24.5 -6.99902v-279h-140v231zM225 156.998v-289h-140v289h140z" />
    <glyph glyph-name="section" unicode="&#xa7;" horiz-adv-x="646" 
d="M325 627c-82 0 -122.998 -25.666 -122.998 -76.999c0 -18 6.83301 -33 20.5 -45s36.5 -20.333 68.5 -25l121 -17c66 -9.33301 113.833 -28.5 143.5 -57.5s44.5 -63.167 44.5 -102.5c0 -22.667 -4.16699 -43 -12.5 -61s-18 -33.333 -29 -46s-21.667 -22.667 -32 -30
s-17.5 -12 -21.5 -14c26.667 -15.333 49.167 -34.666 67.5 -57.999s27.5 -55.666 27.5 -96.999c0 -28.667 -5.33301 -55 -16 -79s-27.167 -44.833 -49.5 -62.5s-50.666 -31.334 -84.999 -41.001s-75.166 -14.5 -122.499 -14.5c-39.333 0 -74.833 2.16699 -106.5 6.5
s-59.167 9.5 -82.5 15.5s-42.333 12 -57 18s-25 10.667 -31 14l25 53l25 53c8 -4 19.167 -8.5 33.5 -13.5s31 -10 50 -15s40.333 -9.16699 64 -12.5s49.167 -5 76.5 -5c35.333 0 65 5.5 89 16.5s36 29.833 36 56.5c0 19.333 -7.33301 35.666 -22 48.999
s-41 22.666 -79 27.999l-98 14c-29.333 4 -56.333 10.833 -81 20.5s-45.834 21.667 -63.501 36s-31.334 31.166 -41.001 50.499s-14.5 40.666 -14.5 63.999c0 32 8 59.667 24 83s39 43.666 69 60.999c-16.667 8.66699 -30.834 19.334 -42.501 32.001
s-21.334 25.834 -29.001 39.501s-13.167 27.667 -16.5 42s-5 27.5 -5 39.5c0 24 4.5 47.333 13.5 70s23.667 43 44 61s47.333 32.5 81 43.5s75.5 16.5 125.5 16.5c47.333 0 88.5 -3.16699 123.5 -9.5s63.167 -15.166 84.5 -26.499c26.667 -12.667 40 -31.667 40 -57
c0 -18 -5 -32.5 -15 -43.5s-18 -18.167 -24 -21.5c-6.66699 4 -16.167 8.66699 -28.5 14s-27 10.5 -44 15.5s-36.167 9.33301 -57.5 13s-44 5.5 -68 5.5zM193.002 275.001c0 -10 2 -20.668 6 -32.001s12 -21.5 24 -30.5s28.667 -16.5 50 -22.5s49 -9 83 -9
c27.333 0 51 7.33301 71 22s30 36.667 30 66c0 10.667 -2 21.334 -6 32.001s-12 20.5 -24 29.5s-28.667 16.333 -50 22s-49 8.5 -83 8.5c-27.333 0 -51 -7.16699 -71 -21.5s-30 -35.833 -30 -64.5z" />
    <glyph glyph-name="dieresis" unicode="&#xa8;" horiz-adv-x="500" 
d="M144 570c-9.33301 0 -18.333 2 -27 6s-16.334 9.16699 -23.001 15.5s-12 13.666 -16 21.999s-6 16.833 -6 25.5s2 17.167 6 25.5s9.33301 15.666 16 21.999s14.334 11.5 23.001 15.5s17.667 6 27 6c10 0 19.167 -2 27.5 -6s15.833 -9.16699 22.5 -15.5
s11.834 -13.666 15.501 -21.999s5.5 -16.833 5.5 -25.5s-1.83301 -17.167 -5.5 -25.5s-8.83398 -15.666 -15.501 -21.999s-14.167 -11.5 -22.5 -15.5s-17.5 -6 -27.5 -6zM358 570c-10 0 -19.333 2 -28 6s-16.167 9.16699 -22.5 15.5s-11.5 13.666 -15.5 21.999
s-6 16.833 -6 25.5s2 17.167 6 25.5s9.16699 15.666 15.5 21.999s13.833 11.5 22.5 15.5s18 6 28 6s19.167 -2 27.5 -6s15.833 -9.16699 22.5 -15.5s11.834 -13.666 15.501 -21.999s5.5 -16.833 5.5 -25.5s-1.83301 -17.167 -5.5 -25.5s-8.83398 -15.666 -15.501 -21.999
s-14.167 -11.5 -22.5 -15.5s-17.5 -6 -27.5 -6z" />
    <glyph glyph-name="copyright" unicode="&#xa9;" horiz-adv-x="802" 
d="M427 454c-31.333 0 -56.6689 -9.66895 -76.002 -29.002s-29 -47 -29 -83c0 -34.667 10.333 -61.667 31 -81s47 -29 79 -29c17.333 0 33 2.16699 47 6.5s26 9.5 36 15.5l39 -75c-11.333 -7.33301 -28.166 -15.166 -50.499 -23.499s-50.5 -12.5 -84.5 -12.5
c-28 0 -54.5 4.33301 -79.5 13s-46.833 21.5 -65.5 38.5s-33.5 37.833 -44.5 62.5s-16.5 53.334 -16.5 86.001c0 32 5.33301 60.333 16 85s25.334 45.5 44.001 62.5s40.5 30 65.5 39s51.833 13.5 80.5 13.5c24.667 0 48 -3.33301 70 -10s38.333 -15 49 -25
c4.66699 -4 8.33398 -8.5 11.001 -13.5s4 -11.167 4 -18.5c0 -12 -3.5 -23.167 -10.5 -33.5s-13.5 -17.833 -19.5 -22.5c-10 8 -23.333 15.667 -40 23s-35.334 11 -56.001 11zM28.9971 342.998c0 50.667 9.83203 98.334 29.499 143.001s46.5 83.667 80.5 117
s73.5 59.666 118.5 78.999s92.833 29 143.5 29s98.334 -9.66699 143.001 -29s83.667 -45.666 117 -78.999s59.666 -72.333 78.999 -117s29 -92.334 29 -143.001s-9.66699 -98.334 -29 -143.001s-45.666 -83.667 -78.999 -117s-72.333 -59.666 -117 -78.999
s-92.334 -29 -143.001 -29c-52.667 0 -101.667 9.66699 -147 29s-84.666 45.666 -117.999 78.999s-59.5 72.333 -78.5 117s-28.5 92.334 -28.5 143.001zM133.996 342.998c0 -38.667 6.83301 -75 20.5 -109s32.5 -63.5 56.5 -88.5s52.333 -44.667 85 -59
s67.667 -21.5 105 -21.5s72.333 7.16699 105 21.5s61.167 34 85.5 59s43.5 54.5 57.5 88.5s21 70.333 21 109s-7 75 -21 109s-33.167 63.5 -57.5 88.5s-52.833 44.667 -85.5 59s-67.667 21.5 -105 21.5s-72.333 -7.16699 -105 -21.5s-61 -34 -85 -59
s-42.833 -54.5 -56.5 -88.5s-20.5 -70.333 -20.5 -109z" />
    <glyph glyph-name="ordfeminine" unicode="&#xaa;" horiz-adv-x="443" 
d="M96 680c7.33301 5.33301 18.999 10.667 34.999 16s39 8 69 8c62.667 0 110.834 -13 144.501 -39s50.5 -67.333 50.5 -124v-222c-17.333 -2.66699 -41.333 -5.66699 -72 -9s-62.667 -5 -96 -5c-42 0 -75.667 3.83301 -101 11.5s-44.666 17.834 -57.999 30.501
s-22.166 26.834 -26.499 42.501s-6.5 31.167 -6.5 46.5c0 19.333 2.83301 36.666 8.5 51.999s15.5 28.166 29.5 38.499s32.667 18.333 56 24s52.666 8.5 87.999 8.5c10 0 21.5 -0.333008 34.5 -1s24.5 -1.33398 34.5 -2.00098c0 19.333 -8.33301 34.166 -25 44.499
s-37.334 15.5 -62.001 15.5c-14 0 -26.833 -1.5 -38.5 -4.5s-21.834 -6.16699 -30.501 -9.5s-15.667 -6.5 -21 -9.5s-8.33301 -4.83301 -9 -5.5c-0.666992 0.666992 -2.66699 2.5 -6 5.5s-6.66602 6.83301 -9.99902 11.5s-6.5 9.83398 -9.5 15.501s-4.5 11.167 -4.5 16.5
c0 10.667 2.5 19.334 7.5 26.001s11.167 12.667 18.5 18zM285.999 480.001c-3.33301 0.666992 -11.1699 1.33301 -23.5029 2s-26.166 1 -41.499 1c-25.333 0 -44.333 -3.5 -57 -10.5s-19 -18.833 -19 -35.5c0 -14 6.33301 -25.167 19 -33.5s35.334 -12.5 68.001 -12.5
c14 0 25.333 0.5 34 1.5s15.334 1.83301 20.001 2.5v85z" />
    <glyph glyph-name="guillemotleft" unicode="&#xab;" horiz-adv-x="631" 
d="M466 257l130 -148.999l-84 -79l-166 165c-8 7.33301 -14.667 16.666 -20 27.999s-8 23 -8 35s2.83301 23.5 8.5 34.5s12.167 20.167 19.5 27.5l164 166l86 -79zM181 257.001l130 -148.999l-84 -79l-166 165c-8 7.33301 -14.667 16.666 -20 27.999s-8 23 -8 35
s2.83301 23.5 8.5 34.5s12.167 20.167 19.5 27.5l164 166l86 -79z" />
    <glyph glyph-name="logicalnot" unicode="&#xac;" horiz-adv-x="630" 
d="M123 384c-26 0 -44.333 4.83301 -55 14.5s-16 25.5 -16 47.5c0 16 2.16699 29.5 6.5 40.5l8.5 21.5h440c26 0 44.333 -7 55 -21s16 -33.667 16 -59v-221h-125v177h-330z" />
    <glyph glyph-name="uni00AD" unicode="&#xad;" horiz-adv-x="375" 
d="M118 208c-26 0 -44.333 5.66699 -55 17s-16 27.666 -16 48.999c0 16.667 2.33301 30.834 7 42.501l9 22.5h194c26 0 44.333 -5.66699 55 -17s16 -27.666 16 -48.999c0 -16.667 -2.33301 -30.834 -7 -42.501l-9 -22.5h-194z" />
    <glyph glyph-name="registered" unicode="&#xae;" horiz-adv-x="802" 
d="M336 471l0.00195312 -109c5.33301 -1.33301 10.833 -2 16.5 -2h27.5c29.333 0 49.666 5.5 60.999 16.5s17 23.5 17 37.5c0 6 -0.833008 12.5 -2.5 19.5s-5.33398 13.167 -11.001 18.5s-13.5 9.83301 -23.5 13.5s-23 5.5 -39 5.5h-46zM392.002 542
c30 0 55.334 -3.5 76.001 -10.5s37.5 -16.5 50.5 -28.5s22.333 -25.667 28 -41s8.5 -31 8.5 -47c0 -19.333 -4.5 -38.333 -13.5 -57s-25.167 -34 -48.5 -46c13.333 -20 26.166 -43.667 38.499 -71l34.5 -79h-107c-2 6 -5.16699 14.667 -9.5 26l-14 36
c-5 12.667 -10.167 25 -15.5 37s-10 21.667 -14 29c-2.66699 -0.666992 -7.66699 -1.16699 -15 -1.5s-14 -0.5 -20 -0.5c-8 0 -14.833 0.166992 -20.5 0.5s-10.5 0.833008 -14.5 1.5v-128h-92v327c0 16 4.5 28.833 13.5 38.5s23.833 14.5 44.5 14.5h90zM29.0029 343
c0 50.667 9.83203 98.334 29.499 143.001s46.5 83.667 80.5 117s73.5 59.666 118.5 78.999s92.833 29 143.5 29s98.334 -9.66699 143.001 -29s83.667 -45.666 117 -78.999s59.666 -72.333 78.999 -117s29 -92.334 29 -143.001s-9.66699 -98.334 -29 -143.001
s-45.666 -83.667 -78.999 -117s-72.333 -59.666 -117 -78.999s-92.334 -29 -143.001 -29c-52.667 0 -101.667 9.66699 -147 29s-84.666 45.666 -117.999 78.999s-59.5 72.333 -78.5 117s-28.5 92.334 -28.5 143.001zM134.002 343c0 -38.667 6.83301 -75 20.5 -109
s32.5 -63.5 56.5 -88.5s52.333 -44.667 85 -59s67.667 -21.5 105 -21.5s72.333 7.16699 105 21.5s61.167 34 85.5 59s43.5 54.5 57.5 88.5s21 70.333 21 109s-7 75 -21 109s-33.167 63.5 -57.5 88.5s-52.833 44.667 -85.5 59s-67.667 21.5 -105 21.5
s-72.333 -7.16699 -105 -21.5s-61 -34 -85 -59s-42.833 -54.5 -56.5 -88.5s-20.5 -70.333 -20.5 -109z" />
    <glyph glyph-name="macron" unicode="&#xaf;" horiz-adv-x="500" 
d="M376 682c18 0 29.834 -4.16699 35.501 -12.5s8.5 -19.5 8.5 -33.5c0 -10.667 -0.833008 -19.167 -2.5 -25.5s-3.16699 -11.166 -4.5 -14.499h-289c-16.667 0 -28.334 3.83301 -35.001 11.5s-10 17.834 -10 30.501c0 11.333 0.666992 20.166 2 26.499s3 12.166 5 17.499
h290z" />
    <glyph glyph-name="degree" unicode="&#xb0;" horiz-adv-x="402" 
d="M384 557c0 -25.333 -4.83301 -48.833 -14.5 -70.5s-22.667 -40.5 -39 -56.5s-35.666 -28.667 -57.999 -38s-46.166 -14 -71.499 -14s-49.166 4.66699 -71.499 14s-41.666 22 -57.999 38s-29.333 34.833 -39 56.5s-14.5 45.167 -14.5 70.5s4.83301 49 14.5 71
s22.667 41 39 57s35.666 28.667 57.999 38s46.166 14 71.499 14s49.166 -4.66699 71.499 -14s41.666 -22 57.999 -38s29.333 -35 39 -57s14.5 -45.667 14.5 -71zM285 557c0 23.333 -8.16797 43.501 -24.501 60.501s-36.166 25.5 -59.499 25.5c-11.333 0 -22 -2.33301 -32 -7
s-18.833 -10.834 -26.5 -18.501s-13.834 -16.667 -18.501 -27s-7 -21.5 -7 -33.5c0 -22.667 8.33301 -42.334 25 -59.001s36.334 -25 59.001 -25c12 0 23 2.33301 33 7s18.833 10.834 26.5 18.501s13.667 16.5 18 26.5s6.5 20.667 6.5 32z" />
    <glyph glyph-name="plusminus" unicode="&#xb1;" horiz-adv-x="652" 
d="M140 0c-24.667 0 -42 5.5 -52 16.5s-15 26.5 -15 46.5c0 15.333 2.16699 28.666 6.5 39.999l8.5 22h173v152h-121c-24.667 0 -42 5.5 -52 16.5s-15 26.5 -15 46.5c0 15.333 2.16699 28.666 6.5 39.999l8.5 22h173v133c0 21.333 6 36 18 44s28.333 12 49 12
c14 0 27 -1.5 39 -4.5s19.667 -5.16699 23 -6.5v-178h122c24.667 0 42 -5.5 52 -16.5s15 -26.5 15 -46.5c0 -15.333 -2.16699 -28.666 -6.5 -39.999l-8.5 -22h-174v-152h122c24.667 0 42 -5.5 52 -16.5s15 -26.5 15 -46.5c0 -15.333 -2.16699 -28.666 -6.5 -39.999l-8.5 -22
h-424z" />
    <glyph glyph-name="twosuperior" unicode="&#xb2;" 
d="M419 394v-98h-368v83l26 15l43 26l49 31.5c16.667 11 31.667 21.5 45 31.5c16.667 13.333 32.5 28.666 47.5 45.999s22.5 35.333 22.5 54c0 16.667 -5.16699 30.834 -15.5 42.501s-28.166 17.5 -53.499 17.5c-12.667 0 -24.667 -2.33301 -36 -7
s-21.5 -10.167 -30.5 -16.5s-16.833 -13.166 -23.5 -20.499l-16 -18c-4.66699 1.33301 -10.167 3.16602 -16.5 5.49902s-12.333 5.83301 -18 10.5s-10.5 10.334 -14.5 17.001s-6 14.667 -6 24c0 14 4.66699 27 14 39s21.666 22.5 36.999 31.5s33.333 16 54 21s42 7.5 64 7.5
c65.333 0 113.833 -14 145.5 -42s47.5 -63 47.5 -105c0 -23.333 -6.66699 -44.833 -20 -64.5s-29.666 -37.834 -48.999 -54.501s-40.333 -31.5 -63 -44.5s-43.334 -23.833 -62.001 -32.5h197z" />
    <glyph glyph-name="threesuperior" unicode="&#xb3;" 
d="M52 652c0 9.33301 1.66602 17.3398 4.99902 24.0068s7.66602 12.667 12.999 18c3.33301 3.33301 8.5 7.5 15.5 12.5s16.833 9.66699 29.5 14s28 8.16602 46 11.499s39.667 5 65 5c36 0 66.5 -3.83301 91.5 -11.5s45.167 -17.334 60.5 -29.001s26.5 -24.667 33.5 -39
s10.5 -28.166 10.5 -41.499c0 -20.667 -5.16699 -39.834 -15.5 -57.501s-29.833 -32.834 -58.5 -45.501c32.667 -12.667 54.334 -27.834 65.001 -45.501s16 -38.167 16 -61.5c0 -17.333 -4 -33.666 -12 -48.999s-20 -28.666 -36 -39.999s-36 -20.5 -60 -27.5
s-52 -10.5 -84 -10.5c-50.667 0 -92.834 4.66699 -126.501 14s-57.167 16.666 -70.5 21.999l33 87c10.667 -4.66699 28.334 -10.667 53.001 -18s55 -11 91 -11c29.333 0 50 4.16699 62 12.5s18 19.833 18 34.5c0 11.333 -5.16699 21.666 -15.5 30.999s-31.833 14 -64.5 14
h-44c-2 1.33301 -4.83301 6.66602 -8.5 15.999s-5.5 20.666 -5.5 33.999c0 12.667 3.5 22.5 10.5 29.5s20.167 10.5 39.5 10.5h7c29.333 0 49 3.83301 59 11.5s15 18.834 15 33.501c0 5.33301 -1 10.666 -3 15.999s-6 10.333 -12 15s-14.167 8.33398 -24.5 11.001
s-23.5 4 -39.5 4c-29.333 0 -53.833 -5 -73.5 -15s-33.167 -18.667 -40.5 -26c-9.33301 3.33301 -19.166 8.66602 -29.499 15.999s-15.5 17.666 -15.5 30.999z" />
    <glyph glyph-name="acute" unicode="&#xb4;" horiz-adv-x="500" 
d="M177 570l-41 61l104 82c10.667 8 19.667 14 27 18s16 6 26 6c14.667 0 26.5 -3.33301 35.5 -10s16.167 -14.167 21.5 -22.5s9 -16.333 11 -24s3 -12.167 3 -13.5z" />
    <glyph glyph-name="mu" unicode="&#xb5;" horiz-adv-x="634" 
d="M74 450c0 22.667 6.66699 38.3311 20 46.998s31 13 53 13c15.333 0 29.5 -1.66699 42.5 -5s21.167 -5.66602 24.5 -6.99902v-288c8 -34.667 23.5 -61.334 46.5 -80.001s54.5 -28 94.5 -28c18.667 0 32.667 0.5 42 1.5s16.333 2.16699 21 3.5v343
c0 22.667 6.66699 38.334 20 47.001s31 13 53 13c15.333 0 29.5 -1.66699 42.5 -5s21.167 -5.66602 24.5 -6.99902v-498c-2 -0.666992 -8.16699 -1.83398 -18.5 -3.50098s-23.333 -3.16699 -39 -4.5s-33.834 -2.66602 -54.501 -3.99902s-42.667 -2 -66 -2
c-34.667 0 -66.167 4 -94.5 12s-52.166 21 -71.499 39v-237h-139z" />
    <glyph glyph-name="paragraph" unicode="&#xb6;" horiz-adv-x="668" 
d="M390 -200l-95.001 -0.000976562v428c-86 8.66699 -148.667 32.5 -188 71.5s-59 90.833 -59 155.5c0 29.333 5 58.333 15 87s27.167 54.5 51.5 77.5s57 41.5 98 55.5s92.167 21 153.5 21c46.667 0 81.834 -1.16699 105.501 -3.5s42.167 -4.83301 55.5 -7.5
c15.333 -2.66699 29 -9.5 41 -20.5s18 -29.5 18 -55.5v-809h-95v798c-8 0.666992 -17 1.33398 -27 2.00098s-20 1.16699 -30 1.5s-19 0.5 -27 0.5h-17v-802z" />
    <glyph glyph-name="periodcentered" unicode="&#xb7;" horiz-adv-x="337" 
d="M260 342c0 -25.333 -8.83301 -46.833 -26.5 -64.5s-39.167 -26.5 -64.5 -26.5s-46.833 8.83301 -64.5 26.5s-26.5 39.167 -26.5 64.5s8.83301 46.833 26.5 64.5s39.167 26.5 64.5 26.5s46.833 -8.83301 64.5 -26.5s26.5 -39.167 26.5 -64.5z" />
    <glyph glyph-name="cedilla" unicode="&#xb8;" horiz-adv-x="500" 
d="M236 -36c14.667 -0.666992 30.498 -2.49707 47.498 -5.49707s32.5 -7.83301 46.5 -14.5s25.667 -15.334 35 -26.001s14 -24.334 14 -41.001c0 -29.333 -11.833 -52.333 -35.5 -69s-55.834 -25 -96.501 -25c-20.667 0 -38.667 1.16699 -54 3.5s-28.166 5 -38.499 8
s-18.333 5.83301 -24 8.5l-10.5 5l27 63c0.666992 -0.666992 4 -2 10 -4s13.333 -4 22 -6s17.834 -3.83301 27.501 -5.5s19.167 -2.5 28.5 -2.5c16 0 27.333 1.5 34 4.5s10 9.16699 10 18.5c0 5.33301 -2.33301 9.66602 -7 12.999s-10.5 6 -17.5 8s-14.167 3.5 -21.5 4.5
s-13.666 1.5 -18.999 1.5z" />
    <glyph glyph-name="onesuperior" unicode="&#xb9;" 
d="M179 707c16.667 10.667 30.666 18.332 41.999 22.999s24.666 7 39.999 7c14.667 0 27.334 -2 38.001 -6s19.334 -8 26.001 -12v-423h-119v308l-87 -56c-3.33301 1.33301 -8 3.5 -14 6.5s-11.833 6.83301 -17.5 11.5s-10.5 10.334 -14.5 17.001s-6 14 -6 22
c0 11.333 3.16699 21.5 9.5 30.5s17.5 18.5 33.5 28.5z" />
    <glyph glyph-name="ordmasculine" unicode="&#xba;" horiz-adv-x="467" 
d="M431 504c0 -28 -4.5 -54 -13.5 -78s-22 -45 -39 -63s-37.667 -32.167 -62 -42.5s-51.833 -15.5 -82.5 -15.5s-58.167 5.16699 -82.5 15.5s-45 24.5 -62 42.5s-30.167 39 -39.5 63s-14 50 -14 78s4.66699 54.167 14 78.5s22.5 45.5 39.5 63.5s37.833 32.167 62.5 42.5
s52 15.5 82 15.5c30.667 0 58.167 -5.16699 82.5 -15.5s45 -24.5 62 -42.5s30 -39.167 39 -63.5s13.5 -50.5 13.5 -78.5zM316 504c0 30 -7.16797 55.001 -21.501 75.001s-34.5 30 -60.5 30s-46 -10 -60 -30s-21 -45 -21 -75c0 -14 1.83301 -27.167 5.5 -39.5
s8.83398 -23.333 15.501 -33s15 -17.334 25 -23.001s21.667 -8.5 35 -8.5c26 0 46.167 10.167 60.5 30.5s21.5 44.833 21.5 73.5z" />
    <glyph glyph-name="guillemotright" unicode="&#xbb;" horiz-adv-x="631" 
d="M320 406l86 78.999l164 -166c7.33301 -7.33301 13.833 -16.5 19.5 -27.5s8.5 -22.5 8.5 -34.5s-2.66699 -23.667 -8 -35s-12 -20.666 -20 -27.999l-166 -165l-84 79l130 149zM35 405.999l86 78.999l164 -166c7.33301 -7.33301 13.833 -16.5 19.5 -27.5
s8.5 -22.5 8.5 -34.5s-2.66699 -23.667 -8 -35s-12 -20.666 -20 -27.999l-166 -165l-84 79l130 149z" />
    <glyph glyph-name="onequarter" unicode="&#xbc;" horiz-adv-x="1051" 
d="M146 707c16.667 10.667 30.666 18.332 41.999 22.999s24.666 7 39.999 7c14.667 0 27.334 -2 38.001 -6s19.334 -8 26.001 -12v-423h-119v308l-87 -56c-3.33301 1.33301 -8 3.5 -14 6.5s-11.833 6.83301 -17.5 11.5s-10.5 10.334 -14.5 17.001s-6 14 -6 22
c0 11.333 3.16699 21.5 9.5 30.5s17.5 18.5 33.5 28.5zM328.999 -0.00195312l-131 0.000976562l399 693c6 10.667 13.667 20.667 23 30s25.333 14 48 14c18.667 0 33 -4.33301 43 -13s16.667 -17.334 20 -26.001zM899.999 171.999h21.999
c13.333 0 22.666 -3.83301 27.999 -11.5s8 -15.5 8 -23.5c0 -12 -1 -22.167 -3 -30.5s-4 -15.166 -6 -20.499h-49v-81h-114v81h-147c-30 0 -53.167 5.16699 -69.5 15.5s-24.5 29.166 -24.5 56.499c0 26.667 7.83301 54 23.5 82s33.167 53.667 52.5 77
c14.667 16.667 31 32.834 49 48.501s36.333 29.5 55 41.5s37.334 21.5 56.001 28.5s35.667 10.5 51 10.5c19.333 0 34.333 -1.33301 45 -4s18.334 -5.33398 23.001 -8.00098v-262zM666.998 198.999c0 -10.667 3.33398 -17.499 10.001 -20.499s14.667 -4.5 24 -4.5h85v159
c-16.667 -8 -32.834 -18.833 -48.501 -32.5s-28.167 -25.834 -37.5 -36.501c-10 -12.667 -18 -24.5 -24 -35.5s-9 -20.833 -9 -29.5z" />
    <glyph glyph-name="onehalf" unicode="&#xbd;" horiz-adv-x="1051" 
d="M127 707c16.667 10.667 30.666 18.332 41.999 22.999s24.666 7 39.999 7c14.667 0 27.334 -2 38.001 -6s19.334 -8 26.001 -12v-423h-119v308l-87 -56c-3.33301 1.33301 -8 3.5 -14 6.5s-11.833 6.83301 -17.5 11.5s-10.5 10.334 -14.5 17.001s-6 14 -6 22
c0 11.333 3.16699 21.5 9.5 30.5s17.5 18.5 33.5 28.5zM309.999 -0.00195312l-131 0.000976562l399 693c6 10.667 13.667 20.667 23 30s25.333 14 48 14c18.667 0 33 -4.33301 43 -13s16.667 -17.334 20 -26.001zM945.999 102.999v-98h-368v83l26 15l43 26l49 31.5
c16.667 11 31.667 21.5 45 31.5c16.667 13.333 32.5 28.666 47.5 45.999s22.5 35.333 22.5 54c0 16.667 -5.16699 30.834 -15.5 42.501s-28.166 17.5 -53.499 17.5c-12.667 0 -24.667 -2.33301 -36 -7s-21.5 -10.167 -30.5 -16.5s-16.833 -13.166 -23.5 -20.499l-16 -18
c-4.66699 1.33301 -10.167 3.16602 -16.5 5.49902s-12.333 5.83301 -18 10.5s-10.5 10.334 -14.5 17.001s-6 14.667 -6 24c0 14 4.66699 27 14 39s21.666 22.5 36.999 31.5s33.333 16 54 21s42 7.5 64 7.5c65.333 0 113.833 -14 145.5 -42s47.5 -63 47.5 -105
c0 -23.333 -6.66699 -44.833 -20 -64.5s-29.666 -37.834 -48.999 -54.501s-40.333 -31.5 -63 -44.5s-43.334 -23.833 -62.001 -32.5h197z" />
    <glyph glyph-name="threequarters" unicode="&#xbe;" horiz-adv-x="1051" 
d="M49 652c0 9.33301 1.66602 17.3398 4.99902 24.0068s7.66602 12.667 12.999 18c3.33301 3.33301 8.5 7.5 15.5 12.5s16.833 9.66699 29.5 14s28 8.16602 46 11.499s39.667 5 65 5c36 0 66.5 -3.83301 91.5 -11.5s45.167 -17.334 60.5 -29.001s26.5 -24.667 33.5 -39
s10.5 -28.166 10.5 -41.499c0 -20.667 -5.16699 -39.834 -15.5 -57.501s-29.833 -32.834 -58.5 -45.501c32.667 -12.667 54.334 -27.834 65.001 -45.501s16 -38.167 16 -61.5c0 -17.333 -4 -33.666 -12 -48.999s-20 -28.666 -36 -39.999s-36 -20.5 -60 -27.5
s-52 -10.5 -84 -10.5c-50.667 0 -92.834 4.66699 -126.501 14s-57.167 16.666 -70.5 21.999l33 87c10.667 -4.66699 28.334 -10.667 53.001 -18s55 -11 91 -11c29.333 0 50 4.16699 62 12.5s18 19.833 18 34.5c0 11.333 -5.16699 21.666 -15.5 30.999s-31.833 14 -64.5 14
h-44c-2 1.33301 -4.83301 6.66602 -8.5 15.999s-5.5 20.666 -5.5 33.999c0 12.667 3.5 22.5 10.5 29.5s20.167 10.5 39.5 10.5h7c29.333 0 49 3.83301 59 11.5s15 18.834 15 33.501c0 5.33301 -1 10.666 -3 15.999s-6 10.333 -12 15s-14.167 8.33398 -24.5 11.001
s-23.5 4 -39.5 4c-29.333 0 -53.833 -5 -73.5 -15s-33.167 -18.667 -40.5 -26c-9.33301 3.33301 -19.166 8.66602 -29.499 15.999s-15.5 17.666 -15.5 30.999zM396.999 0.00683594l-131 0.000976562l399 693c6 10.667 13.667 20.667 23 30s25.333 14 48 14
c18.667 0 33 -4.33301 43 -13s16.667 -17.334 20 -26.001zM967.999 172.008h21.999c13.333 0 22.666 -3.83301 27.999 -11.5s8 -15.5 8 -23.5c0 -12 -1 -22.167 -3 -30.5s-4 -15.166 -6 -20.499h-49v-81h-114v81h-147c-30 0 -53.167 5.16699 -69.5 15.5
s-24.5 29.166 -24.5 56.499c0 26.667 7.83301 54 23.5 82s33.167 53.667 52.5 77c14.667 16.667 31 32.834 49 48.501s36.333 29.5 55 41.5s37.334 21.5 56.001 28.5s35.667 10.5 51 10.5c19.333 0 34.333 -1.33301 45 -4s18.334 -5.33398 23.001 -8.00098v-262z
M734.998 199.008c0 -10.667 3.33398 -17.499 10.001 -20.499s14.667 -4.5 24 -4.5h85v159c-16.667 -8 -32.834 -18.833 -48.501 -32.5s-28.167 -25.834 -37.5 -36.501c-10 -12.667 -18 -24.5 -24 -35.5s-9 -20.833 -9 -29.5z" />
    <glyph glyph-name="questiondown" unicode="&#xbf;" horiz-adv-x="561" 
d="M238 601c0 24 8.33301 44.333 25 61s37 25 61 25s44.333 -8.33301 61 -25s25 -37 25 -61s-8.33301 -44.333 -25 -61s-37 -25 -61 -25s-44.333 8.33301 -61 25s-25 37 -25 61zM394 450v-28.9961c0 -21.333 -3 -39.166 -9 -53.499s-14 -26.833 -24 -37.5
s-21.167 -19.834 -33.5 -27.501s-24.833 -14.834 -37.5 -21.501c-24 -13.333 -45 -28.833 -63 -46.5s-27 -40.834 -27 -69.501c0 -12.667 2 -24.5 6 -35.5s10.5 -20.667 19.5 -29s20.833 -14.833 35.5 -19.5s32.667 -7 54 -7c26.667 0 48.667 4.16699 66 12.5
s31.333 17.666 42 27.999s18.167 20.166 22.5 29.499s6.83301 15.333 7.5 18c27.333 -4 47 -11.833 59 -23.5s18 -26.5 18 -44.5c0 -12 -2.33301 -22.833 -7 -32.5s-10.667 -18.834 -18 -27.501c-2.66699 -3.33301 -8.33398 -8.66602 -17.001 -15.999s-21 -14.833 -37 -22.5
s-36.333 -14.5 -61 -20.5s-54.334 -9 -89.001 -9c-42 0 -78.333 5 -109 15s-56 23.667 -76 41s-34.833 37.333 -44.5 60s-14.5 46.667 -14.5 72c0 26 3.16699 48.667 9.5 68s14.5 36.333 24.5 51s21.333 27.5 34 38.5s25.334 21.167 38.001 30.5
c14.667 10.667 27.834 19.834 39.501 27.501s21.167 15.167 28.5 22.5s13 15.166 17 23.499s6 18.5 6 30.5v4h140z" />
    <glyph glyph-name="Agrave" unicode="&#xc0;" horiz-adv-x="762" 
d="M10 0l47.5 122l51 124.5l50 119.5l45.5 106.5l37.5 85.5c11 24.667 19.833 43.667 26.5 57c14.667 31.333 31 52.666 49 63.999s39.667 17 65 17c26 0 45.833 -3.66699 59.5 -11s23.167 -13.666 28.5 -18.999c12 -20.667 26.333 -48.5 43 -83.5l52.5 -116l55.5 -132
l53 -132.5l45.5 -117l32.5 -85h-154c-5.33301 14.667 -12.833 34.167 -22.5 58.5l-34.5 87.5h-327l-34 -87l-23 -59h-147zM378 553c-3.33301 -6.66699 -8.83203 -19.333 -16.499 -38l-27 -67l-34.5 -85.5l-37 -92.5h229l-36.5 92.5l-34.5 85l-27.5 66.5
c-7.66699 18.667 -12.834 31.667 -15.501 39zM252.001 825.001c0 1.33301 1.00098 6.16895 3.00098 14.502s5.83301 17.166 11.5 26.499s13.667 17.666 24 24.999s24.166 11 41.499 11c10 0 18.833 -1.83301 26.5 -5.5s17.5 -9.16699 29.5 -16.5l121 -78l-36 -65z" />
    <glyph glyph-name="Aacute" unicode="&#xc1;" horiz-adv-x="762" 
d="M10 0l47.5 122l51 124.5l50 119.5l45.5 106.5l37.5 85.5c11 24.667 19.833 43.667 26.5 57c14.667 31.333 31 52.666 49 63.999s39.667 17 65 17c26 0 45.833 -3.66699 59.5 -11s23.167 -13.666 28.5 -18.999c12 -20.667 26.333 -48.5 43 -83.5l52.5 -116l55.5 -132
l53 -132.5l45.5 -117l32.5 -85h-154c-5.33301 14.667 -12.833 34.167 -22.5 58.5l-34.5 87.5h-327l-34 -87l-23 -59h-147zM378 553c-3.33301 -6.66699 -8.83203 -19.333 -16.499 -38l-27 -67l-34.5 -85.5l-37 -92.5h229l-36.5 92.5l-34.5 85l-27.5 66.5
c-7.66699 18.667 -12.834 31.667 -15.501 39zM308.001 737.001l-36.002 64.9971l121 78c12 7.33301 21.833 12.833 29.5 16.5s16.5 5.5 26.5 5.5c16.667 0 30.334 -3.66699 41.001 -11s18.834 -15.666 24.501 -24.999s9.5 -18.166 11.5 -26.499s3 -13.166 3 -14.499z" />
    <glyph glyph-name="Acircumflex" unicode="&#xc2;" horiz-adv-x="762" 
d="M10 0l47.5 122l51 124.5l50 119.5l45.5 106.5l37.5 85.5c11 24.667 19.833 43.667 26.5 57c14.667 31.333 31 52.666 49 63.999s39.667 17 65 17c26 0 45.833 -3.66699 59.5 -11s23.167 -13.666 28.5 -18.999c12 -20.667 26.333 -48.5 43 -83.5l52.5 -116l55.5 -132
l53 -132.5l45.5 -117l32.5 -85h-154c-5.33301 14.667 -12.833 34.167 -22.5 58.5l-34.5 87.5h-327l-34 -87l-23 -59h-147zM378 553c-3.33301 -6.66699 -8.83203 -19.333 -16.499 -38l-27 -67l-34.5 -85.5l-37 -92.5h229l-36.5 92.5l-34.5 85l-27.5 66.5
c-7.66699 18.667 -12.834 31.667 -15.501 39zM381.001 902.001c14 0 27.667 -3.66699 41 -11s25 -15.666 35 -24.999l94 -76l-39 -53l-131 68l-133 -68l-38 53l95 76c11.333 9.33301 22.833 17.666 34.5 24.999s25.5 11 41.5 11z" />
    <glyph glyph-name="Atilde" unicode="&#xc3;" horiz-adv-x="762" 
d="M10 0l47.5 122l51 124.5l50 119.5l45.5 106.5l37.5 85.5c11 24.667 19.833 43.667 26.5 57c14.667 31.333 31 52.666 49 63.999s39.667 17 65 17c26 0 45.833 -3.66699 59.5 -11s23.167 -13.666 28.5 -18.999c12 -20.667 26.333 -48.5 43 -83.5l52.5 -116l55.5 -132
l53 -132.5l45.5 -117l32.5 -85h-154c-5.33301 14.667 -12.833 34.167 -22.5 58.5l-34.5 87.5h-327l-34 -87l-23 -59h-147zM378 553c-3.33301 -6.66699 -8.83203 -19.333 -16.499 -38l-27 -67l-34.5 -85.5l-37 -92.5h229l-36.5 92.5l-34.5 85l-27.5 66.5
c-7.66699 18.667 -12.834 31.667 -15.501 39zM450.001 752.001c-17.333 0 -32.6641 1.66699 -45.9971 5s-25.666 6.66602 -36.999 9.99902c-10 3.33301 -19.333 6.16602 -28 8.49902s-17 3.5 -25 3.5c-15.333 0 -26.333 -11.667 -33 -35l-87 16c2.66699 14 7 27.833 13 41.5
s13.5 25.834 22.5 36.501s20.167 19.334 33.5 26.001s29 10 47 10c15.333 0 29.666 -1.5 42.999 -4.5s25.666 -6.16699 36.999 -9.5l29 -9c8.66699 -2.66699 17.667 -4 27 -4c16 0 27.333 11.333 34 34l88 -16c-2.66699 -14.667 -6.83398 -28.834 -12.501 -42.501
s-13.334 -25.667 -23.001 -36s-21.167 -18.666 -34.5 -24.999s-29.333 -9.5 -48 -9.5z" />
    <glyph glyph-name="Adieresis" unicode="&#xc4;" horiz-adv-x="762" 
d="M10 0l47.5 122l51 124.5l50 119.5l45.5 106.5l37.5 85.5c11 24.667 19.833 43.667 26.5 57c14.667 31.333 31 52.666 49 63.999s39.667 17 65 17c26 0 45.833 -3.66699 59.5 -11s23.167 -13.666 28.5 -18.999c12 -20.667 26.333 -48.5 43 -83.5l52.5 -116l55.5 -132
l53 -132.5l45.5 -117l32.5 -85h-154c-5.33301 14.667 -12.833 34.167 -22.5 58.5l-34.5 87.5h-327l-34 -87l-23 -59h-147zM378 553c-3.33301 -6.66699 -8.83203 -19.333 -16.499 -38l-27 -67l-34.5 -85.5l-37 -92.5h229l-36.5 92.5l-34.5 85l-27.5 66.5
c-7.66699 18.667 -12.834 31.667 -15.501 39zM269.001 734.001c-10 0 -19.333 1.99805 -28 5.99805s-16.334 9.33301 -23.001 16s-12 14.167 -16 22.5s-6 16.833 -6 25.5s2 17.334 6 26.001s9.33301 16.334 16 23.001s14.334 12 23.001 16s18 6 28 6
c20 0 37.167 -7.33301 51.5 -22s21.5 -31 21.5 -49c0 -8.66699 -2 -17.167 -6 -25.5s-9.16699 -15.833 -15.5 -22.5s-14 -12 -23 -16s-18.5 -6 -28.5 -6zM492.001 733.999c-10 0 -19.5 2 -28.5 6s-16.833 9.33301 -23.5 16s-12 14.167 -16 22.5s-6 16.833 -6 25.5
c0 18 7.33301 34.333 22 49s32 22 52 22s37.167 -7.33301 51.5 -22s21.5 -31 21.5 -49c0 -8.66699 -2 -17.167 -6 -25.5s-9.16699 -15.833 -15.5 -22.5s-14 -12 -23 -16s-18.5 -6 -28.5 -6z" />
    <glyph glyph-name="Aring" unicode="&#xc5;" horiz-adv-x="762" 
d="M278 745c0 14 2.66992 27.001 8.00293 39.001s12.666 22.667 21.999 32s20.333 16.666 33 21.999s26 8 40 8s27.333 -2.66699 40 -8s23.667 -12.666 33 -21.999s16.666 -20 21.999 -32s8 -25 8 -39c0 -13.333 -2.5 -25.833 -7.5 -37.5s-11.833 -22.167 -20.5 -31.5
c3.33301 -2 6.16602 -3.83301 8.49902 -5.5s4.16602 -3.16699 5.49902 -4.5c12 -20.667 26.333 -48.5 43 -83.5l52.5 -116l55.5 -132l53 -132.5l45.5 -117l32.5 -85h-154c-5.33301 14.667 -12.833 34.167 -22.5 58.5l-34.5 87.5h-327l-34 -87l-23 -59h-147l47.5 122
l51 124.5l50 119.5l45.5 106.5l37.5 85.5c11 24.667 19.833 43.667 26.5 57c12.667 26 26.334 45.333 41.001 58c-9.33301 9.33301 -16.833 20.166 -22.5 32.499s-8.5 25.5 -8.5 39.5zM378.003 553.001c-3.33301 -6.66699 -8.83203 -19.333 -16.499 -38l-27 -67l-34.5 -85.5
l-37 -92.5h229l-36.5 92.5l-34.5 85l-27.5 66.5c-7.66699 18.667 -12.834 31.667 -15.501 39zM337.004 745.002c0 -13.333 4 -24.333 12 -33s18.667 -13 32 -13s24 4.33301 32 13s12 19.667 12 33s-4 24.333 -12 33s-18.667 13 -32 13s-24 -4.33301 -32 -13
s-12 -19.667 -12 -33z" />
    <glyph glyph-name="AE" unicode="&#xc6;" horiz-adv-x="1093" 
d="M530 0v156h-296l-51 -92l-35 -64h-148l101 183l103 180.5l91 154.5c27.333 46 49 81 65 105c14.667 23.333 31 39.833 49 49.5s38 14.5 60 14.5h481c25.333 0 43 -5.33301 53 -16s15 -26 15 -46c0 -15.333 -2.16699 -29 -6.5 -41s-7.83301 -20 -10.5 -24h-326v-151h261
c25.333 0 43 -5.33301 53 -16s15 -26 15 -46c0 -15.333 -2.16699 -29 -6.5 -41s-7.83301 -20 -10.5 -24h-312v-155h338v-127h-483zM461 560l-22 -37.5l-38 -66l-48 -84.5l-52 -92h229v280h-69z" />
    <glyph glyph-name="Ccedilla" unicode="&#xc7;" horiz-adv-x="700" 
d="M660 590c0 -11.333 -2.16602 -21.6709 -6.49902 -31.0039s-9.5 -17.666 -15.5 -24.999s-12.167 -13.5 -18.5 -18.5s-11.5 -8.5 -15.5 -10.5c-5.33301 5.33301 -12.833 12.333 -22.5 21s-22.167 17 -37.5 25s-33.5 15 -54.5 21s-44.833 9 -71.5 9
c-32 0 -61 -5.66699 -87 -17s-48.333 -27.333 -67 -48s-33.167 -45.5 -43.5 -74.5s-15.5 -61.5 -15.5 -97.5c0 -76.667 19.5 -135 58.5 -175s91.167 -60 156.5 -60c27.333 0 51.833 2.5 73.5 7.5s40.167 10.5 55.5 16.5s27.666 12 36.999 18s15.333 10 18 12l64 -108
c-3.33301 -3.33301 -11.333 -8.83301 -24 -16.5s-30 -15.667 -52 -24s-48.167 -15.666 -78.5 -21.999s-64.833 -9.5 -103.5 -9.5c-50 0 -96.667 7.66699 -140 23s-80.833 38.333 -112.5 69s-56.667 68.334 -75 113.001s-27.5 96.667 -27.5 156
c0 56 9.16699 106.167 27.5 150.5s43.666 82 75.999 113s70.333 54.833 114 71.5s91.167 25 142.5 25c54.667 0 98.667 -5.66699 132 -17s58 -22.666 74 -33.999c12.667 -9.33301 22.334 -19.5 29.001 -30.5s10 -21.833 10 -32.5zM338.001 -40.0049
c14.667 -0.666992 30.498 -2.49707 47.498 -5.49707s32.5 -7.83301 46.5 -14.5s25.667 -15.334 35 -26.001s14 -24.334 14 -41.001c0 -29.333 -11.833 -52.333 -35.5 -69s-55.834 -25 -96.501 -25c-20.667 0 -38.667 1.16699 -54 3.5s-28.166 5 -38.499 8
s-18.333 5.83301 -24 8.5l-10.5 5l27 63c0.666992 -0.666992 4 -2 10 -4s13.333 -4 22 -6s17.834 -3.83301 27.501 -5.5s19.167 -2.5 28.5 -2.5c16 0 27.333 1.5 34 4.5s10 9.16699 10 18.5c0 5.33301 -2.33301 9.66602 -7 12.999s-10.5 6 -17.5 8s-14.167 3.5 -21.5 4.5
s-13.666 1.5 -18.999 1.5z" />
    <glyph glyph-name="Egrave" unicode="&#xc8;" horiz-adv-x="648" 
d="M230 282v-155h338v-127h-483v609c0 52 27 78 81 78h339c25.333 0 43 -5.33301 53 -16s15 -26 15 -46c0 -15.333 -2.16699 -29 -6.5 -41s-7.83301 -20 -10.5 -24h-326v-151h261c25.333 0 43 -5.33301 53 -16s15 -26 15 -46c0 -15.333 -2.16699 -29 -6.5 -41
s-7.83301 -20 -10.5 -24h-312zM195 825c0 1.33301 1.00098 6.16895 3.00098 14.502s5.83301 17.166 11.5 26.499s13.667 17.666 24 24.999s24.166 11 41.499 11c10 0 18.833 -1.83301 26.5 -5.5s17.5 -9.16699 29.5 -16.5l121 -78l-36 -65z" />
    <glyph glyph-name="Eacute" unicode="&#xc9;" horiz-adv-x="648" 
d="M230 282v-155h338v-127h-483v609c0 52 27 78 81 78h339c25.333 0 43 -5.33301 53 -16s15 -26 15 -46c0 -15.333 -2.16699 -29 -6.5 -41s-7.83301 -20 -10.5 -24h-326v-151h261c25.333 0 43 -5.33301 53 -16s15 -26 15 -46c0 -15.333 -2.16699 -29 -6.5 -41
s-7.83301 -20 -10.5 -24h-312zM269 737l-36.002 64.9971l121 78c12 7.33301 21.833 12.833 29.5 16.5s16.5 5.5 26.5 5.5c16.667 0 30.334 -3.66699 41.001 -11s18.834 -15.666 24.501 -24.999s9.5 -18.166 11.5 -26.499s3 -13.166 3 -14.499z" />
    <glyph glyph-name="Ecircumflex" unicode="&#xca;" horiz-adv-x="648" 
d="M230 282v-155h338v-127h-483v609c0 52 27 78 81 78h339c25.333 0 43 -5.33301 53 -16s15 -26 15 -46c0 -15.333 -2.16699 -29 -6.5 -41s-7.83301 -20 -10.5 -24h-326v-151h261c25.333 0 43 -5.33301 53 -16s15 -26 15 -46c0 -15.333 -2.16699 -29 -6.5 -41
s-7.83301 -20 -10.5 -24h-312zM324 902c14 0 27.667 -3.66699 41 -11s25 -15.666 35 -24.999l94 -76l-39 -53l-131 68l-133 -68l-38 53l95 76c11.333 9.33301 22.833 17.666 34.5 24.999s25.5 11 41.5 11z" />
    <glyph glyph-name="Edieresis" unicode="&#xcb;" horiz-adv-x="648" 
d="M230 282v-155h338v-127h-483v609c0 52 27 78 81 78h339c25.333 0 43 -5.33301 53 -16s15 -26 15 -46c0 -15.333 -2.16699 -29 -6.5 -41s-7.83301 -20 -10.5 -24h-326v-151h261c25.333 0 43 -5.33301 53 -16s15 -26 15 -46c0 -15.333 -2.16699 -29 -6.5 -41
s-7.83301 -20 -10.5 -24h-312zM212 734c-10 0 -19.333 1.99805 -28 5.99805s-16.334 9.33301 -23.001 16s-12 14.167 -16 22.5s-6 16.833 -6 25.5s2 17.334 6 26.001s9.33301 16.334 16 23.001s14.334 12 23.001 16s18 6 28 6c20 0 37.167 -7.33301 51.5 -22
s21.5 -31 21.5 -49c0 -8.66699 -2 -17.167 -6 -25.5s-9.16699 -15.833 -15.5 -22.5s-14 -12 -23 -16s-18.5 -6 -28.5 -6zM435 733.998c-10 0 -19.5 2 -28.5 6s-16.833 9.33301 -23.5 16s-12 14.167 -16 22.5s-6 16.833 -6 25.5c0 18 7.33301 34.333 22 49s32 22 52 22
s37.167 -7.33301 51.5 -22s21.5 -31 21.5 -49c0 -8.66699 -2 -17.167 -6 -25.5s-9.16699 -15.833 -15.5 -22.5s-14 -12 -23 -16s-18.5 -6 -28.5 -6z" />
    <glyph glyph-name="Igrave" unicode="&#xcc;" horiz-adv-x="315" 
d="M85 623c0 23.333 6.83301 39.833 20.5 49.5s32.167 14.5 55.5 14.5c16.667 0 31.5 -2 44.5 -6s21.167 -6.66699 24.5 -8v-673h-145v623zM21 825c0 1.33301 1.00098 6.16895 3.00098 14.502s5.83301 17.166 11.5 26.499s13.667 17.666 24 24.999s24.166 11 41.499 11
c10 0 18.833 -1.83301 26.5 -5.5s17.5 -9.16699 29.5 -16.5l121 -78l-36 -65z" />
    <glyph glyph-name="Iacute" unicode="&#xcd;" horiz-adv-x="315" 
d="M85 623c0 23.333 6.83301 39.833 20.5 49.5s32.167 14.5 55.5 14.5c16.667 0 31.5 -2 44.5 -6s21.167 -6.66699 24.5 -8v-673h-145v623zM90 737l-36.002 64.9971l121 78c12 7.33301 21.833 12.833 29.5 16.5s16.5 5.5 26.5 5.5c16.667 0 30.334 -3.66699 41.001 -11
s18.834 -15.666 24.501 -24.999s9.5 -18.166 11.5 -26.499s3 -13.166 3 -14.499z" />
    <glyph glyph-name="Icircumflex" unicode="&#xce;" horiz-adv-x="315" 
d="M85 623c0 23.333 6.83301 39.833 20.5 49.5s32.167 14.5 55.5 14.5c16.667 0 31.5 -2 44.5 -6s21.167 -6.66699 24.5 -8v-673h-145v623zM163 902c14 0 27.667 -3.66699 41 -11s25 -15.666 35 -24.999l94 -76l-39 -53l-131 68l-133 -68l-38 53l95 76
c11.333 9.33301 22.833 17.666 34.5 24.999s25.5 11 41.5 11z" />
    <glyph glyph-name="Idieresis" unicode="&#xcf;" horiz-adv-x="315" 
d="M85 623c0 23.333 6.83301 39.833 20.5 49.5s32.167 14.5 55.5 14.5c16.667 0 31.5 -2 44.5 -6s21.167 -6.66699 24.5 -8v-673h-145v623zM51 734c-10 0 -19.333 1.99805 -28 5.99805s-16.334 9.33301 -23.001 16s-12 14.167 -16 22.5s-6 16.833 -6 25.5s2 17.334 6 26.001
s9.33301 16.334 16 23.001s14.334 12 23.001 16s18 6 28 6c20 0 37.167 -7.33301 51.5 -22s21.5 -31 21.5 -49c0 -8.66699 -2 -17.167 -6 -25.5s-9.16699 -15.833 -15.5 -22.5s-14 -12 -23 -16s-18.5 -6 -28.5 -6zM274 733.998c-10 0 -19.5 2 -28.5 6
s-16.833 9.33301 -23.5 16s-12 14.167 -16 22.5s-6 16.833 -6 25.5c0 18 7.33301 34.333 22 49s32 22 52 22s37.167 -7.33301 51.5 -22s21.5 -31 21.5 -49c0 -8.66699 -2 -17.167 -6 -25.5s-9.16699 -15.833 -15.5 -22.5s-14 -12 -23 -16s-18.5 -6 -28.5 -6z" />
    <glyph glyph-name="Eth" unicode="&#xd0;" horiz-adv-x="769" 
d="M94 409l0.000976562 199.999c0 52 27 78 81 78h174c56 0 106.5 -8 151.5 -24s83.333 -39 115 -69s56 -66.167 73 -108.5s25.5 -89.5 25.5 -141.5s-8.5 -99.167 -25.5 -141.5s-41.333 -78.5 -73 -108.5s-70 -53.167 -115 -69.5s-95.5 -24.5 -151.5 -24.5h-255v290h-21
c-22.667 0 -38.834 5.66699 -48.501 17s-14.5 27.333 -14.5 48c0 12.667 1.66699 23.834 5 33.501s6.33301 16.5 9 20.5h70zM340.001 408.999c23.333 0 39.667 -5.49902 49 -16.499s14 -26.167 14 -45.5c0 -14 -1.66699 -26 -5 -36s-6.33301 -17 -9 -21h-150v-170h104
c36.667 0 68.667 5.83301 96 17.5s50.333 27.5 69 47.5s32.667 43.667 42 71s14 56.666 14 87.999s-4.66699 60.5 -14 87.5s-23.333 50.5 -42 70.5s-41.667 35.833 -69 47.5s-59.333 17.5 -96 17.5h-104v-158h101z" />
    <glyph glyph-name="Ntilde" unicode="&#xd1;" horiz-adv-x="769" 
d="M246 663c3.33301 -3.33301 10.833 -13 22.5 -29l42.5 -59.5l55.5 -79l61.5 -90l60.5 -91.5l52.5 -82v391c0 23.333 6.83301 39.833 20.5 49.5s32.167 14.5 55.5 14.5c16.667 0 31.167 -2 43.5 -6s20.166 -6.66699 23.499 -8v-673h-142l-79 121.5l-88 133l-83.5 123
l-64.5 92.5v-470h-142v614c0 8.66699 1.66699 17.334 5 26.001s8.33301 16.5 15 23.5s15.334 12.667 26.001 17s23 6.5 37 6.5c21.333 0 38 -2.83301 50 -8.5s21.333 -10.834 28 -15.501zM473 752c-17.333 0 -32.6641 1.66699 -45.9971 5s-25.666 6.66602 -36.999 9.99902
c-10 3.33301 -19.333 6.16602 -28 8.49902s-17 3.5 -25 3.5c-15.333 0 -26.333 -11.667 -33 -35l-87 16c2.66699 14 7 27.833 13 41.5s13.5 25.834 22.5 36.501s20.167 19.334 33.5 26.001s29 10 47 10c15.333 0 29.666 -1.5 42.999 -4.5s25.666 -6.16699 36.999 -9.5l29 -9
c8.66699 -2.66699 17.667 -4 27 -4c16 0 27.333 11.333 34 34l88 -16c-2.66699 -14.667 -6.83398 -28.834 -12.501 -42.501s-13.334 -25.667 -23.001 -36s-21.167 -18.666 -34.5 -24.999s-29.333 -9.5 -48 -9.5z" />
    <glyph glyph-name="Ograve" unicode="&#xd2;" horiz-adv-x="826" 
d="M771 344c0 -51.333 -8.66699 -99 -26 -143s-41.666 -82.167 -72.999 -114.5s-69 -57.666 -113 -75.999s-92.667 -27.5 -146 -27.5s-102 9.16699 -146 27.5s-81.667 43.666 -113 75.999s-55.666 70.5 -72.999 114.5s-26 91.667 -26 143s8.66699 99 26 143
s41.666 82 72.999 114s69 57.167 113 75.5s92.667 27.5 146 27.5s102 -9.16699 146 -27.5s81.667 -43.5 113 -75.5s55.666 -70 72.999 -114s26 -91.667 26 -143zM621 344c0 34 -4.83301 65.667 -14.5 95s-23.334 54.5 -41.001 75.5s-39.334 37.5 -65.001 49.5
s-54.5 18 -86.5 18c-32.667 0 -61.834 -6 -87.501 -18s-47.5 -28.5 -65.5 -49.5s-31.833 -46.167 -41.5 -75.5s-14.5 -61 -14.5 -95s4.83301 -65.5 14.5 -94.5s23.5 -54.333 41.5 -76s39.833 -38.5 65.5 -50.5s54.834 -18 87.501 -18c32 0 60.833 6 86.5 18
s47.334 28.833 65.001 50.5s31.334 47 41.001 76s14.5 60.5 14.5 94.5zM284 825c0 1.33301 1.00098 6.16895 3.00098 14.502s5.83301 17.166 11.5 26.499s13.667 17.666 24 24.999s24.166 11 41.499 11c10 0 18.833 -1.83301 26.5 -5.5s17.5 -9.16699 29.5 -16.5l121 -78
l-36 -65z" />
    <glyph glyph-name="Oacute" unicode="&#xd3;" horiz-adv-x="826" 
d="M771 344c0 -51.333 -8.66699 -99 -26 -143s-41.666 -82.167 -72.999 -114.5s-69 -57.666 -113 -75.999s-92.667 -27.5 -146 -27.5s-102 9.16699 -146 27.5s-81.667 43.666 -113 75.999s-55.666 70.5 -72.999 114.5s-26 91.667 -26 143s8.66699 99 26 143
s41.666 82 72.999 114s69 57.167 113 75.5s92.667 27.5 146 27.5s102 -9.16699 146 -27.5s81.667 -43.5 113 -75.5s55.666 -70 72.999 -114s26 -91.667 26 -143zM621 344c0 34 -4.83301 65.667 -14.5 95s-23.334 54.5 -41.001 75.5s-39.334 37.5 -65.001 49.5
s-54.5 18 -86.5 18c-32.667 0 -61.834 -6 -87.501 -18s-47.5 -28.5 -65.5 -49.5s-31.833 -46.167 -41.5 -75.5s-14.5 -61 -14.5 -95s4.83301 -65.5 14.5 -94.5s23.5 -54.333 41.5 -76s39.833 -38.5 65.5 -50.5s54.834 -18 87.501 -18c32 0 60.833 6 86.5 18
s47.334 28.833 65.001 50.5s31.334 47 41.001 76s14.5 60.5 14.5 94.5zM320 737l-36.002 64.9971l121 78c12 7.33301 21.833 12.833 29.5 16.5s16.5 5.5 26.5 5.5c16.667 0 30.334 -3.66699 41.001 -11s18.834 -15.666 24.501 -24.999s9.5 -18.166 11.5 -26.499
s3 -13.166 3 -14.499z" />
    <glyph glyph-name="Ocircumflex" unicode="&#xd4;" horiz-adv-x="826" 
d="M771 344c0 -51.333 -8.66699 -99 -26 -143s-41.666 -82.167 -72.999 -114.5s-69 -57.666 -113 -75.999s-92.667 -27.5 -146 -27.5s-102 9.16699 -146 27.5s-81.667 43.666 -113 75.999s-55.666 70.5 -72.999 114.5s-26 91.667 -26 143s8.66699 99 26 143
s41.666 82 72.999 114s69 57.167 113 75.5s92.667 27.5 146 27.5s102 -9.16699 146 -27.5s81.667 -43.5 113 -75.5s55.666 -70 72.999 -114s26 -91.667 26 -143zM621 344c0 34 -4.83301 65.667 -14.5 95s-23.334 54.5 -41.001 75.5s-39.334 37.5 -65.001 49.5
s-54.5 18 -86.5 18c-32.667 0 -61.834 -6 -87.501 -18s-47.5 -28.5 -65.5 -49.5s-31.833 -46.167 -41.5 -75.5s-14.5 -61 -14.5 -95s4.83301 -65.5 14.5 -94.5s23.5 -54.333 41.5 -76s39.833 -38.5 65.5 -50.5s54.834 -18 87.501 -18c32 0 60.833 6 86.5 18
s47.334 28.833 65.001 50.5s31.334 47 41.001 76s14.5 60.5 14.5 94.5zM413 902c14 0 27.667 -3.66699 41 -11s25 -15.666 35 -24.999l94 -76l-39 -53l-131 68l-133 -68l-38 53l95 76c11.333 9.33301 22.833 17.666 34.5 24.999s25.5 11 41.5 11z" />
    <glyph glyph-name="Otilde" unicode="&#xd5;" horiz-adv-x="826" 
d="M771 344c0 -51.333 -8.66699 -99 -26 -143s-41.666 -82.167 -72.999 -114.5s-69 -57.666 -113 -75.999s-92.667 -27.5 -146 -27.5s-102 9.16699 -146 27.5s-81.667 43.666 -113 75.999s-55.666 70.5 -72.999 114.5s-26 91.667 -26 143s8.66699 99 26 143
s41.666 82 72.999 114s69 57.167 113 75.5s92.667 27.5 146 27.5s102 -9.16699 146 -27.5s81.667 -43.5 113 -75.5s55.666 -70 72.999 -114s26 -91.667 26 -143zM621 344c0 34 -4.83301 65.667 -14.5 95s-23.334 54.5 -41.001 75.5s-39.334 37.5 -65.001 49.5
s-54.5 18 -86.5 18c-32.667 0 -61.834 -6 -87.501 -18s-47.5 -28.5 -65.5 -49.5s-31.833 -46.167 -41.5 -75.5s-14.5 -61 -14.5 -95s4.83301 -65.5 14.5 -94.5s23.5 -54.333 41.5 -76s39.833 -38.5 65.5 -50.5s54.834 -18 87.501 -18c32 0 60.833 6 86.5 18
s47.334 28.833 65.001 50.5s31.334 47 41.001 76s14.5 60.5 14.5 94.5zM482 752c-17.333 0 -32.6641 1.66699 -45.9971 5s-25.666 6.66602 -36.999 9.99902c-10 3.33301 -19.333 6.16602 -28 8.49902s-17 3.5 -25 3.5c-15.333 0 -26.333 -11.667 -33 -35l-87 16
c2.66699 14 7 27.833 13 41.5s13.5 25.834 22.5 36.501s20.167 19.334 33.5 26.001s29 10 47 10c15.333 0 29.666 -1.5 42.999 -4.5s25.666 -6.16699 36.999 -9.5l29 -9c8.66699 -2.66699 17.667 -4 27 -4c16 0 27.333 11.333 34 34l88 -16
c-2.66699 -14.667 -6.83398 -28.834 -12.501 -42.501s-13.334 -25.667 -23.001 -36s-21.167 -18.666 -34.5 -24.999s-29.333 -9.5 -48 -9.5z" />
    <glyph glyph-name="Odieresis" unicode="&#xd6;" horiz-adv-x="826" 
d="M771 344c0 -51.333 -8.66699 -99 -26 -143s-41.666 -82.167 -72.999 -114.5s-69 -57.666 -113 -75.999s-92.667 -27.5 -146 -27.5s-102 9.16699 -146 27.5s-81.667 43.666 -113 75.999s-55.666 70.5 -72.999 114.5s-26 91.667 -26 143s8.66699 99 26 143
s41.666 82 72.999 114s69 57.167 113 75.5s92.667 27.5 146 27.5s102 -9.16699 146 -27.5s81.667 -43.5 113 -75.5s55.666 -70 72.999 -114s26 -91.667 26 -143zM621 344c0 34 -4.83301 65.667 -14.5 95s-23.334 54.5 -41.001 75.5s-39.334 37.5 -65.001 49.5
s-54.5 18 -86.5 18c-32.667 0 -61.834 -6 -87.501 -18s-47.5 -28.5 -65.5 -49.5s-31.833 -46.167 -41.5 -75.5s-14.5 -61 -14.5 -95s4.83301 -65.5 14.5 -94.5s23.5 -54.333 41.5 -76s39.833 -38.5 65.5 -50.5s54.834 -18 87.501 -18c32 0 60.833 6 86.5 18
s47.334 28.833 65.001 50.5s31.334 47 41.001 76s14.5 60.5 14.5 94.5zM301 734c-10 0 -19.333 1.99805 -28 5.99805s-16.334 9.33301 -23.001 16s-12 14.167 -16 22.5s-6 16.833 -6 25.5s2 17.334 6 26.001s9.33301 16.334 16 23.001s14.334 12 23.001 16s18 6 28 6
c20 0 37.167 -7.33301 51.5 -22s21.5 -31 21.5 -49c0 -8.66699 -2 -17.167 -6 -25.5s-9.16699 -15.833 -15.5 -22.5s-14 -12 -23 -16s-18.5 -6 -28.5 -6zM524 733.998c-10 0 -19.5 2 -28.5 6s-16.833 9.33301 -23.5 16s-12 14.167 -16 22.5s-6 16.833 -6 25.5
c0 18 7.33301 34.333 22 49s32 22 52 22s37.167 -7.33301 51.5 -22s21.5 -31 21.5 -49c0 -8.66699 -2 -17.167 -6 -25.5s-9.16699 -15.833 -15.5 -22.5s-14 -12 -23 -16s-18.5 -6 -28.5 -6z" />
    <glyph glyph-name="multiply" unicode="&#xd7;" horiz-adv-x="652" 
d="M330 250l-81 -90c-16 -18 -32.333 -27 -49 -27c-13.333 0 -27.333 6.66699 -42 20c-12 10 -20.667 20.5 -26 31.5s-8.66602 18.167 -9.99902 21.5l115 128l-99 89c-14 12.667 -21 25.667 -21 39c0 14.667 8 30.667 24 48c9.33301 10.667 19.333 19.334 30 26.001
s17.334 10.667 20.001 12l132 -119l82 92c16 18 32.333 27 49 27c13.333 0 27.333 -6.66699 42 -20c12 -10 20.667 -20.5 26 -31.5s8.66602 -18.167 9.99902 -21.5l-116 -129l98 -88c14 -13.333 21 -26.333 21 -39c0 -14.667 -8 -30.667 -24 -48
c-9.33301 -10.667 -19.333 -19.334 -30 -26.001s-17.334 -10.667 -20.001 -12z" />
    <glyph glyph-name="Oslash" unicode="&#xd8;" horiz-adv-x="826" 
d="M140 -98l66 140.999c-47.333 32 -84.333 74 -111 126s-40 110.333 -40 175c0 51.333 8.66699 99 26 143s41.666 82 72.999 114s69 57.167 113 75.5s92.667 27.5 146 27.5c34.667 0 67.667 -4 99 -12l22 47c5.33301 11.333 13 21.833 23 31.5s25.667 14.5 47 14.5
s38.5 -3.16699 51.5 -9.5s20.833 -10.5 23.5 -12.5l-57 -120c46.667 -32 83.167 -73.667 109.5 -125s39.5 -109.333 39.5 -174c0 -51.333 -8.66699 -99 -26 -143s-41.666 -82.167 -72.999 -114.5s-69 -57.666 -113 -75.999s-92.667 -27.5 -146 -27.5c-34.667 0 -67 4 -97 12
l-44 -93h-132zM205 343.999c0 -36 5.16895 -69 15.502 -99s25.166 -55.667 44.499 -77l193 409c-15.333 3.33301 -30 5 -44 5c-32.667 0 -61.834 -6 -87.501 -18s-47.5 -28.5 -65.5 -49.5s-31.833 -46.167 -41.5 -75.5s-14.5 -61 -14.5 -95zM621.002 343.999
c0 35.333 -5.00293 67.668 -15.0029 97.001s-24.333 54.666 -43 75.999l-193 -408c12.667 -2.66699 27.334 -4 44.001 -4c32 0 60.833 6 86.5 18s47.334 28.833 65.001 50.5s31.334 47 41.001 76s14.5 60.5 14.5 94.5z" />
    <glyph glyph-name="Ugrave" unicode="&#xd9;" horiz-adv-x="774" 
d="M75 623c0 23.333 6.83203 39.833 20.499 49.5s32.167 14.5 55.5 14.5c16.667 0 31.5 -2 44.5 -6s21.167 -6.66699 24.5 -8v-361c0 -32 2.5 -60.833 7.5 -86.5s13.833 -47.667 26.5 -66s29.667 -32.5 51 -42.5s48.666 -15 81.999 -15c32.667 0 59.834 5 81.501 15
s38.834 24.167 51.501 42.5s21.5 40.333 26.5 66s7.5 54.5 7.5 86.5v311c0 23.333 6.83301 39.833 20.5 49.5s32.167 14.5 55.5 14.5c16.667 0 31.5 -2 44.5 -6s21.167 -6.66699 24.5 -8v-376c0 -106.667 -26.5 -185.667 -79.5 -237s-130.5 -77 -232.5 -77
s-179.5 25.667 -232.5 77s-79.5 130.333 -79.5 237v326zM257.999 825c0 1.33301 1.00098 6.16895 3.00098 14.502s5.83301 17.166 11.5 26.499s13.667 17.666 24 24.999s24.166 11 41.499 11c10 0 18.833 -1.83301 26.5 -5.5s17.5 -9.16699 29.5 -16.5l121 -78l-36 -65z" />
    <glyph glyph-name="Uacute" unicode="&#xda;" horiz-adv-x="774" 
d="M75 623c0 23.333 6.83203 39.833 20.499 49.5s32.167 14.5 55.5 14.5c16.667 0 31.5 -2 44.5 -6s21.167 -6.66699 24.5 -8v-361c0 -32 2.5 -60.833 7.5 -86.5s13.833 -47.667 26.5 -66s29.667 -32.5 51 -42.5s48.666 -15 81.999 -15c32.667 0 59.834 5 81.501 15
s38.834 24.167 51.501 42.5s21.5 40.333 26.5 66s7.5 54.5 7.5 86.5v311c0 23.333 6.83301 39.833 20.5 49.5s32.167 14.5 55.5 14.5c16.667 0 31.5 -2 44.5 -6s21.167 -6.66699 24.5 -8v-376c0 -106.667 -26.5 -185.667 -79.5 -237s-130.5 -77 -232.5 -77
s-179.5 25.667 -232.5 77s-79.5 130.333 -79.5 237v326zM331.999 737l-36.002 64.9971l121 78c12 7.33301 21.833 12.833 29.5 16.5s16.5 5.5 26.5 5.5c16.667 0 30.334 -3.66699 41.001 -11s18.834 -15.666 24.501 -24.999s9.5 -18.166 11.5 -26.499s3 -13.166 3 -14.499z
" />
    <glyph glyph-name="Ucircumflex" unicode="&#xdb;" horiz-adv-x="774" 
d="M75 623c0 23.333 6.83203 39.833 20.499 49.5s32.167 14.5 55.5 14.5c16.667 0 31.5 -2 44.5 -6s21.167 -6.66699 24.5 -8v-361c0 -32 2.5 -60.833 7.5 -86.5s13.833 -47.667 26.5 -66s29.667 -32.5 51 -42.5s48.666 -15 81.999 -15c32.667 0 59.834 5 81.501 15
s38.834 24.167 51.501 42.5s21.5 40.333 26.5 66s7.5 54.5 7.5 86.5v311c0 23.333 6.83301 39.833 20.5 49.5s32.167 14.5 55.5 14.5c16.667 0 31.5 -2 44.5 -6s21.167 -6.66699 24.5 -8v-376c0 -106.667 -26.5 -185.667 -79.5 -237s-130.5 -77 -232.5 -77
s-179.5 25.667 -232.5 77s-79.5 130.333 -79.5 237v326zM396.999 902c14 0 27.667 -3.66699 41 -11s25 -15.666 35 -24.999l94 -76l-39 -53l-131 68l-133 -68l-38 53l95 76c11.333 9.33301 22.833 17.666 34.5 24.999s25.5 11 41.5 11z" />
    <glyph glyph-name="Udieresis" unicode="&#xdc;" horiz-adv-x="774" 
d="M75 623c0 23.333 6.83203 39.833 20.499 49.5s32.167 14.5 55.5 14.5c16.667 0 31.5 -2 44.5 -6s21.167 -6.66699 24.5 -8v-361c0 -32 2.5 -60.833 7.5 -86.5s13.833 -47.667 26.5 -66s29.667 -32.5 51 -42.5s48.666 -15 81.999 -15c32.667 0 59.834 5 81.501 15
s38.834 24.167 51.501 42.5s21.5 40.333 26.5 66s7.5 54.5 7.5 86.5v311c0 23.333 6.83301 39.833 20.5 49.5s32.167 14.5 55.5 14.5c16.667 0 31.5 -2 44.5 -6s21.167 -6.66699 24.5 -8v-376c0 -106.667 -26.5 -185.667 -79.5 -237s-130.5 -77 -232.5 -77
s-179.5 25.667 -232.5 77s-79.5 130.333 -79.5 237v326zM287.999 734c-10 0 -19.333 1.99805 -28 5.99805s-16.334 9.33301 -23.001 16s-12 14.167 -16 22.5s-6 16.833 -6 25.5s2 17.334 6 26.001s9.33301 16.334 16 23.001s14.334 12 23.001 16s18 6 28 6
c20 0 37.167 -7.33301 51.5 -22s21.5 -31 21.5 -49c0 -8.66699 -2 -17.167 -6 -25.5s-9.16699 -15.833 -15.5 -22.5s-14 -12 -23 -16s-18.5 -6 -28.5 -6zM510.999 733.998c-10 0 -19.5 2 -28.5 6s-16.833 9.33301 -23.5 16s-12 14.167 -16 22.5s-6 16.833 -6 25.5
c0 18 7.33301 34.333 22 49s32 22 52 22s37.167 -7.33301 51.5 -22s21.5 -31 21.5 -49c0 -8.66699 -2 -17.167 -6 -25.5s-9.16699 -15.833 -15.5 -22.5s-14 -12 -23 -16s-18.5 -6 -28.5 -6z" />
    <glyph glyph-name="Yacute" unicode="&#xdd;" horiz-adv-x="688" 
d="M56 526c-12 16 -22.6689 31.8311 -32.002 47.498s-14 31.167 -14 46.5c0 8 1 15.833 3 23.5s5.66699 14.834 11 21.501s12.333 12 21 16s20 6 34 6c20 0 35.333 -2.5 46 -7.5s17.334 -8.5 20.001 -10.5c2 -3.33301 10 -15.666 24 -36.999l50 -76.5l62 -92.5l59 -84
l75 111.5l73 114.5l22.5 33.5c7 10.333 14.5 19 22.5 26s17 12.5 27 16.5s21.667 6 35 6c11.333 0 21.833 -1.5 31.5 -4.5s18.167 -6.33301 25.5 -10s13.333 -7.16699 18 -10.5s7.33398 -5.33301 8.00098 -6l-22 -36.5l-38.5 -62.5l-49.5 -78l-54.5 -83l-53.5 -78.5
c-17.333 -25 -33 -46.167 -47 -63.5v-254h-152v254l-56.5 72.5l-57 75.5l-51.5 69.5zM285.998 749.998l-41 61l104 82c10.667 8 19.667 14 27 18s16 6 26 6c14.667 0 26.5 -3.33301 35.5 -10s16.167 -14.167 21.5 -22.5s9 -16.333 11 -24s3 -12.167 3 -13.5z" />
    <glyph glyph-name="Thorn" unicode="&#xde;" horiz-adv-x="654" 
d="M230 579l137.999 0.000976562c40 0 74.833 -6.66699 104.5 -20s54.334 -30.833 74.001 -52.5s34.167 -46.667 43.5 -75s14 -57.5 14 -87.5c0 -29.333 -4.5 -58 -13.5 -86s-24.167 -53 -45.5 -75s-49.666 -39.667 -84.999 -53s-79.666 -20 -132.999 -20
c-24.667 0 -45.834 1.16699 -63.501 3.5s-28.834 4.16602 -33.501 5.49902v-119h-145v623c0 23.333 6.83301 39.833 20.5 49.5s32.167 14.5 55.5 14.5c16.667 0 31.5 -2 44.5 -6s21.167 -6.66699 24.5 -8v-94zM456.999 343.001c0 14 -1.83008 28.1689 -5.49707 42.502
s-9.83398 27.166 -18.501 38.499s-20.334 20.666 -35.001 27.999s-33 11 -55 11h-113v-232c8.66699 -1.33301 20.167 -2.66602 34.5 -3.99902s29.166 -2 44.499 -2c30 0 54.5 3.66699 73.5 11s34 16.666 45 27.999s18.667 24 23 38s6.5 27.667 6.5 41z" />
    <glyph glyph-name="germandbls" unicode="&#xdf;" horiz-adv-x="649" 
d="M281 449l16.9961 0.00585938c12 0 23.5 1.66699 34.5 5s20.833 8.66602 29.5 15.999s15.5 17 20.5 29s7.5 26.667 7.5 44c0 28.667 -8 51.167 -24 67.5s-36.667 24.5 -62 24.5c-33.333 0 -56.333 -10.333 -69 -31s-19 -48.334 -19 -83.001v-521h-140v522
c0 26 3.16699 51.833 9.5 77.5s18 48.667 35 69s40.5 36.833 70.5 49.5s68.667 19 116 19c44 0 80.167 -5.5 108.5 -16.5s50.833 -25.333 67.5 -43s28.334 -37.167 35.001 -58.5s10 -42.333 10 -63c0 -37.333 -8.16699 -68 -24.5 -92s-34.166 -40.333 -53.499 -49
c18.667 -4 37 -10.5 55 -19.5s34 -21.667 48 -38s25.167 -36.5 33.5 -60.5s12.5 -52.667 12.5 -86c0 -36.667 -5.83301 -68.834 -17.5 -96.501s-27.5 -50.667 -47.5 -69s-43.833 -32 -71.5 -41s-57.5 -13.5 -89.5 -13.5c-31.333 0 -55.5 2 -72.5 6s-26.833 6.66699 -29.5 8
l17 104c3.33301 -1.33301 11 -3 23 -5s24 -3 36 -3c20 0 36.833 3.16699 50.5 9.5s24.834 14.666 33.501 24.999s14.834 21.833 18.501 34.5s5.5 25.667 5.5 39c0 18 -2.33301 34.667 -7 50s-12.667 28.666 -24 39.999s-26.333 20.166 -45 26.499s-42 9.5 -70 9.5h-28v114z
" />
    <glyph glyph-name="agrave" unicode="&#xe0;" horiz-adv-x="604" 
d="M530 4c-2 -0.666992 -9.3291 -2.00098 -21.9961 -4.00098s-29.5 -4 -50.5 -6s-45.833 -3.83301 -74.5 -5.5s-60 -2.5 -94 -2.5c-49.333 0 -89.833 4.16699 -121.5 12.5s-56.834 19.833 -75.501 34.5s-31.5 31.834 -38.5 51.501s-10.5 41.167 -10.5 64.5
c0 28.667 4.33301 53.667 13 75s22.667 38.833 42 52.5s44.166 23.834 74.499 30.501s67.166 10 110.499 10c30 0 55 -0.833008 75 -2.5s31.667 -2.83398 35 -3.50098v16c0 31.333 -10.667 55.333 -32 72s-54.333 25 -99 25c-20 0 -37.667 -1.83301 -53 -5.5
s-28.5 -8 -39.5 -13s-20.333 -10 -28 -15s-13.834 -8.83301 -18.501 -11.5c-9.33301 5.33301 -17.666 13.833 -24.999 25.5s-11 24.834 -11 39.501s4.66699 27.167 14 37.5s21.833 18.666 37.5 24.999s33.667 10.833 54 13.5s41.166 4 62.499 4
c40.667 0 77.834 -3.5 111.501 -10.5s62.667 -19 87 -36s43.166 -39.667 56.499 -68s20 -63.833 20 -106.5v-299zM392.004 223.999c-2 0.666992 -6.00098 1.33398 -12.001 2.00098s-13.333 1.33398 -22 2.00098s-18.167 1.16699 -28.5 1.5s-20.833 0.5 -31.5 0.5
c-24.667 0 -44.667 -2 -60 -6s-27.166 -9.5 -35.499 -16.5s-14 -15.333 -17 -25s-4.5 -19.834 -4.5 -30.501c0 -9.33301 1.33301 -18.333 4 -27s8.16699 -16.5 16.5 -23.5s20 -12.667 35 -17s34.5 -6.5 58.5 -6.5c25.333 0 46.333 1.16699 63 3.5s28 4.16602 34 5.49902v137
zM174.003 666.999c0 1.33301 1 5.83301 3 13.5s5.66699 15.667 11 24s12.5 15.833 21.5 22.5s20.833 10 35.5 10c10 0 18.667 -2 26 -6s16.333 -10 27 -18l104 -82l-41 -61z" />
    <glyph glyph-name="aacute" unicode="&#xe1;" horiz-adv-x="604" 
d="M530 4c-2 -0.666992 -9.3291 -2.00098 -21.9961 -4.00098s-29.5 -4 -50.5 -6s-45.833 -3.83301 -74.5 -5.5s-60 -2.5 -94 -2.5c-49.333 0 -89.833 4.16699 -121.5 12.5s-56.834 19.833 -75.501 34.5s-31.5 31.834 -38.5 51.501s-10.5 41.167 -10.5 64.5
c0 28.667 4.33301 53.667 13 75s22.667 38.833 42 52.5s44.166 23.834 74.499 30.501s67.166 10 110.499 10c30 0 55 -0.833008 75 -2.5s31.667 -2.83398 35 -3.50098v16c0 31.333 -10.667 55.333 -32 72s-54.333 25 -99 25c-20 0 -37.667 -1.83301 -53 -5.5
s-28.5 -8 -39.5 -13s-20.333 -10 -28 -15s-13.834 -8.83301 -18.501 -11.5c-9.33301 5.33301 -17.666 13.833 -24.999 25.5s-11 24.834 -11 39.501s4.66699 27.167 14 37.5s21.833 18.666 37.5 24.999s33.667 10.833 54 13.5s41.166 4 62.499 4
c40.667 0 77.834 -3.5 111.501 -10.5s62.667 -19 87 -36s43.166 -39.667 56.499 -68s20 -63.833 20 -106.5v-299zM392.004 223.999c-2 0.666992 -6.00098 1.33398 -12.001 2.00098s-13.333 1.33398 -22 2.00098s-18.167 1.16699 -28.5 1.5s-20.833 0.5 -31.5 0.5
c-24.667 0 -44.667 -2 -60 -6s-27.166 -9.5 -35.499 -16.5s-14 -15.333 -17 -25s-4.5 -19.834 -4.5 -30.501c0 -9.33301 1.33301 -18.333 4 -27s8.16699 -16.5 16.5 -23.5s20 -12.667 35 -17s34.5 -6.5 58.5 -6.5c25.333 0 46.333 1.16699 63 3.5s28 4.16602 34 5.49902v137
zM267.003 569.999l-41 61l104 82c10.667 8 19.667 14 27 18s16 6 26 6c14.667 0 26.5 -3.33301 35.5 -10s16.167 -14.167 21.5 -22.5s9 -16.333 11 -24s3 -12.167 3 -13.5z" />
    <glyph glyph-name="acircumflex" unicode="&#xe2;" horiz-adv-x="604" 
d="M530 4c-2 -0.666992 -9.3291 -2.00098 -21.9961 -4.00098s-29.5 -4 -50.5 -6s-45.833 -3.83301 -74.5 -5.5s-60 -2.5 -94 -2.5c-49.333 0 -89.833 4.16699 -121.5 12.5s-56.834 19.833 -75.501 34.5s-31.5 31.834 -38.5 51.501s-10.5 41.167 -10.5 64.5
c0 28.667 4.33301 53.667 13 75s22.667 38.833 42 52.5s44.166 23.834 74.499 30.501s67.166 10 110.499 10c30 0 55 -0.833008 75 -2.5s31.667 -2.83398 35 -3.50098v16c0 31.333 -10.667 55.333 -32 72s-54.333 25 -99 25c-20 0 -37.667 -1.83301 -53 -5.5
s-28.5 -8 -39.5 -13s-20.333 -10 -28 -15s-13.834 -8.83301 -18.501 -11.5c-9.33301 5.33301 -17.666 13.833 -24.999 25.5s-11 24.834 -11 39.501s4.66699 27.167 14 37.5s21.833 18.666 37.5 24.999s33.667 10.833 54 13.5s41.166 4 62.499 4
c40.667 0 77.834 -3.5 111.501 -10.5s62.667 -19 87 -36s43.166 -39.667 56.499 -68s20 -63.833 20 -106.5v-299zM392.004 223.999c-2 0.666992 -6.00098 1.33398 -12.001 2.00098s-13.333 1.33398 -22 2.00098s-18.167 1.16699 -28.5 1.5s-20.833 0.5 -31.5 0.5
c-24.667 0 -44.667 -2 -60 -6s-27.166 -9.5 -35.499 -16.5s-14 -15.333 -17 -25s-4.5 -19.834 -4.5 -30.501c0 -9.33301 1.33301 -18.333 4 -27s8.16699 -16.5 16.5 -23.5s20 -12.667 35 -17s34.5 -6.5 58.5 -6.5c25.333 0 46.333 1.16699 63 3.5s28 4.16602 34 5.49902v137
zM308.003 736.999c14.667 0 27.499 -3.5 38.499 -10.5s21.167 -15.167 30.5 -24.5l84 -81l-48 -52l-105 76l-105 -76l-48 52l85 81c9.33301 9.33301 19.333 17.5 30 24.5s23.334 10.5 38.001 10.5z" />
    <glyph glyph-name="atilde" unicode="&#xe3;" horiz-adv-x="604" 
d="M530 4c-2 -0.666992 -9.3291 -2.00098 -21.9961 -4.00098s-29.5 -4 -50.5 -6s-45.833 -3.83301 -74.5 -5.5s-60 -2.5 -94 -2.5c-49.333 0 -89.833 4.16699 -121.5 12.5s-56.834 19.833 -75.501 34.5s-31.5 31.834 -38.5 51.501s-10.5 41.167 -10.5 64.5
c0 28.667 4.33301 53.667 13 75s22.667 38.833 42 52.5s44.166 23.834 74.499 30.501s67.166 10 110.499 10c30 0 55 -0.833008 75 -2.5s31.667 -2.83398 35 -3.50098v16c0 31.333 -10.667 55.333 -32 72s-54.333 25 -99 25c-20 0 -37.667 -1.83301 -53 -5.5
s-28.5 -8 -39.5 -13s-20.333 -10 -28 -15s-13.834 -8.83301 -18.501 -11.5c-9.33301 5.33301 -17.666 13.833 -24.999 25.5s-11 24.834 -11 39.501s4.66699 27.167 14 37.5s21.833 18.666 37.5 24.999s33.667 10.833 54 13.5s41.166 4 62.499 4
c40.667 0 77.834 -3.5 111.501 -10.5s62.667 -19 87 -36s43.166 -39.667 56.499 -68s20 -63.833 20 -106.5v-299zM392.004 223.999c-2 0.666992 -6.00098 1.33398 -12.001 2.00098s-13.333 1.33398 -22 2.00098s-18.167 1.16699 -28.5 1.5s-20.833 0.5 -31.5 0.5
c-24.667 0 -44.667 -2 -60 -6s-27.166 -9.5 -35.499 -16.5s-14 -15.333 -17 -25s-4.5 -19.834 -4.5 -30.501c0 -9.33301 1.33301 -18.333 4 -27s8.16699 -16.5 16.5 -23.5s20 -12.667 35 -17s34.5 -6.5 58.5 -6.5c25.333 0 46.333 1.16699 63 3.5s28 4.16602 34 5.49902v137
zM276.003 597.999c-6 2 -12.333 3.66797 -19 5.00098s-13 2 -19 2c-16.667 0 -28.334 -11.667 -35.001 -35l-84 16c2.66699 14 6.83398 27.667 12.501 41s13.167 25.166 22.5 35.499s20.5 18.666 33.5 24.999s28.5 9.5 46.5 9.5c15.333 0 29.833 -1.5 43.5 -4.5
s27.5 -6.83301 41.5 -11.5l16 -5c5.33301 -1.33301 11 -2.66602 17 -3.99902s12.333 -2 19 -2c17.333 0 29.333 11.333 36 34l84 -16c-2.66699 -14 -6.83398 -27.667 -12.501 -41s-13.167 -25 -22.5 -35s-20.666 -18.167 -33.999 -24.5s-29 -9.5 -47 -9.5
c-14 0 -27 1.16699 -39 3.5s-24.333 5.5 -37 9.5z" />
    <glyph glyph-name="adieresis" unicode="&#xe4;" horiz-adv-x="604" 
d="M530 4c-2 -0.666992 -9.3291 -2.00098 -21.9961 -4.00098s-29.5 -4 -50.5 -6s-45.833 -3.83301 -74.5 -5.5s-60 -2.5 -94 -2.5c-49.333 0 -89.833 4.16699 -121.5 12.5s-56.834 19.833 -75.501 34.5s-31.5 31.834 -38.5 51.501s-10.5 41.167 -10.5 64.5
c0 28.667 4.33301 53.667 13 75s22.667 38.833 42 52.5s44.166 23.834 74.499 30.501s67.166 10 110.499 10c30 0 55 -0.833008 75 -2.5s31.667 -2.83398 35 -3.50098v16c0 31.333 -10.667 55.333 -32 72s-54.333 25 -99 25c-20 0 -37.667 -1.83301 -53 -5.5
s-28.5 -8 -39.5 -13s-20.333 -10 -28 -15s-13.834 -8.83301 -18.501 -11.5c-9.33301 5.33301 -17.666 13.833 -24.999 25.5s-11 24.834 -11 39.501s4.66699 27.167 14 37.5s21.833 18.666 37.5 24.999s33.667 10.833 54 13.5s41.166 4 62.499 4
c40.667 0 77.834 -3.5 111.501 -10.5s62.667 -19 87 -36s43.166 -39.667 56.499 -68s20 -63.833 20 -106.5v-299zM392.004 223.999c-2 0.666992 -6.00098 1.33398 -12.001 2.00098s-13.333 1.33398 -22 2.00098s-18.167 1.16699 -28.5 1.5s-20.833 0.5 -31.5 0.5
c-24.667 0 -44.667 -2 -60 -6s-27.166 -9.5 -35.499 -16.5s-14 -15.333 -17 -25s-4.5 -19.834 -4.5 -30.501c0 -9.33301 1.33301 -18.333 4 -27s8.16699 -16.5 16.5 -23.5s20 -12.667 35 -17s34.5 -6.5 58.5 -6.5c25.333 0 46.333 1.16699 63 3.5s28 4.16602 34 5.49902v137
zM197.003 569.999c-9.33301 0 -18.333 2 -27 6s-16.334 9.16699 -23.001 15.5s-12 13.666 -16 21.999s-6 16.833 -6 25.5s2 17.167 6 25.5s9.33301 15.666 16 21.999s14.334 11.5 23.001 15.5s17.667 6 27 6c10 0 19.167 -2 27.5 -6s15.833 -9.16699 22.5 -15.5
s11.834 -13.666 15.501 -21.999s5.5 -16.833 5.5 -25.5s-1.83301 -17.167 -5.5 -25.5s-8.83398 -15.666 -15.501 -21.999s-14.167 -11.5 -22.5 -15.5s-17.5 -6 -27.5 -6zM411.003 569.999c-10 0 -19.333 2 -28 6s-16.167 9.16699 -22.5 15.5s-11.5 13.666 -15.5 21.999
s-6 16.833 -6 25.5s2 17.167 6 25.5s9.16699 15.666 15.5 21.999s13.833 11.5 22.5 15.5s18 6 28 6s19.167 -2 27.5 -6s15.833 -9.16699 22.5 -15.5s11.834 -13.666 15.501 -21.999s5.5 -16.833 5.5 -25.5s-1.83301 -17.167 -5.5 -25.5s-8.83398 -15.666 -15.501 -21.999
s-14.167 -11.5 -22.5 -15.5s-17.5 -6 -27.5 -6z" />
    <glyph glyph-name="aring" unicode="&#xe5;" horiz-adv-x="604" 
d="M530 4c-2 -0.666992 -9.3291 -2.00098 -21.9961 -4.00098s-29.5 -4 -50.5 -6s-45.833 -3.83301 -74.5 -5.5s-60 -2.5 -94 -2.5c-49.333 0 -89.833 4.16699 -121.5 12.5s-56.834 19.833 -75.501 34.5s-31.5 31.834 -38.5 51.501s-10.5 41.167 -10.5 64.5
c0 28.667 4.33301 53.667 13 75s22.667 38.833 42 52.5s44.166 23.834 74.499 30.501s67.166 10 110.499 10c30 0 55 -0.833008 75 -2.5s31.667 -2.83398 35 -3.50098v16c0 31.333 -10.667 55.333 -32 72s-54.333 25 -99 25c-20 0 -37.667 -1.83301 -53 -5.5
s-28.5 -8 -39.5 -13s-20.333 -10 -28 -15s-13.834 -8.83301 -18.501 -11.5c-9.33301 5.33301 -17.666 13.833 -24.999 25.5s-11 24.834 -11 39.501s4.66699 27.167 14 37.5s21.833 18.666 37.5 24.999s33.667 10.833 54 13.5s41.166 4 62.499 4
c40.667 0 77.834 -3.5 111.501 -10.5s62.667 -19 87 -36s43.166 -39.667 56.499 -68s20 -63.833 20 -106.5v-299zM392.004 223.999c-2 0.666992 -6.00098 1.33398 -12.001 2.00098s-13.333 1.33398 -22 2.00098s-18.167 1.16699 -28.5 1.5s-20.833 0.5 -31.5 0.5
c-24.667 0 -44.667 -2 -60 -6s-27.166 -9.5 -35.499 -16.5s-14 -15.333 -17 -25s-4.5 -19.834 -4.5 -30.501c0 -9.33301 1.33301 -18.333 4 -27s8.16699 -16.5 16.5 -23.5s20 -12.667 35 -17s34.5 -6.5 58.5 -6.5c25.333 0 46.333 1.16699 63 3.5s28 4.16602 34 5.49902v137
zM209.003 665.999c0 14 2.66699 27 8 39s12.666 22.667 21.999 32s20.333 16.666 33 21.999s26 8 40 8s27.333 -2.66699 40 -8s23.667 -12.666 33 -21.999s16.666 -20 21.999 -32s8 -25 8 -39s-2.66699 -27 -8 -39s-12.666 -22.667 -21.999 -32s-20.333 -16.666 -33 -21.999
s-26 -8 -40 -8s-27.333 2.66699 -40 8s-23.667 12.666 -33 21.999s-16.666 20 -21.999 32s-8 25 -8 39zM266.003 665.999c0 -14 4.16699 -25.5 12.5 -34.5s19.5 -13.5 33.5 -13.5s25.167 4.5 33.5 13.5s12.5 20.5 12.5 34.5s-4.16699 25.5 -12.5 34.5s-19.5 13.5 -33.5 13.5
s-25.167 -4.5 -33.5 -13.5s-12.5 -20.5 -12.5 -34.5z" />
    <glyph glyph-name="ae" unicode="&#xe6;" horiz-adv-x="940" 
d="M895 330c0 -20.667 -2.83301 -39.333 -8.5 -56s-14.667 -30.834 -27 -42.501s-28.666 -20.667 -48.999 -27s-45.5 -9.5 -75.5 -9.5h-200c6 -27.333 22 -50.5 48 -69.5s60.333 -28.5 103 -28.5s75.5 3.16699 98.5 9.5s37.167 10.833 42.5 13.5l38 -99
c-1.33301 -1.33301 -7 -4 -17 -8s-23.5 -8.16699 -40.5 -12.5s-37.167 -8.33301 -60.5 -12s-49.333 -5.5 -78 -5.5c-36 0 -70 5.33301 -102 16s-60 24.667 -84 42c-21.333 -14 -49.166 -26.667 -83.499 -38s-75.833 -17 -124.5 -17c-44 0 -80.833 4.16699 -110.5 12.5
s-53.5 19.833 -71.5 34.5s-30.833 31.834 -38.5 51.501s-11.5 41.167 -11.5 64.5c0 28.667 4.33301 53.667 13 75s22.667 38.833 42 52.5s44.166 23.834 74.499 30.501s67.166 10 110.499 10c30 0 55 -0.833008 75 -2.5s31.667 -2.83398 35 -3.50098v16
c0 31.333 -10.667 55.333 -32 72s-54.333 25 -99 25c-20 0 -37.667 -1.83301 -53 -5.5s-28.5 -8 -39.5 -13s-20.333 -10 -28 -15s-13.834 -8.83301 -18.501 -11.5c-9.33301 5.33301 -17.666 13.833 -24.999 25.5s-11 24.834 -11 39.501s4.83301 27.167 14.5 37.5
s22.5 18.666 38.5 24.999s34.5 10.833 55.5 13.5s43.167 4 66.5 4c50 0 92 -5.66699 126 -17s63 -32.333 87 -63c19.333 24.667 46.166 44.667 80.499 60s72.833 23 115.5 23c36.667 0 68.834 -5.16699 96.501 -15.5s51 -24.5 70 -42.5s33.333 -39 43 -63
s14.5 -49.333 14.5 -76zM421 111.001c-9.33301 15.333 -16.167 32.168 -20.5 50.501s-6.5 39.166 -6.5 62.499c-2 0.666992 -6 1.33398 -12 2.00098s-13.5 1.33398 -22.5 2.00098s-18.833 1.16699 -29.5 1.5s-21.334 0.5 -32.001 0.5c-24.667 0 -44.667 -2 -60 -6
s-27.166 -9.5 -35.499 -16.5s-14 -15.333 -17 -25s-4.5 -19.834 -4.5 -30.501c0 -9.33301 1.33301 -18.333 4 -27s8 -16.5 16 -23.5s19 -12.667 33 -17s32.667 -6.5 56 -6.5c34 0 62 4.16699 84 12.5s37.667 15.166 47 20.499zM762.999 342.003
c0 9.33301 -1.66602 19.3311 -4.99902 29.998s-9 20.334 -17 29.001s-18.333 15.834 -31 21.501s-28.334 8.5 -47.001 8.5c-22.667 0 -42.167 -4.66699 -58.5 -14s-30 -21 -41 -35s-19.167 -29.333 -24.5 -46s-8 -32.667 -8 -48h179c22 0 36.333 4.5 43 13.5
s10 22.5 10 40.5z" />
    <glyph glyph-name="ccedilla" unicode="&#xe7;" horiz-adv-x="555" 
d="M338 411c-42.667 0 -77.6689 -13.499 -105.002 -40.499s-41 -65.5 -41 -115.5c0 -26 3.83301 -48.833 11.5 -68.5s18 -36 31 -49s28 -22.833 45 -29.5s35.167 -10 54.5 -10c18.667 0 35.5 2 50.5 6s28 8.5 39 13.5s19.5 9.66699 25.5 14s9.66699 7.16602 11 8.49902
l60 -93c-6.66699 -5.33301 -15.667 -11.5 -27 -18.5s-25.333 -13.667 -42 -20s-35.834 -11.666 -57.501 -15.999s-46.5 -6.5 -74.5 -6.5c-36.667 0 -71.334 5.83301 -104.001 17.5s-61.167 29 -85.5 52s-43.666 51.167 -57.999 84.5s-21.5 71.666 -21.5 114.999
c0 42 7.16699 79.5 21.5 112.5s33.833 61.167 58.5 84.5s53.5 41.166 86.5 53.499s68.5 18.5 106.5 18.5c46.667 0 82.5 -4.5 107.5 -13.5s42.5 -17.167 52.5 -24.5c9.33301 -6.66699 17 -14.667 23 -24s9 -20.666 9 -33.999c0 -10.667 -3.66699 -23.167 -11 -37.5
s-17.666 -26.833 -30.999 -37.5c-3.33301 3.33301 -8.66602 8.33301 -15.999 15s-16.5 13.167 -27.5 19.5s-24.167 11.833 -39.5 16.5s-32.666 7 -51.999 7zM259.998 -35.999c14.667 -0.666992 30.498 -2.49707 47.498 -5.49707s32.5 -7.83301 46.5 -14.5
s25.667 -15.334 35 -26.001s14 -24.334 14 -41.001c0 -29.333 -11.833 -52.333 -35.5 -69s-55.834 -25 -96.501 -25c-20.667 0 -38.667 1.16699 -54 3.5s-28.166 5 -38.499 8s-18.333 5.83301 -24 8.5l-10.5 5l27 63c0.666992 -0.666992 4 -2 10 -4s13.333 -4 22 -6
s17.834 -3.83301 27.501 -5.5s19.167 -2.5 28.5 -2.5c16 0 27.333 1.5 34 4.5s10 9.16699 10 18.5c0 5.33301 -2.33301 9.66602 -7 12.999s-10.5 6 -17.5 8s-14.167 3.5 -21.5 4.5s-13.666 1.5 -18.999 1.5z" />
    <glyph glyph-name="egrave" unicode="&#xe8;" horiz-adv-x="599" 
d="M554 330c0 -20.667 -2.83398 -39.3301 -8.50098 -55.9971s-14.667 -30.834 -27 -42.501s-28.666 -20.667 -48.999 -27s-45.5 -9.5 -75.5 -9.5h-200c6 -27.333 22 -50.5 48 -69.5s60.333 -28.5 103 -28.5s75.5 3.16699 98.5 9.5s37.167 10.833 42.5 13.5l38 -99
c-1.33301 -1.33301 -7 -4 -17 -8s-23.5 -8.16699 -40.5 -12.5s-37.167 -8.33301 -60.5 -12s-49.333 -5.5 -78 -5.5c-40 0 -76.833 5.33301 -110.5 16s-63 27 -88 49s-44.5 49.667 -58.5 83s-21 72.666 -21 117.999c0 42 6.5 80 19.5 114s31.333 63.167 55 87.5
s52.167 43.166 85.5 56.499s70.333 20 111 20c38 0 71.5 -5.16699 100.5 -15.5s53.333 -24.5 73 -42.5s34.5 -39 44.5 -63s15 -49.333 15 -76zM421.999 342.004c0 9.33301 -1.83398 19.3311 -5.50098 29.998s-9.5 20.334 -17.5 29.001s-18.667 15.834 -32 21.501
s-29.666 8.5 -48.999 8.5c-21.333 0 -40 -4.66699 -56 -14s-29.333 -21 -40 -35s-18.667 -29.333 -24 -46s-8 -32.667 -8 -48h179c22 0 36.333 4.5 43 13.5s10 22.5 10 40.5zM205.998 667.002c0 1.33301 1 5.83301 3 13.5s5.66699 15.667 11 24s12.5 15.833 21.5 22.5
s20.833 10 35.5 10c10 0 18.667 -2 26 -6s16.333 -10 27 -18l104 -82l-41 -61z" />
    <glyph glyph-name="eacute" unicode="&#xe9;" horiz-adv-x="599" 
d="M554 330c0 -20.667 -2.83398 -39.3301 -8.50098 -55.9971s-14.667 -30.834 -27 -42.501s-28.666 -20.667 -48.999 -27s-45.5 -9.5 -75.5 -9.5h-200c6 -27.333 22 -50.5 48 -69.5s60.333 -28.5 103 -28.5s75.5 3.16699 98.5 9.5s37.167 10.833 42.5 13.5l38 -99
c-1.33301 -1.33301 -7 -4 -17 -8s-23.5 -8.16699 -40.5 -12.5s-37.167 -8.33301 -60.5 -12s-49.333 -5.5 -78 -5.5c-40 0 -76.833 5.33301 -110.5 16s-63 27 -88 49s-44.5 49.667 -58.5 83s-21 72.666 -21 117.999c0 42 6.5 80 19.5 114s31.333 63.167 55 87.5
s52.167 43.166 85.5 56.499s70.333 20 111 20c38 0 71.5 -5.16699 100.5 -15.5s53.333 -24.5 73 -42.5s34.5 -39 44.5 -63s15 -49.333 15 -76zM421.999 342.004c0 9.33301 -1.83398 19.3311 -5.50098 29.998s-9.5 20.334 -17.5 29.001s-18.667 15.834 -32 21.501
s-29.666 8.5 -48.999 8.5c-21.333 0 -40 -4.66699 -56 -14s-29.333 -21 -40 -35s-18.667 -29.333 -24 -46s-8 -32.667 -8 -48h179c22 0 36.333 4.5 43 13.5s10 22.5 10 40.5zM281.998 570.002l-41 61l104 82c10.667 8 19.667 14 27 18s16 6 26 6
c14.667 0 26.5 -3.33301 35.5 -10s16.167 -14.167 21.5 -22.5s9 -16.333 11 -24s3 -12.167 3 -13.5z" />
    <glyph glyph-name="ecircumflex" unicode="&#xea;" horiz-adv-x="599" 
d="M554 330c0 -20.667 -2.83398 -39.3301 -8.50098 -55.9971s-14.667 -30.834 -27 -42.501s-28.666 -20.667 -48.999 -27s-45.5 -9.5 -75.5 -9.5h-200c6 -27.333 22 -50.5 48 -69.5s60.333 -28.5 103 -28.5s75.5 3.16699 98.5 9.5s37.167 10.833 42.5 13.5l38 -99
c-1.33301 -1.33301 -7 -4 -17 -8s-23.5 -8.16699 -40.5 -12.5s-37.167 -8.33301 -60.5 -12s-49.333 -5.5 -78 -5.5c-40 0 -76.833 5.33301 -110.5 16s-63 27 -88 49s-44.5 49.667 -58.5 83s-21 72.666 -21 117.999c0 42 6.5 80 19.5 114s31.333 63.167 55 87.5
s52.167 43.166 85.5 56.499s70.333 20 111 20c38 0 71.5 -5.16699 100.5 -15.5s53.333 -24.5 73 -42.5s34.5 -39 44.5 -63s15 -49.333 15 -76zM421.999 342.004c0 9.33301 -1.83398 19.3311 -5.50098 29.998s-9.5 20.334 -17.5 29.001s-18.667 15.834 -32 21.501
s-29.666 8.5 -48.999 8.5c-21.333 0 -40 -4.66699 -56 -14s-29.333 -21 -40 -35s-18.667 -29.333 -24 -46s-8 -32.667 -8 -48h179c22 0 36.333 4.5 43 13.5s10 22.5 10 40.5zM324.998 737.002c14.667 0 27.499 -3.5 38.499 -10.5s21.167 -15.167 30.5 -24.5l84 -81l-48 -52
l-105 76l-105 -76l-48 52l85 81c9.33301 9.33301 19.333 17.5 30 24.5s23.334 10.5 38.001 10.5z" />
    <glyph glyph-name="edieresis" unicode="&#xeb;" horiz-adv-x="599" 
d="M554 330c0 -20.667 -2.83398 -39.3301 -8.50098 -55.9971s-14.667 -30.834 -27 -42.501s-28.666 -20.667 -48.999 -27s-45.5 -9.5 -75.5 -9.5h-200c6 -27.333 22 -50.5 48 -69.5s60.333 -28.5 103 -28.5s75.5 3.16699 98.5 9.5s37.167 10.833 42.5 13.5l38 -99
c-1.33301 -1.33301 -7 -4 -17 -8s-23.5 -8.16699 -40.5 -12.5s-37.167 -8.33301 -60.5 -12s-49.333 -5.5 -78 -5.5c-40 0 -76.833 5.33301 -110.5 16s-63 27 -88 49s-44.5 49.667 -58.5 83s-21 72.666 -21 117.999c0 42 6.5 80 19.5 114s31.333 63.167 55 87.5
s52.167 43.166 85.5 56.499s70.333 20 111 20c38 0 71.5 -5.16699 100.5 -15.5s53.333 -24.5 73 -42.5s34.5 -39 44.5 -63s15 -49.333 15 -76zM421.999 342.004c0 9.33301 -1.83398 19.3311 -5.50098 29.998s-9.5 20.334 -17.5 29.001s-18.667 15.834 -32 21.501
s-29.666 8.5 -48.999 8.5c-21.333 0 -40 -4.66699 -56 -14s-29.333 -21 -40 -35s-18.667 -29.333 -24 -46s-8 -32.667 -8 -48h179c22 0 36.333 4.5 43 13.5s10 22.5 10 40.5zM219.998 570.002c-9.33301 0 -18.333 2 -27 6s-16.334 9.16699 -23.001 15.5
s-12 13.666 -16 21.999s-6 16.833 -6 25.5s2 17.167 6 25.5s9.33301 15.666 16 21.999s14.334 11.5 23.001 15.5s17.667 6 27 6c10 0 19.167 -2 27.5 -6s15.833 -9.16699 22.5 -15.5s11.834 -13.666 15.501 -21.999s5.5 -16.833 5.5 -25.5s-1.83301 -17.167 -5.5 -25.5
s-8.83398 -15.666 -15.501 -21.999s-14.167 -11.5 -22.5 -15.5s-17.5 -6 -27.5 -6zM433.998 570.002c-10 0 -19.333 2 -28 6s-16.167 9.16699 -22.5 15.5s-11.5 13.666 -15.5 21.999s-6 16.833 -6 25.5s2 17.167 6 25.5s9.16699 15.666 15.5 21.999s13.833 11.5 22.5 15.5
s18 6 28 6s19.167 -2 27.5 -6s15.833 -9.16699 22.5 -15.5s11.834 -13.666 15.501 -21.999s5.5 -16.833 5.5 -25.5s-1.83301 -17.167 -5.5 -25.5s-8.83398 -15.666 -15.501 -21.999s-14.167 -11.5 -22.5 -15.5s-17.5 -6 -27.5 -6z" />
    <glyph glyph-name="igrave" unicode="&#xec;" horiz-adv-x="302" 
d="M81 450c0 22.667 6.66699 38.332 20 46.999s31 13 53 13c15.333 0 29.5 -1.66699 42.5 -5s21.167 -5.66602 24.5 -6.99902v-498h-140v450zM18 666.998c0 1.33301 1 5.83301 3 13.5s5.66699 15.667 11 24s12.5 15.833 21.5 22.5s20.833 10 35.5 10c10 0 18.667 -2 26 -6
s16.333 -10 27 -18l104 -82l-41 -61z" />
    <glyph glyph-name="iacute" unicode="&#xed;" horiz-adv-x="302" 
d="M81 450c0 22.667 6.66699 38.332 20 46.999s31 13 53 13c15.333 0 29.5 -1.66699 42.5 -5s21.167 -5.66602 24.5 -6.99902v-498h-140v450zM106 569.998l-41 61l104 82c10.667 8 19.667 14 27 18s16 6 26 6c14.667 0 26.5 -3.33301 35.5 -10s16.167 -14.167 21.5 -22.5
s9 -16.333 11 -24s3 -12.167 3 -13.5z" />
    <glyph glyph-name="icircumflex" unicode="&#xee;" horiz-adv-x="302" 
d="M81 450c0 22.667 6.66699 38.332 20 46.999s31 13 53 13c15.333 0 29.5 -1.66699 42.5 -5s21.167 -5.66602 24.5 -6.99902v-498h-140v450zM156 736.998c14.667 0 27.499 -3.5 38.499 -10.5s21.167 -15.167 30.5 -24.5l84 -81l-48 -52l-105 76l-105 -76l-48 52l85 81
c9.33301 9.33301 19.333 17.5 30 24.5s23.334 10.5 38.001 10.5z" />
    <glyph glyph-name="idieresis" unicode="&#xef;" horiz-adv-x="302" 
d="M81 450c0 22.667 6.66699 38.332 20 46.999s31 13 53 13c15.333 0 29.5 -1.66699 42.5 -5s21.167 -5.66602 24.5 -6.99902v-498h-140v450zM49 569.998c-9.33301 0 -18.333 2 -27 6s-16.334 9.16699 -23.001 15.5s-12 13.666 -16 21.999s-6 16.833 -6 25.5
s2 17.167 6 25.5s9.33301 15.666 16 21.999s14.334 11.5 23.001 15.5s17.667 6 27 6c10 0 19.167 -2 27.5 -6s15.833 -9.16699 22.5 -15.5s11.834 -13.666 15.501 -21.999s5.5 -16.833 5.5 -25.5s-1.83301 -17.167 -5.5 -25.5s-8.83398 -15.666 -15.501 -21.999
s-14.167 -11.5 -22.5 -15.5s-17.5 -6 -27.5 -6zM263 569.998c-10 0 -19.333 2 -28 6s-16.167 9.16699 -22.5 15.5s-11.5 13.666 -15.5 21.999s-6 16.833 -6 25.5s2 17.167 6 25.5s9.16699 15.666 15.5 21.999s13.833 11.5 22.5 15.5s18 6 28 6s19.167 -2 27.5 -6
s15.833 -9.16699 22.5 -15.5s11.834 -13.666 15.501 -21.999s5.5 -16.833 5.5 -25.5s-1.83301 -17.167 -5.5 -25.5s-8.83398 -15.666 -15.501 -21.999s-14.167 -11.5 -22.5 -15.5s-17.5 -6 -27.5 -6z" />
    <glyph glyph-name="eth" unicode="&#xf0;" horiz-adv-x="654" 
d="M167 572l87.9961 47.0029c-11.333 5.33301 -22.833 10.333 -34.5 15s-24.167 9 -37.5 13l41 90c52.667 -16.667 99.334 -36.667 140.001 -60l112 60l39 -75l-73 -39c32.667 -28 59.5 -57.5 80.5 -88.5s37.5 -61.833 49.5 -92.5s20.333 -60.334 25 -89.001
s7 -54.334 7 -77.001c0 -50 -6.66699 -93.333 -20 -130s-32.166 -67.167 -56.499 -91.5s-53.5 -42.333 -87.5 -54s-71.667 -17.5 -113 -17.5c-40.667 0 -78 5.66699 -112 17s-63.167 27.5 -87.5 48.5s-43.333 46.333 -57 76s-20.5 63.167 -20.5 100.5
s6.5 70.666 19.5 99.999s30.333 54.333 52 75s46.5 36.334 74.5 47.001s56.667 16 86 16c22.667 0 43.334 -2 62.001 -6s34.667 -8.66699 48 -14s24.166 -10.833 32.499 -16.5s13.833 -10.167 16.5 -13.5c-1.33301 6 -4.16602 14.5 -8.49902 25.5s-10.666 23.5 -18.999 37.5
s-18.833 28.667 -31.5 44s-28 30.666 -46 45.999l-128 -68zM461.996 225.003c0 38 -12.167 69.333 -36.5 94s-57.166 37 -98.499 37s-74.166 -12.333 -98.499 -37s-36.5 -56 -36.5 -94s12.167 -69.333 36.5 -94s57.166 -37 98.499 -37s74.166 12.333 98.499 37
s36.5 56 36.5 94z" />
    <glyph glyph-name="ntilde" unicode="&#xf1;" horiz-adv-x="643" 
d="M429 0l0.000976562 287.001c0 82.667 -38.333 124 -115 124c-28 0 -49.667 -2.33301 -65 -7s-26.333 -8.66699 -33 -12v-392h-140v479c2.66699 1.33301 10.667 4.66602 24 9.99902s30.5 10.833 51.5 16.5s45.667 10.667 74 15s59.166 6.5 92.499 6.5
c37.333 0 71.5 -4.66699 102.5 -14s57.5 -23 79.5 -41s39 -40.167 51 -66.5s18 -56.5 18 -90.5v-315h-140zM309.001 598.001c-6 2 -12.333 3.66797 -19 5.00098s-13 2 -19 2c-16.667 0 -28.334 -11.667 -35.001 -35l-84 16c2.66699 14 6.83398 27.667 12.501 41
s13.167 25.166 22.5 35.499s20.5 18.666 33.5 24.999s28.5 9.5 46.5 9.5c15.333 0 29.833 -1.5 43.5 -4.5s27.5 -6.83301 41.5 -11.5l16 -5c5.33301 -1.33301 11 -2.66602 17 -3.99902s12.333 -2 19 -2c17.333 0 29.333 11.333 36 34l84 -16
c-2.66699 -14 -6.83398 -27.667 -12.501 -41s-13.167 -25 -22.5 -35s-20.666 -18.167 -33.999 -24.5s-29 -9.5 -47 -9.5c-14 0 -27 1.16699 -39 3.5s-24.333 5.5 -37 9.5z" />
    <glyph glyph-name="ograve" unicode="&#xf2;" horiz-adv-x="654" 
d="M604 255c0 -38 -6.5 -73.5 -19.5 -106.5s-31.667 -61.667 -56 -86s-53.5 -43.666 -87.5 -57.999s-72 -21.5 -114 -21.5s-80 7.16699 -114 21.5s-63.167 33.666 -87.5 57.999s-43 53 -56 86s-19.5 68.5 -19.5 106.5s6.5 73.5 19.5 106.5s31.667 61.667 56 86
s53.5 43.666 87.5 57.999s72 21.5 114 21.5s80 -7.16699 114 -21.5s63.167 -33.666 87.5 -57.999s43 -53 56 -86s19.5 -68.5 19.5 -106.5zM462 255c0 22.667 -2.83301 43.834 -8.5 63.501s-14.334 36.667 -26.001 51s-25.834 25.666 -42.501 33.999s-36 12.5 -58 12.5
s-41.333 -4.16699 -58 -12.5s-30.834 -19.666 -42.501 -33.999s-20.334 -31.333 -26.001 -51s-8.5 -40.834 -8.5 -63.501s2.83301 -43.834 8.5 -63.501s14.334 -36.667 26.001 -51s25.834 -25.666 42.501 -33.999s36 -12.5 58 -12.5s41.333 4.16699 58 12.5
s30.834 19.666 42.501 33.999s20.334 31.333 26.001 51s8.5 40.834 8.5 63.501zM209 667c0 1.33301 1 5.83301 3 13.5s5.66699 15.667 11 24s12.5 15.833 21.5 22.5s20.833 10 35.5 10c10 0 18.667 -2 26 -6s16.333 -10 27 -18l104 -82l-41 -61z" />
    <glyph glyph-name="oacute" unicode="&#xf3;" horiz-adv-x="654" 
d="M604 255c0 -38 -6.5 -73.5 -19.5 -106.5s-31.667 -61.667 -56 -86s-53.5 -43.666 -87.5 -57.999s-72 -21.5 -114 -21.5s-80 7.16699 -114 21.5s-63.167 33.666 -87.5 57.999s-43 53 -56 86s-19.5 68.5 -19.5 106.5s6.5 73.5 19.5 106.5s31.667 61.667 56 86
s53.5 43.666 87.5 57.999s72 21.5 114 21.5s80 -7.16699 114 -21.5s63.167 -33.666 87.5 -57.999s43 -53 56 -86s19.5 -68.5 19.5 -106.5zM462 255c0 22.667 -2.83301 43.834 -8.5 63.501s-14.334 36.667 -26.001 51s-25.834 25.666 -42.501 33.999s-36 12.5 -58 12.5
s-41.333 -4.16699 -58 -12.5s-30.834 -19.666 -42.501 -33.999s-20.334 -31.333 -26.001 -51s-8.5 -40.834 -8.5 -63.501s2.83301 -43.834 8.5 -63.501s14.334 -36.667 26.001 -51s25.834 -25.666 42.501 -33.999s36 -12.5 58 -12.5s41.333 4.16699 58 12.5
s30.834 19.666 42.501 33.999s20.334 31.333 26.001 51s8.5 40.834 8.5 63.501zM297 570l-41 61l104 82c10.667 8 19.667 14 27 18s16 6 26 6c14.667 0 26.5 -3.33301 35.5 -10s16.167 -14.167 21.5 -22.5s9 -16.333 11 -24s3 -12.167 3 -13.5z" />
    <glyph glyph-name="ocircumflex" unicode="&#xf4;" horiz-adv-x="654" 
d="M604 255c0 -38 -6.5 -73.5 -19.5 -106.5s-31.667 -61.667 -56 -86s-53.5 -43.666 -87.5 -57.999s-72 -21.5 -114 -21.5s-80 7.16699 -114 21.5s-63.167 33.666 -87.5 57.999s-43 53 -56 86s-19.5 68.5 -19.5 106.5s6.5 73.5 19.5 106.5s31.667 61.667 56 86
s53.5 43.666 87.5 57.999s72 21.5 114 21.5s80 -7.16699 114 -21.5s63.167 -33.666 87.5 -57.999s43 -53 56 -86s19.5 -68.5 19.5 -106.5zM462 255c0 22.667 -2.83301 43.834 -8.5 63.501s-14.334 36.667 -26.001 51s-25.834 25.666 -42.501 33.999s-36 12.5 -58 12.5
s-41.333 -4.16699 -58 -12.5s-30.834 -19.666 -42.501 -33.999s-20.334 -31.333 -26.001 -51s-8.5 -40.834 -8.5 -63.501s2.83301 -43.834 8.5 -63.501s14.334 -36.667 26.001 -51s25.834 -25.666 42.501 -33.999s36 -12.5 58 -12.5s41.333 4.16699 58 12.5
s30.834 19.666 42.501 33.999s20.334 31.333 26.001 51s8.5 40.834 8.5 63.501zM327 737c14.667 0 27.499 -3.5 38.499 -10.5s21.167 -15.167 30.5 -24.5l84 -81l-48 -52l-105 76l-105 -76l-48 52l85 81c9.33301 9.33301 19.333 17.5 30 24.5s23.334 10.5 38.001 10.5z" />
    <glyph glyph-name="otilde" unicode="&#xf5;" horiz-adv-x="654" 
d="M604 255c0 -38 -6.5 -73.5 -19.5 -106.5s-31.667 -61.667 -56 -86s-53.5 -43.666 -87.5 -57.999s-72 -21.5 -114 -21.5s-80 7.16699 -114 21.5s-63.167 33.666 -87.5 57.999s-43 53 -56 86s-19.5 68.5 -19.5 106.5s6.5 73.5 19.5 106.5s31.667 61.667 56 86
s53.5 43.666 87.5 57.999s72 21.5 114 21.5s80 -7.16699 114 -21.5s63.167 -33.666 87.5 -57.999s43 -53 56 -86s19.5 -68.5 19.5 -106.5zM462 255c0 22.667 -2.83301 43.834 -8.5 63.501s-14.334 36.667 -26.001 51s-25.834 25.666 -42.501 33.999s-36 12.5 -58 12.5
s-41.333 -4.16699 -58 -12.5s-30.834 -19.666 -42.501 -33.999s-20.334 -31.333 -26.001 -51s-8.5 -40.834 -8.5 -63.501s2.83301 -43.834 8.5 -63.501s14.334 -36.667 26.001 -51s25.834 -25.666 42.501 -33.999s36 -12.5 58 -12.5s41.333 4.16699 58 12.5
s30.834 19.666 42.501 33.999s20.334 31.333 26.001 51s8.5 40.834 8.5 63.501zM301 598c-6 2 -12.333 3.66797 -19 5.00098s-13 2 -19 2c-16.667 0 -28.334 -11.667 -35.001 -35l-84 16c2.66699 14 6.83398 27.667 12.501 41s13.167 25.166 22.5 35.499
s20.5 18.666 33.5 24.999s28.5 9.5 46.5 9.5c15.333 0 29.833 -1.5 43.5 -4.5s27.5 -6.83301 41.5 -11.5l16 -5c5.33301 -1.33301 11 -2.66602 17 -3.99902s12.333 -2 19 -2c17.333 0 29.333 11.333 36 34l84 -16c-2.66699 -14 -6.83398 -27.667 -12.501 -41
s-13.167 -25 -22.5 -35s-20.666 -18.167 -33.999 -24.5s-29 -9.5 -47 -9.5c-14 0 -27 1.16699 -39 3.5s-24.333 5.5 -37 9.5z" />
    <glyph glyph-name="odieresis" unicode="&#xf6;" horiz-adv-x="654" 
d="M604 255c0 -38 -6.5 -73.5 -19.5 -106.5s-31.667 -61.667 -56 -86s-53.5 -43.666 -87.5 -57.999s-72 -21.5 -114 -21.5s-80 7.16699 -114 21.5s-63.167 33.666 -87.5 57.999s-43 53 -56 86s-19.5 68.5 -19.5 106.5s6.5 73.5 19.5 106.5s31.667 61.667 56 86
s53.5 43.666 87.5 57.999s72 21.5 114 21.5s80 -7.16699 114 -21.5s63.167 -33.666 87.5 -57.999s43 -53 56 -86s19.5 -68.5 19.5 -106.5zM462 255c0 22.667 -2.83301 43.834 -8.5 63.501s-14.334 36.667 -26.001 51s-25.834 25.666 -42.501 33.999s-36 12.5 -58 12.5
s-41.333 -4.16699 -58 -12.5s-30.834 -19.666 -42.501 -33.999s-20.334 -31.333 -26.001 -51s-8.5 -40.834 -8.5 -63.501s2.83301 -43.834 8.5 -63.501s14.334 -36.667 26.001 -51s25.834 -25.666 42.501 -33.999s36 -12.5 58 -12.5s41.333 4.16699 58 12.5
s30.834 19.666 42.501 33.999s20.334 31.333 26.001 51s8.5 40.834 8.5 63.501zM227 570c-9.33301 0 -18.333 2 -27 6s-16.334 9.16699 -23.001 15.5s-12 13.666 -16 21.999s-6 16.833 -6 25.5s2 17.167 6 25.5s9.33301 15.666 16 21.999s14.334 11.5 23.001 15.5
s17.667 6 27 6c10 0 19.167 -2 27.5 -6s15.833 -9.16699 22.5 -15.5s11.834 -13.666 15.501 -21.999s5.5 -16.833 5.5 -25.5s-1.83301 -17.167 -5.5 -25.5s-8.83398 -15.666 -15.501 -21.999s-14.167 -11.5 -22.5 -15.5s-17.5 -6 -27.5 -6zM441 570c-10 0 -19.333 2 -28 6
s-16.167 9.16699 -22.5 15.5s-11.5 13.666 -15.5 21.999s-6 16.833 -6 25.5s2 17.167 6 25.5s9.16699 15.666 15.5 21.999s13.833 11.5 22.5 15.5s18 6 28 6s19.167 -2 27.5 -6s15.833 -9.16699 22.5 -15.5s11.834 -13.666 15.501 -21.999s5.5 -16.833 5.5 -25.5
s-1.83301 -17.167 -5.5 -25.5s-8.83398 -15.666 -15.501 -21.999s-14.167 -11.5 -22.5 -15.5s-17.5 -6 -27.5 -6z" />
    <glyph glyph-name="divide" unicode="&#xf7;" horiz-adv-x="652" 
d="M245 136c0 22.667 7.66699 41.834 23 57.501s34.333 23.5 57 23.5s41.834 -7.83301 57.501 -23.5s23.5 -34.834 23.5 -57.501s-7.83301 -41.667 -23.5 -57s-34.834 -23 -57.501 -23s-41.667 7.66699 -57 23s-23 34.333 -23 57zM245 546
c0 22.667 7.66699 41.834 23 57.501s34.333 23.5 57 23.5s41.834 -7.83301 57.501 -23.5s23.5 -34.834 23.5 -57.501s-7.83301 -41.667 -23.5 -57s-34.834 -23 -57.501 -23s-41.667 7.66699 -57 23s-23 34.333 -23 57zM140 277c-24.667 0 -42 5.5 -52 16.5
s-15 26.5 -15 46.5c0 15.333 2.16699 28.666 6.5 39.999l8.5 22h424c24.667 0 42 -5.5 52 -16.5s15 -26.5 15 -46.5c0 -15.333 -2.16699 -28.666 -6.5 -39.999l-8.5 -22h-424z" />
    <glyph glyph-name="oslash" unicode="&#xf8;" horiz-adv-x="654" 
d="M604 255c0 -38 -6.49902 -73.501 -19.499 -106.501s-31.667 -61.667 -56 -86s-53.5 -43.666 -87.5 -57.999s-72 -21.5 -114 -21.5c-26.667 0 -51.334 3 -74.001 9l-31 -68h-102l48 103c-38 24.667 -67.167 56.834 -87.5 96.501s-30.5 83.5 -30.5 131.5
c0 38 6.5 73.5 19.5 106.5s31.667 61.667 56 86s53.5 43.666 87.5 57.999s72 21.5 114 21.5c22.667 0 45.667 -2.66699 69 -8l16 35c5.33301 11.333 11.833 19.666 19.5 24.999s18.5 8 32.5 8c15.333 0 28.333 -3.16699 39 -9.5s17 -10.166 19 -11.499l-39 -82
c38 -24.667 67.667 -57 89 -97s32 -84 32 -132zM462.001 254.999c0 22 -2.66992 42.667 -8.00293 62s-13.666 36 -24.999 50l-127 -271c4 -1.33301 8 -2 12 -2h13c22 0 41.333 4.16699 58 12.5s30.834 19.666 42.501 33.999s20.334 31.333 26.001 51s8.5 40.834 8.5 63.501z
M191.998 254.999c0 -44.667 10.001 -81.333 30.001 -110l125 270c-3.33301 0.666992 -6.66602 1 -9.99902 1h-10c-22 0 -41.333 -4.16699 -58 -12.5s-30.834 -19.666 -42.501 -33.999s-20.334 -31.333 -26.001 -51s-8.5 -40.834 -8.5 -63.501z" />
    <glyph glyph-name="ugrave" unicode="&#xf9;" horiz-adv-x="634" 
d="M418 450c0 22.667 6.66797 38.3301 20.001 46.9971s31 13 53 13c15.333 0 29.5 -1.66699 42.5 -5s21.167 -5.66602 24.5 -6.99902v-498c-2 -0.666992 -8.66699 -1.83398 -20 -3.50098s-25.833 -3.16699 -43.5 -4.5s-37.334 -2.66602 -59.001 -3.99902
s-44.167 -2 -67.5 -2c-102 0 -176.5 19.167 -223.5 57.5s-70.5 94.833 -70.5 169.5v237c0 22.667 6.66699 38.334 20 47.001s31 13 53 13c15.333 0 29.5 -1.66699 42.5 -5s21.167 -5.66602 24.5 -6.99902v-271c0 -40.667 11 -71.667 33 -93s58 -32 108 -32
c18.667 0 32.667 0.5 42 1.5s16.333 2.16699 21 3.5v343zM201.001 666.996c0 1.33301 1 5.83301 3 13.5s5.66699 15.667 11 24s12.5 15.833 21.5 22.5s20.833 10 35.5 10c10 0 18.667 -2 26 -6s16.333 -10 27 -18l104 -82l-41 -61z" />
    <glyph glyph-name="uacute" unicode="&#xfa;" horiz-adv-x="634" 
d="M418 450c0 22.667 6.66797 38.3301 20.001 46.9971s31 13 53 13c15.333 0 29.5 -1.66699 42.5 -5s21.167 -5.66602 24.5 -6.99902v-498c-2 -0.666992 -8.66699 -1.83398 -20 -3.50098s-25.833 -3.16699 -43.5 -4.5s-37.334 -2.66602 -59.001 -3.99902
s-44.167 -2 -67.5 -2c-102 0 -176.5 19.167 -223.5 57.5s-70.5 94.833 -70.5 169.5v237c0 22.667 6.66699 38.334 20 47.001s31 13 53 13c15.333 0 29.5 -1.66699 42.5 -5s21.167 -5.66602 24.5 -6.99902v-271c0 -40.667 11 -71.667 33 -93s58 -32 108 -32
c18.667 0 32.667 0.5 42 1.5s16.333 2.16699 21 3.5v343zM267.001 569.996l-41 61l104 82c10.667 8 19.667 14 27 18s16 6 26 6c14.667 0 26.5 -3.33301 35.5 -10s16.167 -14.167 21.5 -22.5s9 -16.333 11 -24s3 -12.167 3 -13.5z" />
    <glyph glyph-name="ucircumflex" unicode="&#xfb;" horiz-adv-x="634" 
d="M418 450c0 22.667 6.66797 38.3301 20.001 46.9971s31 13 53 13c15.333 0 29.5 -1.66699 42.5 -5s21.167 -5.66602 24.5 -6.99902v-498c-2 -0.666992 -8.66699 -1.83398 -20 -3.50098s-25.833 -3.16699 -43.5 -4.5s-37.334 -2.66602 -59.001 -3.99902
s-44.167 -2 -67.5 -2c-102 0 -176.5 19.167 -223.5 57.5s-70.5 94.833 -70.5 169.5v237c0 22.667 6.66699 38.334 20 47.001s31 13 53 13c15.333 0 29.5 -1.66699 42.5 -5s21.167 -5.66602 24.5 -6.99902v-271c0 -40.667 11 -71.667 33 -93s58 -32 108 -32
c18.667 0 32.667 0.5 42 1.5s16.333 2.16699 21 3.5v343zM323.001 736.996c14.667 0 27.499 -3.5 38.499 -10.5s21.167 -15.167 30.5 -24.5l84 -81l-48 -52l-105 76l-105 -76l-48 52l85 81c9.33301 9.33301 19.333 17.5 30 24.5s23.334 10.5 38.001 10.5z" />
    <glyph glyph-name="udieresis" unicode="&#xfc;" horiz-adv-x="634" 
d="M418 450c0 22.667 6.66797 38.3301 20.001 46.9971s31 13 53 13c15.333 0 29.5 -1.66699 42.5 -5s21.167 -5.66602 24.5 -6.99902v-498c-2 -0.666992 -8.66699 -1.83398 -20 -3.50098s-25.833 -3.16699 -43.5 -4.5s-37.334 -2.66602 -59.001 -3.99902
s-44.167 -2 -67.5 -2c-102 0 -176.5 19.167 -223.5 57.5s-70.5 94.833 -70.5 169.5v237c0 22.667 6.66699 38.334 20 47.001s31 13 53 13c15.333 0 29.5 -1.66699 42.5 -5s21.167 -5.66602 24.5 -6.99902v-271c0 -40.667 11 -71.667 33 -93s58 -32 108 -32
c18.667 0 32.667 0.5 42 1.5s16.333 2.16699 21 3.5v343zM214.001 569.996c-9.33301 0 -18.333 2 -27 6s-16.334 9.16699 -23.001 15.5s-12 13.666 -16 21.999s-6 16.833 -6 25.5s2 17.167 6 25.5s9.33301 15.666 16 21.999s14.334 11.5 23.001 15.5s17.667 6 27 6
c10 0 19.167 -2 27.5 -6s15.833 -9.16699 22.5 -15.5s11.834 -13.666 15.501 -21.999s5.5 -16.833 5.5 -25.5s-1.83301 -17.167 -5.5 -25.5s-8.83398 -15.666 -15.501 -21.999s-14.167 -11.5 -22.5 -15.5s-17.5 -6 -27.5 -6zM428.001 569.996c-10 0 -19.333 2 -28 6
s-16.167 9.16699 -22.5 15.5s-11.5 13.666 -15.5 21.999s-6 16.833 -6 25.5s2 17.167 6 25.5s9.16699 15.666 15.5 21.999s13.833 11.5 22.5 15.5s18 6 28 6s19.167 -2 27.5 -6s15.833 -9.16699 22.5 -15.5s11.834 -13.666 15.501 -21.999s5.5 -16.833 5.5 -25.5
s-1.83301 -17.167 -5.5 -25.5s-8.83398 -15.666 -15.501 -21.999s-14.167 -11.5 -22.5 -15.5s-17.5 -6 -27.5 -6z" />
    <glyph glyph-name="yacute" unicode="&#xfd;" horiz-adv-x="559" 
d="M399 450c7.33301 17.333 16.3311 31.665 26.998 42.998s28.667 17 54 17c21.333 0 38.333 -4 51 -12s20.334 -13.667 23.001 -17c-4.66699 -16 -11.334 -35.167 -20.001 -57.5s-18.334 -46 -29.001 -71l-32.5 -75.5l-30.5 -70c-19.333 -44 -39.166 -86.667 -59.499 -128
s-42.833 -83.333 -67.5 -126c-11.333 -20 -23.333 -39.167 -36 -57.5s-27.334 -34.666 -44.001 -48.999s-35.5 -25.666 -56.5 -33.999s-45.5 -12.5 -73.5 -12.5c-16.667 0 -32.167 1.33301 -46.5 4s-26.666 5.66699 -36.999 9s-18.833 6.5 -25.5 9.5
s-10.334 5.16699 -11.001 6.5l40 99c4 -2 12.833 -5 26.5 -9s27.5 -6 41.5 -6c20.667 0 38.334 5.83301 53.001 17.5s29 30.5 43 56.5l30 57l-37.5 62.5l-41 70.5l-40.5 71l-36 63.5l-27 48.5c-7.33301 13.333 -12 22 -14 26c-5.33301 10.667 -9.66602 20.5 -12.999 29.5
s-5 19.167 -5 30.5c0 8 1.16699 15.833 3.5 23.5s6.33301 14.5 12 20.5s13 10.833 22 14.5s20.5 5.5 34.5 5.5c20 0 34.833 -2 44.5 -6s14.834 -6.33301 15.501 -7c2 -5.33301 8.16699 -19 18.5 -41l37 -78l47 -96l49.5 -95l36.5 84.5l32.5 78.5l25.5 62.5
c7 17.667 12.167 30.167 15.5 37.5zM236.998 569.999l-41 61l104 82c10.667 8 19.667 14 27 18s16 6 26 6c14.667 0 26.5 -3.33301 35.5 -10s16.167 -14.167 21.5 -22.5s9 -16.333 11 -24s3 -12.167 3 -13.5z" />
    <glyph glyph-name="thorn" unicode="&#xfe;" horiz-adv-x="649" 
d="M76 677c0 22.667 6.66797 38.334 20.001 47.001s31 13 53 13c15.333 0 29.5 -1.66699 42.5 -5s21.167 -5.66602 24.5 -6.99902v-205c13.333 2 28 3.66699 44 5s33 2 51 2c44.667 0 84.667 -6.83301 120 -20.5s65.5 -32.834 90.5 -57.501s44.167 -54.334 57.5 -89.001
s20 -73 20 -115c0 -41.333 -6.33301 -77.5 -19 -108.5s-29.834 -57 -51.501 -78s-46.667 -36.833 -75 -47.5s-58.5 -16 -90.5 -16c-23.333 0 -43.833 2.16699 -61.5 6.5s-32.667 9.33301 -45 15s-21.833 11.167 -28.5 16.5s-10.667 9 -12 11v-244h-140v877zM455.001 259
c0 20.667 -3 40.3271 -9 58.9941s-15 35.334 -27 50.001s-26.833 26.334 -44.5 35.001s-38.167 13 -61.5 13c-32 0 -55.167 -2.33301 -69.5 -7s-23.5 -8 -27.5 -10v-228c2.66699 -5.33301 6.66699 -11.666 12 -18.999s12.5 -14.166 21.5 -20.499
s20.167 -11.666 33.5 -15.999s29.666 -6.5 48.999 -6.5c38.667 0 68.834 13.333 90.501 40s32.5 63.334 32.5 110.001z" />
    <glyph glyph-name="ydieresis" unicode="&#xff;" horiz-adv-x="559" 
d="M399 450c7.33301 17.333 16.3311 31.665 26.998 42.998s28.667 17 54 17c21.333 0 38.333 -4 51 -12s20.334 -13.667 23.001 -17c-4.66699 -16 -11.334 -35.167 -20.001 -57.5s-18.334 -46 -29.001 -71l-32.5 -75.5l-30.5 -70c-19.333 -44 -39.166 -86.667 -59.499 -128
s-42.833 -83.333 -67.5 -126c-11.333 -20 -23.333 -39.167 -36 -57.5s-27.334 -34.666 -44.001 -48.999s-35.5 -25.666 -56.5 -33.999s-45.5 -12.5 -73.5 -12.5c-16.667 0 -32.167 1.33301 -46.5 4s-26.666 5.66699 -36.999 9s-18.833 6.5 -25.5 9.5
s-10.334 5.16699 -11.001 6.5l40 99c4 -2 12.833 -5 26.5 -9s27.5 -6 41.5 -6c20.667 0 38.334 5.83301 53.001 17.5s29 30.5 43 56.5l30 57l-37.5 62.5l-41 70.5l-40.5 71l-36 63.5l-27 48.5c-7.33301 13.333 -12 22 -14 26c-5.33301 10.667 -9.66602 20.5 -12.999 29.5
s-5 19.167 -5 30.5c0 8 1.16699 15.833 3.5 23.5s6.33301 14.5 12 20.5s13 10.833 22 14.5s20.5 5.5 34.5 5.5c20 0 34.833 -2 44.5 -6s14.834 -6.33301 15.501 -7c2 -5.33301 8.16699 -19 18.5 -41l37 -78l47 -96l49.5 -95l36.5 84.5l32.5 78.5l25.5 62.5
c7 17.667 12.167 30.167 15.5 37.5zM183.998 569.999c-9.33301 0 -18.333 2 -27 6s-16.334 9.16699 -23.001 15.5s-12 13.666 -16 21.999s-6 16.833 -6 25.5s2 17.167 6 25.5s9.33301 15.666 16 21.999s14.334 11.5 23.001 15.5s17.667 6 27 6c10 0 19.167 -2 27.5 -6
s15.833 -9.16699 22.5 -15.5s11.834 -13.666 15.501 -21.999s5.5 -16.833 5.5 -25.5s-1.83301 -17.167 -5.5 -25.5s-8.83398 -15.666 -15.501 -21.999s-14.167 -11.5 -22.5 -15.5s-17.5 -6 -27.5 -6zM397.998 569.999c-10 0 -19.333 2 -28 6s-16.167 9.16699 -22.5 15.5
s-11.5 13.666 -15.5 21.999s-6 16.833 -6 25.5s2 17.167 6 25.5s9.16699 15.666 15.5 21.999s13.833 11.5 22.5 15.5s18 6 28 6s19.167 -2 27.5 -6s15.833 -9.16699 22.5 -15.5s11.834 -13.666 15.501 -21.999s5.5 -16.833 5.5 -25.5s-1.83301 -17.167 -5.5 -25.5
s-8.83398 -15.666 -15.501 -21.999s-14.167 -11.5 -22.5 -15.5s-17.5 -6 -27.5 -6z" />
    <glyph glyph-name="Amacron" unicode="&#x100;" horiz-adv-x="762" 
d="M10 0l47.5 122l51 124.5l50 119.5l45.5 106.5l37.5 85.5c11 24.667 19.833 43.667 26.5 57c14.667 31.333 31 52.666 49 63.999s39.667 17 65 17c26 0 45.833 -3.66699 59.5 -11s23.167 -13.666 28.5 -18.999c12 -20.667 26.333 -48.5 43 -83.5l52.5 -116l55.5 -132
l53 -132.5l45.5 -117l32.5 -85h-154c-5.33301 14.667 -12.833 34.167 -22.5 58.5l-34.5 87.5h-327l-34 -87l-23 -59h-147zM378 553c-3.33301 -6.66699 -8.83203 -19.333 -16.499 -38l-27 -67l-34.5 -85.5l-37 -92.5h229l-36.5 92.5l-34.5 85l-27.5 66.5
c-7.66699 18.667 -12.834 31.667 -15.501 39zM520.001 849.001c19.333 0 31.833 -4.33105 37.5 -12.998s8.5 -20.334 8.5 -35.001c0 -10.667 -0.833008 -19.334 -2.5 -26.001s-3.16699 -11.667 -4.5 -15h-319c-17.333 0 -29.5 4 -36.5 12s-10.5 18.333 -10.5 31
c0 11.333 0.833008 20.5 2.5 27.5l4.5 18.5h320z" />
    <glyph glyph-name="amacron" unicode="&#x101;" horiz-adv-x="604" 
d="M530 4c-2 -0.666992 -9.3291 -2.00098 -21.9961 -4.00098s-29.5 -4 -50.5 -6s-45.833 -3.83301 -74.5 -5.5s-60 -2.5 -94 -2.5c-49.333 0 -89.833 4.16699 -121.5 12.5s-56.834 19.833 -75.501 34.5s-31.5 31.834 -38.5 51.501s-10.5 41.167 -10.5 64.5
c0 28.667 4.33301 53.667 13 75s22.667 38.833 42 52.5s44.166 23.834 74.499 30.501s67.166 10 110.499 10c30 0 55 -0.833008 75 -2.5s31.667 -2.83398 35 -3.50098v16c0 31.333 -10.667 55.333 -32 72s-54.333 25 -99 25c-20 0 -37.667 -1.83301 -53 -5.5
s-28.5 -8 -39.5 -13s-20.333 -10 -28 -15s-13.834 -8.83301 -18.501 -11.5c-9.33301 5.33301 -17.666 13.833 -24.999 25.5s-11 24.834 -11 39.501s4.66699 27.167 14 37.5s21.833 18.666 37.5 24.999s33.667 10.833 54 13.5s41.166 4 62.499 4
c40.667 0 77.834 -3.5 111.501 -10.5s62.667 -19 87 -36s43.166 -39.667 56.499 -68s20 -63.833 20 -106.5v-299zM392.004 223.999c-2 0.666992 -6.00098 1.33398 -12.001 2.00098s-13.333 1.33398 -22 2.00098s-18.167 1.16699 -28.5 1.5s-20.833 0.5 -31.5 0.5
c-24.667 0 -44.667 -2 -60 -6s-27.166 -9.5 -35.499 -16.5s-14 -15.333 -17 -25s-4.5 -19.834 -4.5 -30.501c0 -9.33301 1.33301 -18.333 4 -27s8.16699 -16.5 16.5 -23.5s20 -12.667 35 -17s34.5 -6.5 58.5 -6.5c25.333 0 46.333 1.16699 63 3.5s28 4.16602 34 5.49902v137
zM431.003 681.999c18 0 29.834 -4.16699 35.501 -12.5s8.5 -19.5 8.5 -33.5c0 -10.667 -0.833008 -19.167 -2.5 -25.5s-3.16699 -11.166 -4.5 -14.499h-289c-16.667 0 -28.334 3.83301 -35.001 11.5s-10 17.834 -10 30.501c0 11.333 0.666992 20.166 2 26.499
s3 12.166 5 17.499h290z" />
    <glyph glyph-name="Abreve" unicode="&#x102;" horiz-adv-x="762" 
d="M10 0l47.5 122l51 124.5l50 119.5l45.5 106.5l37.5 85.5c11 24.667 19.833 43.667 26.5 57c14.667 31.333 31 52.666 49 63.999s39.667 17 65 17c26 0 45.833 -3.66699 59.5 -11s23.167 -13.666 28.5 -18.999c12 -20.667 26.333 -48.5 43 -83.5l52.5 -116l55.5 -132
l53 -132.5l45.5 -117l32.5 -85h-154c-5.33301 14.667 -12.833 34.167 -22.5 58.5l-34.5 87.5h-327l-34 -87l-23 -59h-147zM378 553c-3.33301 -6.66699 -8.83203 -19.333 -16.499 -38l-27 -67l-34.5 -85.5l-37 -92.5h229l-36.5 92.5l-34.5 85l-27.5 66.5
c-7.66699 18.667 -12.834 31.667 -15.501 39zM385.001 822.001c21.333 0 39.333 6.16699 54 18.5s25.334 30.833 32.001 55.5l72 -10c-0.666992 -15.333 -3.33398 -31.666 -8.00098 -48.999s-13 -33.333 -25 -48s-28 -26.834 -48 -36.501s-45.667 -14.5 -77 -14.5
c-32 0 -58.333 4.83301 -79 14.5s-37 21.834 -49 36.501s-20.5 30.667 -25.5 48s-7.83301 33.666 -8.5 48.999l74 10c14 -49.333 43.333 -74 88 -74z" />
    <glyph glyph-name="abreve" unicode="&#x103;" horiz-adv-x="604" 
d="M530 4c-2 -0.666992 -9.3291 -2.00098 -21.9961 -4.00098s-29.5 -4 -50.5 -6s-45.833 -3.83301 -74.5 -5.5s-60 -2.5 -94 -2.5c-49.333 0 -89.833 4.16699 -121.5 12.5s-56.834 19.833 -75.501 34.5s-31.5 31.834 -38.5 51.501s-10.5 41.167 -10.5 64.5
c0 28.667 4.33301 53.667 13 75s22.667 38.833 42 52.5s44.166 23.834 74.499 30.501s67.166 10 110.499 10c30 0 55 -0.833008 75 -2.5s31.667 -2.83398 35 -3.50098v16c0 31.333 -10.667 55.333 -32 72s-54.333 25 -99 25c-20 0 -37.667 -1.83301 -53 -5.5
s-28.5 -8 -39.5 -13s-20.333 -10 -28 -15s-13.834 -8.83301 -18.501 -11.5c-9.33301 5.33301 -17.666 13.833 -24.999 25.5s-11 24.834 -11 39.501s4.66699 27.167 14 37.5s21.833 18.666 37.5 24.999s33.667 10.833 54 13.5s41.166 4 62.499 4
c40.667 0 77.834 -3.5 111.501 -10.5s62.667 -19 87 -36s43.166 -39.667 56.499 -68s20 -63.833 20 -106.5v-299zM392.004 223.999c-2 0.666992 -6.00098 1.33398 -12.001 2.00098s-13.333 1.33398 -22 2.00098s-18.167 1.16699 -28.5 1.5s-20.833 0.5 -31.5 0.5
c-24.667 0 -44.667 -2 -60 -6s-27.166 -9.5 -35.499 -16.5s-14 -15.333 -17 -25s-4.5 -19.834 -4.5 -30.501c0 -9.33301 1.33301 -18.333 4 -27s8.16699 -16.5 16.5 -23.5s20 -12.667 35 -17s34.5 -6.5 58.5 -6.5c25.333 0 46.333 1.16699 63 3.5s28 4.16602 34 5.49902v137
zM306.003 643.999c42.667 0 70.001 23.333 82.001 70l69 -10c-0.666992 -14 -3.5 -28.833 -8.5 -44.5s-13.167 -30.334 -24.5 -44.001s-26.666 -24.834 -45.999 -33.501s-43.333 -13 -72 -13c-29.333 0 -53.5 4.33301 -72.5 13s-34.333 19.834 -46 33.501
s-19.834 28.334 -24.501 44.001s-7.33398 30.5 -8.00098 44.5l69 10c12 -46.667 39.333 -70 82 -70z" />
    <glyph glyph-name="Aogonek" unicode="&#x104;" horiz-adv-x="762" 
d="M10 0l47.499 122.001l51 124.5l50 119.5l45.5 106.5l37.5 85.5c11 24.667 19.833 43.667 26.5 57c14.667 31.333 31 52.666 49 63.999s39.667 17 65 17c26 0 45.833 -3.66699 59.5 -11s23.167 -13.666 28.5 -18.999c12 -20.667 26.333 -48.5 43 -83.5l52.5 -116
l55.5 -132l53 -132.5l45.5 -117l32.5 -85h-28c-6.66699 -1.33301 -15.167 -3.5 -25.5 -6.5s-20.333 -7.5 -30 -13.5s-18 -13.167 -25 -21.5s-10.5 -17.833 -10.5 -28.5c0 -12 4.33301 -20 13 -24s17.667 -6 27 -6c18 0 33 2.66699 45 8s19.333 8.66602 22 9.99902l31 -67
c-9.33301 -5.33301 -24.333 -11.5 -45 -18.5s-46.667 -10.5 -78 -10.5c-34.667 0 -63 6.83301 -85 20.5s-33 35.5 -33 65.5c0 14 2.66699 26.5 8 37.5s11.5 20.167 18.5 27.5s14.333 13.333 22 18s13.834 8 18.501 10l-56 145h-327l-34 -87l-23 -59h-147zM377.999 553.001
c-3.33301 -6.66699 -8.83203 -19.333 -16.499 -38l-27 -67l-34.5 -85.5l-37 -92.5h229l-36.5 92.5l-34.5 85l-27.5 66.5c-7.66699 18.667 -12.834 31.667 -15.501 39z" />
    <glyph glyph-name="aogonek" unicode="&#x105;" horiz-adv-x="604" 
d="M530 4c-6.66699 -2.66699 -29.6641 -6 -68.9971 -10c-7.33301 -2.66699 -15.166 -5.83398 -23.499 -9.50098s-15.833 -8.33398 -22.5 -14.001s-12.167 -12 -16.5 -19s-6.5 -14.833 -6.5 -23.5c0 -13.333 4.66699 -22.166 14 -26.499s19 -6.5 29 -6.5
c18.667 0 33.667 2.66699 45 8l21 10l29 -64c-9.33301 -5.33301 -24 -11.333 -44 -18s-45.667 -10 -77 -10c-34 0 -61.833 6.5 -83.5 19.5s-32.5 34.5 -32.5 64.5c0 21.333 5 38.5 15 51.5s20.333 23.167 31 30.5c-8 -0.666992 -16.167 -1 -24.5 -1h-25.5
c-49.333 0 -89.833 4.16699 -121.5 12.5s-56.834 19.833 -75.501 34.5s-31.5 31.834 -38.5 51.501s-10.5 41.167 -10.5 64.5c0 28.667 4.33301 53.667 13 75s22.667 38.833 42 52.5s44.166 23.834 74.499 30.501s67.166 10 110.499 10c30 0 55 -0.833008 75 -2.5
s31.667 -2.83398 35 -3.50098v16c0 31.333 -10.667 55.333 -32 72s-54.333 25 -99 25c-20 0 -37.667 -1.83301 -53 -5.5s-28.5 -8 -39.5 -13s-20.333 -10 -28 -15s-13.834 -8.83301 -18.501 -11.5c-9.33301 5.33301 -17.666 13.833 -24.999 25.5s-11 24.834 -11 39.501
s4.66699 27.167 14 37.5s21.833 18.666 37.5 24.999s33.667 10.833 54 13.5s41.166 4 62.499 4c40.667 0 77.834 -3.5 111.501 -10.5s62.667 -19 87 -36s43.166 -39.667 56.499 -68s20 -63.833 20 -106.5v-299zM392.003 224c-2 0.666992 -6.00098 1.33398 -12.001 2.00098
s-13.333 1.33398 -22 2.00098s-18.167 1.16699 -28.5 1.5s-20.833 0.5 -31.5 0.5c-24.667 0 -44.667 -2 -60 -6s-27.166 -9.5 -35.499 -16.5s-14 -15.333 -17 -25s-4.5 -19.834 -4.5 -30.501c0 -9.33301 1.33301 -18.333 4 -27s8.16699 -16.5 16.5 -23.5s20 -12.667 35 -17
s34.5 -6.5 58.5 -6.5c25.333 0 46.333 1.16699 63 3.5s28 4.16602 34 5.49902v137z" />
    <glyph glyph-name="Cacute" unicode="&#x106;" horiz-adv-x="700" 
d="M660 590c0 -11.333 -2.16602 -21.6709 -6.49902 -31.0039s-9.5 -17.666 -15.5 -24.999s-12.167 -13.5 -18.5 -18.5s-11.5 -8.5 -15.5 -10.5c-5.33301 5.33301 -12.833 12.333 -22.5 21s-22.167 17 -37.5 25s-33.5 15 -54.5 21s-44.833 9 -71.5 9
c-32 0 -61 -5.66699 -87 -17s-48.333 -27.333 -67 -48s-33.167 -45.5 -43.5 -74.5s-15.5 -61.5 -15.5 -97.5c0 -76.667 19.5 -135 58.5 -175s91.167 -60 156.5 -60c27.333 0 51.833 2.5 73.5 7.5s40.167 10.5 55.5 16.5s27.666 12 36.999 18s15.333 10 18 12l64 -108
c-3.33301 -3.33301 -11.333 -8.83301 -24 -16.5s-30 -15.667 -52 -24s-48.167 -15.666 -78.5 -21.999s-64.833 -9.5 -103.5 -9.5c-50 0 -96.667 7.66699 -140 23s-80.833 38.333 -112.5 69s-56.667 68.334 -75 113.001s-27.5 96.667 -27.5 156
c0 56 9.16699 106.167 27.5 150.5s43.666 82 75.999 113s70.333 54.833 114 71.5s91.167 25 142.5 25c54.667 0 98.667 -5.66699 132 -17s58 -22.666 74 -33.999c12.667 -9.33301 22.334 -19.5 29.001 -30.5s10 -21.833 10 -32.5zM326.001 736.995l-36.002 64.9971l121 78
c12 7.33301 21.833 12.833 29.5 16.5s16.5 5.5 26.5 5.5c16.667 0 30.334 -3.66699 41.001 -11s18.834 -15.666 24.501 -24.999s9.5 -18.166 11.5 -26.499s3 -13.166 3 -14.499z" />
    <glyph glyph-name="cacute" unicode="&#x107;" horiz-adv-x="555" 
d="M338 411c-42.667 0 -77.6689 -13.499 -105.002 -40.499s-41 -65.5 -41 -115.5c0 -26 3.83301 -48.833 11.5 -68.5s18 -36 31 -49s28 -22.833 45 -29.5s35.167 -10 54.5 -10c18.667 0 35.5 2 50.5 6s28 8.5 39 13.5s19.5 9.66699 25.5 14s9.66699 7.16602 11 8.49902
l60 -93c-6.66699 -5.33301 -15.667 -11.5 -27 -18.5s-25.333 -13.667 -42 -20s-35.834 -11.666 -57.501 -15.999s-46.5 -6.5 -74.5 -6.5c-36.667 0 -71.334 5.83301 -104.001 17.5s-61.167 29 -85.5 52s-43.666 51.167 -57.999 84.5s-21.5 71.666 -21.5 114.999
c0 42 7.16699 79.5 21.5 112.5s33.833 61.167 58.5 84.5s53.5 41.166 86.5 53.499s68.5 18.5 106.5 18.5c46.667 0 82.5 -4.5 107.5 -13.5s42.5 -17.167 52.5 -24.5c9.33301 -6.66699 17 -14.667 23 -24s9 -20.666 9 -33.999c0 -10.667 -3.66699 -23.167 -11 -37.5
s-17.666 -26.833 -30.999 -37.5c-3.33301 3.33301 -8.66602 8.33301 -15.999 15s-16.5 13.167 -27.5 19.5s-24.167 11.833 -39.5 16.5s-32.666 7 -51.999 7zM261.998 570.001l-41 61l104 82c10.667 8 19.667 14 27 18s16 6 26 6c14.667 0 26.5 -3.33301 35.5 -10
s16.167 -14.167 21.5 -22.5s9 -16.333 11 -24s3 -12.167 3 -13.5z" />
    <glyph glyph-name="Ccircumflex" unicode="&#x108;" horiz-adv-x="700" 
d="M660 590c0 -11.333 -2.16602 -21.6709 -6.49902 -31.0039s-9.5 -17.666 -15.5 -24.999s-12.167 -13.5 -18.5 -18.5s-11.5 -8.5 -15.5 -10.5c-5.33301 5.33301 -12.833 12.333 -22.5 21s-22.167 17 -37.5 25s-33.5 15 -54.5 21s-44.833 9 -71.5 9
c-32 0 -61 -5.66699 -87 -17s-48.333 -27.333 -67 -48s-33.167 -45.5 -43.5 -74.5s-15.5 -61.5 -15.5 -97.5c0 -76.667 19.5 -135 58.5 -175s91.167 -60 156.5 -60c27.333 0 51.833 2.5 73.5 7.5s40.167 10.5 55.5 16.5s27.666 12 36.999 18s15.333 10 18 12l64 -108
c-3.33301 -3.33301 -11.333 -8.83301 -24 -16.5s-30 -15.667 -52 -24s-48.167 -15.666 -78.5 -21.999s-64.833 -9.5 -103.5 -9.5c-50 0 -96.667 7.66699 -140 23s-80.833 38.333 -112.5 69s-56.667 68.334 -75 113.001s-27.5 96.667 -27.5 156
c0 56 9.16699 106.167 27.5 150.5s43.666 82 75.999 113s70.333 54.833 114 71.5s91.167 25 142.5 25c54.667 0 98.667 -5.66699 132 -17s58 -22.666 74 -33.999c12.667 -9.33301 22.334 -19.5 29.001 -30.5s10 -21.833 10 -32.5zM422.001 901.995
c14 0 27.667 -3.66699 41 -11s25 -15.666 35 -24.999l94 -76l-39 -53l-131 68l-133 -68l-38 53l95 76c11.333 9.33301 22.833 17.666 34.5 24.999s25.5 11 41.5 11z" />
    <glyph glyph-name="ccircumflex" unicode="&#x109;" horiz-adv-x="555" 
d="M338 411c-42.667 0 -77.6689 -13.499 -105.002 -40.499s-41 -65.5 -41 -115.5c0 -26 3.83301 -48.833 11.5 -68.5s18 -36 31 -49s28 -22.833 45 -29.5s35.167 -10 54.5 -10c18.667 0 35.5 2 50.5 6s28 8.5 39 13.5s19.5 9.66699 25.5 14s9.66699 7.16602 11 8.49902
l60 -93c-6.66699 -5.33301 -15.667 -11.5 -27 -18.5s-25.333 -13.667 -42 -20s-35.834 -11.666 -57.501 -15.999s-46.5 -6.5 -74.5 -6.5c-36.667 0 -71.334 5.83301 -104.001 17.5s-61.167 29 -85.5 52s-43.666 51.167 -57.999 84.5s-21.5 71.666 -21.5 114.999
c0 42 7.16699 79.5 21.5 112.5s33.833 61.167 58.5 84.5s53.5 41.166 86.5 53.499s68.5 18.5 106.5 18.5c46.667 0 82.5 -4.5 107.5 -13.5s42.5 -17.167 52.5 -24.5c9.33301 -6.66699 17 -14.667 23 -24s9 -20.666 9 -33.999c0 -10.667 -3.66699 -23.167 -11 -37.5
s-17.666 -26.833 -30.999 -37.5c-3.33301 3.33301 -8.66602 8.33301 -15.999 15s-16.5 13.167 -27.5 19.5s-24.167 11.833 -39.5 16.5s-32.666 7 -51.999 7zM318.998 737.001c14.667 0 27.499 -3.5 38.499 -10.5s21.167 -15.167 30.5 -24.5l84 -81l-48 -52l-105 76l-105 -76
l-48 52l85 81c9.33301 9.33301 19.333 17.5 30 24.5s23.334 10.5 38.001 10.5z" />
    <glyph glyph-name="Cdotaccent" unicode="&#x10a;" horiz-adv-x="700" 
d="M660 590c0 -11.333 -2.16602 -21.6709 -6.49902 -31.0039s-9.5 -17.666 -15.5 -24.999s-12.167 -13.5 -18.5 -18.5s-11.5 -8.5 -15.5 -10.5c-5.33301 5.33301 -12.833 12.333 -22.5 21s-22.167 17 -37.5 25s-33.5 15 -54.5 21s-44.833 9 -71.5 9
c-32 0 -61 -5.66699 -87 -17s-48.333 -27.333 -67 -48s-33.167 -45.5 -43.5 -74.5s-15.5 -61.5 -15.5 -97.5c0 -76.667 19.5 -135 58.5 -175s91.167 -60 156.5 -60c27.333 0 51.833 2.5 73.5 7.5s40.167 10.5 55.5 16.5s27.666 12 36.999 18s15.333 10 18 12l64 -108
c-3.33301 -3.33301 -11.333 -8.83301 -24 -16.5s-30 -15.667 -52 -24s-48.167 -15.666 -78.5 -21.999s-64.833 -9.5 -103.5 -9.5c-50 0 -96.667 7.66699 -140 23s-80.833 38.333 -112.5 69s-56.667 68.334 -75 113.001s-27.5 96.667 -27.5 156
c0 56 9.16699 106.167 27.5 150.5s43.666 82 75.999 113s70.333 54.833 114 71.5s91.167 25 142.5 25c54.667 0 98.667 -5.66699 132 -17s58 -22.666 74 -33.999c12.667 -9.33301 22.334 -19.5 29.001 -30.5s10 -21.833 10 -32.5zM420.001 743.995c-10 0 -19.333 2 -28 6
s-16.5 9.33301 -23.5 16s-12.5 14.167 -16.5 22.5s-6 16.833 -6 25.5s2 17.334 6 26.001s9.5 16.334 16.5 23.001s14.833 12 23.5 16s18 6 28 6s19.333 -2 28 -6s16.167 -9.33301 22.5 -16s11.5 -14.334 15.5 -23.001s6 -17.334 6 -26.001s-2 -17.167 -6 -25.5
s-9.16699 -15.833 -15.5 -22.5s-13.833 -12 -22.5 -16s-18 -6 -28 -6z" />
    <glyph glyph-name="cdotaccent" unicode="&#x10b;" horiz-adv-x="555" 
d="M338 411c-42.667 0 -77.6689 -13.499 -105.002 -40.499s-41 -65.5 -41 -115.5c0 -26 3.83301 -48.833 11.5 -68.5s18 -36 31 -49s28 -22.833 45 -29.5s35.167 -10 54.5 -10c18.667 0 35.5 2 50.5 6s28 8.5 39 13.5s19.5 9.66699 25.5 14s9.66699 7.16602 11 8.49902
l60 -93c-6.66699 -5.33301 -15.667 -11.5 -27 -18.5s-25.333 -13.667 -42 -20s-35.834 -11.666 -57.501 -15.999s-46.5 -6.5 -74.5 -6.5c-36.667 0 -71.334 5.83301 -104.001 17.5s-61.167 29 -85.5 52s-43.666 51.167 -57.999 84.5s-21.5 71.666 -21.5 114.999
c0 42 7.16699 79.5 21.5 112.5s33.833 61.167 58.5 84.5s53.5 41.166 86.5 53.499s68.5 18.5 106.5 18.5c46.667 0 82.5 -4.5 107.5 -13.5s42.5 -17.167 52.5 -24.5c9.33301 -6.66699 17 -14.667 23 -24s9 -20.666 9 -33.999c0 -10.667 -3.66699 -23.167 -11 -37.5
s-17.666 -26.833 -30.999 -37.5c-3.33301 3.33301 -8.66602 8.33301 -15.999 15s-16.5 13.167 -27.5 19.5s-24.167 11.833 -39.5 16.5s-32.666 7 -51.999 7zM327.998 570.001c-9.33301 0 -18.333 2 -27 6s-16.334 9.16699 -23.001 15.5s-12 13.666 -16 21.999
s-6 16.833 -6 25.5s2 17.167 6 25.5s9.33301 15.666 16 21.999s14.334 11.5 23.001 15.5s17.667 6 27 6c10 0 19.167 -2 27.5 -6s15.833 -9.16699 22.5 -15.5s11.834 -13.666 15.501 -21.999s5.5 -16.833 5.5 -25.5s-1.83301 -17.167 -5.5 -25.5
s-8.83398 -15.666 -15.501 -21.999s-14.167 -11.5 -22.5 -15.5s-17.5 -6 -27.5 -6z" />
    <glyph glyph-name="Ccaron" unicode="&#x10c;" horiz-adv-x="700" 
d="M660 590c0 -11.333 -2.16602 -21.6709 -6.49902 -31.0039s-9.5 -17.666 -15.5 -24.999s-12.167 -13.5 -18.5 -18.5s-11.5 -8.5 -15.5 -10.5c-5.33301 5.33301 -12.833 12.333 -22.5 21s-22.167 17 -37.5 25s-33.5 15 -54.5 21s-44.833 9 -71.5 9
c-32 0 -61 -5.66699 -87 -17s-48.333 -27.333 -67 -48s-33.167 -45.5 -43.5 -74.5s-15.5 -61.5 -15.5 -97.5c0 -76.667 19.5 -135 58.5 -175s91.167 -60 156.5 -60c27.333 0 51.833 2.5 73.5 7.5s40.167 10.5 55.5 16.5s27.666 12 36.999 18s15.333 10 18 12l64 -108
c-3.33301 -3.33301 -11.333 -8.83301 -24 -16.5s-30 -15.667 -52 -24s-48.167 -15.666 -78.5 -21.999s-64.833 -9.5 -103.5 -9.5c-50 0 -96.667 7.66699 -140 23s-80.833 38.333 -112.5 69s-56.667 68.334 -75 113.001s-27.5 96.667 -27.5 156
c0 56 9.16699 106.167 27.5 150.5s43.666 82 75.999 113s70.333 54.833 114 71.5s91.167 25 142.5 25c54.667 0 98.667 -5.66699 132 -17s58 -22.666 74 -33.999c12.667 -9.33301 22.334 -19.5 29.001 -30.5s10 -21.833 10 -32.5zM415.001 736.995
c-14 0 -27.667 3.66699 -41 11s-25 15.666 -35 24.999l-94 76l39 53l131 -68l133 68l38 -53l-95 -76c-11.333 -9.33301 -22.833 -17.666 -34.5 -24.999s-25.5 -11 -41.5 -11z" />
    <glyph glyph-name="ccaron" unicode="&#x10d;" horiz-adv-x="555" 
d="M338 411c-42.667 0 -77.6689 -13.499 -105.002 -40.499s-41 -65.5 -41 -115.5c0 -26 3.83301 -48.833 11.5 -68.5s18 -36 31 -49s28 -22.833 45 -29.5s35.167 -10 54.5 -10c18.667 0 35.5 2 50.5 6s28 8.5 39 13.5s19.5 9.66699 25.5 14s9.66699 7.16602 11 8.49902
l60 -93c-6.66699 -5.33301 -15.667 -11.5 -27 -18.5s-25.333 -13.667 -42 -20s-35.834 -11.666 -57.501 -15.999s-46.5 -6.5 -74.5 -6.5c-36.667 0 -71.334 5.83301 -104.001 17.5s-61.167 29 -85.5 52s-43.666 51.167 -57.999 84.5s-21.5 71.666 -21.5 114.999
c0 42 7.16699 79.5 21.5 112.5s33.833 61.167 58.5 84.5s53.5 41.166 86.5 53.499s68.5 18.5 106.5 18.5c46.667 0 82.5 -4.5 107.5 -13.5s42.5 -17.167 52.5 -24.5c9.33301 -6.66699 17 -14.667 23 -24s9 -20.666 9 -33.999c0 -10.667 -3.66699 -23.167 -11 -37.5
s-17.666 -26.833 -30.999 -37.5c-3.33301 3.33301 -8.66602 8.33301 -15.999 15s-16.5 13.167 -27.5 19.5s-24.167 11.833 -39.5 16.5s-32.666 7 -51.999 7zM327.998 569.001c-14.667 0 -27.333 3.5 -38 10.5s-20.667 15.167 -30 24.5l-85 81l48 52l105 -76l105 76l48 -52
l-84 -81c-9.33301 -9.33301 -19.5 -17.5 -30.5 -24.5s-23.833 -10.5 -38.5 -10.5z" />
    <glyph glyph-name="Dcaron" unicode="&#x10e;" horiz-adv-x="760" 
d="M705 344c0 -52 -8.5 -99.168 -25.5 -141.501s-41.333 -78.5 -73 -108.5s-70 -53.167 -115 -69.5s-95.5 -24.5 -151.5 -24.5h-255v609c0 52 27 78 81 78h166c50 0 92.667 -4.33301 128 -13c38.667 -9.33301 73.167 -23.833 103.5 -43.5s56 -43.667 77 -72
s37 -60.666 48 -96.999s16.5 -75.5 16.5 -117.5zM555 343.999c0 51.333 -11.667 96.168 -35 134.501s-60.333 64.5 -111 78.5c-11.333 3.33301 -24 5.83301 -38 7.5s-28.333 2.5 -43 2.5h-98v-447h104c36.667 0 68.667 5.83301 96 17.5s50.333 27.5 69 47.5
s32.667 43.667 42 71s14 56.666 14 87.999zM347 737.001c-14 0 -27.667 3.66699 -41 11s-25 15.666 -35 24.999l-94 76l39 53l131 -68l133 68l38 -53l-95 -76c-11.333 -9.33301 -22.833 -17.666 -34.5 -24.999s-25.5 -11 -41.5 -11z" />
    <glyph glyph-name="dcaron" unicode="&#x10f;" horiz-adv-x="760" 
d="M194 256c0 -23.333 3.16895 -44.832 9.50195 -64.499s16 -36.834 29 -51.501s29.667 -26 50 -34s44.5 -12 72.5 -12c21.333 0 38.666 1 51.999 3s22 4 26 6v175c0 38 -9.66699 69.667 -29 95s-48.333 38 -87 38s-68.834 -14.167 -90.501 -42.5
s-32.5 -65.833 -32.5 -112.5zM573.002 0.000976562c-4 -0.666992 -11.834 -1.83105 -23.501 -3.49805s-26.167 -3.16699 -43.5 -4.5s-37 -2.66602 -59 -3.99902s-45 -2 -69 -2c-109.333 0 -191.333 25.167 -246 75.5s-82 120.166 -82 209.499
c0 41.333 6.33301 77.666 19 108.999s29.834 57.666 51.501 78.999s46.667 37.5 75 48.5s58.5 16.5 90.5 16.5c22.667 0 43 -2.83301 61 -8.5s33.167 -12.334 45.5 -20.001s21.833 -14.834 28.5 -21.501s10.667 -11 12 -13v216c0 22.667 6.66699 38.334 20 47.001
s31 13 53 13c15.333 0 29.5 -1.66699 42.5 -5s21.167 -5.66602 24.5 -6.99902v-725zM648.001 677.004c0 22.667 6.66699 38.332 20 46.999s31 13 53 13c15.333 0 26.833 -1.66699 34.5 -5s13.167 -5.66602 16.5 -6.99902l-30 -222h-94v174z" />
    <glyph glyph-name="Dcroat" unicode="&#x110;" horiz-adv-x="769" 
d="M94 409l0.000976562 199.999c0 52 27 78 81 78h174c56 0 106.5 -8 151.5 -24s83.333 -39 115 -69s56 -66.167 73 -108.5s25.5 -89.5 25.5 -141.5s-8.5 -99.167 -25.5 -141.5s-41.333 -78.5 -73 -108.5s-70 -53.167 -115 -69.5s-95.5 -24.5 -151.5 -24.5h-255v290h-21
c-22.667 0 -38.834 5.66699 -48.501 17s-14.5 27.333 -14.5 48c0 12.667 1.66699 23.834 5 33.501s6.33301 16.5 9 20.5h70zM340.001 408.999c23.333 0 39.667 -5.49902 49 -16.499s14 -26.167 14 -45.5c0 -14 -1.66699 -26 -5 -36s-6.33301 -17 -9 -21h-150v-170h104
c36.667 0 68.667 5.83301 96 17.5s50.333 27.5 69 47.5s32.667 43.667 42 71s14 56.666 14 87.999s-4.66699 60.5 -14 87.5s-23.333 50.5 -42 70.5s-41.667 35.833 -69 47.5s-59.333 17.5 -96 17.5h-104v-158h101z" />
    <glyph glyph-name="dcroat" unicode="&#x111;" horiz-adv-x="649" 
d="M433 652l0.000976562 25.002c0 22.667 6.66699 38.334 20 47.001s31 13 53 13c15.333 0 29.5 -1.66699 42.5 -5s21.167 -5.66602 24.5 -6.99902v-73h49c19.333 0 31.833 -4.33301 37.5 -13s8.5 -20.334 8.5 -35.001c0 -10.667 -0.833008 -19.334 -2.5 -26.001
s-3.16699 -11.667 -4.5 -15h-88v-563c-4 -0.666992 -11.833 -1.83398 -23.5 -3.50098s-26.167 -3.16699 -43.5 -4.5s-37 -2.66602 -59 -3.99902s-45 -2 -69 -2c-109.333 0 -191.333 24.333 -246 73s-82 117.667 -82 207c0 40 6.33301 74.833 19 104.5s29.667 54.5 51 74.5
s46.166 34.833 74.499 44.5s58.166 14.5 89.499 14.5c23.333 0 44 -2.83301 62 -8.5s33.333 -12.334 46 -20.001s22.334 -14.834 29.001 -21.501s10.667 -11 12 -13v122h-102c-17.333 0 -29.5 4 -36.5 12s-10.5 18.333 -10.5 31c0 11.333 0.833008 20.5 2.5 27.5l4.5 18.5
h142zM194.001 251.002c0 -46.667 12.6689 -84.5 38.002 -113.5s66.333 -43.5 123 -43.5c21.333 0 38.666 1 51.999 3s22 4 26 6v160c0 38 -9.66699 68.833 -29 92.5s-48.333 35.5 -87 35.5s-68.834 -12.333 -90.501 -37s-32.5 -59 -32.5 -103z" />
    <glyph glyph-name="Emacron" unicode="&#x112;" horiz-adv-x="648" 
d="M230 282v-155h338v-127h-483v609c0 52 27 78 81 78h339c25.333 0 43 -5.33301 53 -16s15 -26 15 -46c0 -15.333 -2.16699 -29 -6.5 -41s-7.83301 -20 -10.5 -24h-326v-151h261c25.333 0 43 -5.33301 53 -16s15 -26 15 -46c0 -15.333 -2.16699 -29 -6.5 -41
s-7.83301 -20 -10.5 -24h-312zM467 849c19.333 0 31.833 -4.33105 37.5 -12.998s8.5 -20.334 8.5 -35.001c0 -10.667 -0.833008 -19.334 -2.5 -26.001s-3.16699 -11.667 -4.5 -15h-319c-17.333 0 -29.5 4 -36.5 12s-10.5 18.333 -10.5 31c0 11.333 0.833008 20.5 2.5 27.5
l4.5 18.5h320z" />
    <glyph glyph-name="emacron" unicode="&#x113;" horiz-adv-x="599" 
d="M554 330c0 -20.667 -2.83398 -39.3301 -8.50098 -55.9971s-14.667 -30.834 -27 -42.501s-28.666 -20.667 -48.999 -27s-45.5 -9.5 -75.5 -9.5h-200c6 -27.333 22 -50.5 48 -69.5s60.333 -28.5 103 -28.5s75.5 3.16699 98.5 9.5s37.167 10.833 42.5 13.5l38 -99
c-1.33301 -1.33301 -7 -4 -17 -8s-23.5 -8.16699 -40.5 -12.5s-37.167 -8.33301 -60.5 -12s-49.333 -5.5 -78 -5.5c-40 0 -76.833 5.33301 -110.5 16s-63 27 -88 49s-44.5 49.667 -58.5 83s-21 72.666 -21 117.999c0 42 6.5 80 19.5 114s31.333 63.167 55 87.5
s52.167 43.166 85.5 56.499s70.333 20 111 20c38 0 71.5 -5.16699 100.5 -15.5s53.333 -24.5 73 -42.5s34.5 -39 44.5 -63s15 -49.333 15 -76zM421.999 342.004c0 9.33301 -1.83398 19.3311 -5.50098 29.998s-9.5 20.334 -17.5 29.001s-18.667 15.834 -32 21.501
s-29.666 8.5 -48.999 8.5c-21.333 0 -40 -4.66699 -56 -14s-29.333 -21 -40 -35s-18.667 -29.333 -24 -46s-8 -32.667 -8 -48h179c22 0 36.333 4.5 43 13.5s10 22.5 10 40.5zM437.998 682.002c18 0 29.834 -4.16699 35.501 -12.5s8.5 -19.5 8.5 -33.5
c0 -10.667 -0.833008 -19.167 -2.5 -25.5s-3.16699 -11.166 -4.5 -14.499h-289c-16.667 0 -28.334 3.83301 -35.001 11.5s-10 17.834 -10 30.501c0 11.333 0.666992 20.166 2 26.499s3 12.166 5 17.499h290z" />
    <glyph glyph-name="Ebreve" unicode="&#x114;" horiz-adv-x="648" 
d="M230 282v-155h338v-127h-483v609c0 52 27 78 81 78h339c25.333 0 43 -5.33301 53 -16s15 -26 15 -46c0 -15.333 -2.16699 -29 -6.5 -41s-7.83301 -20 -10.5 -24h-326v-151h261c25.333 0 43 -5.33301 53 -16s15 -26 15 -46c0 -15.333 -2.16699 -29 -6.5 -41
s-7.83301 -20 -10.5 -24h-312zM348 822c21.333 0 39.333 6.16699 54 18.5s25.334 30.833 32.001 55.5l72 -10c-0.666992 -15.333 -3.33398 -31.666 -8.00098 -48.999s-13 -33.333 -25 -48s-28 -26.834 -48 -36.501s-45.667 -14.5 -77 -14.5c-32 0 -58.333 4.83301 -79 14.5
s-37 21.834 -49 36.501s-20.5 30.667 -25.5 48s-7.83301 33.666 -8.5 48.999l74 10c14 -49.333 43.333 -74 88 -74z" />
    <glyph glyph-name="ebreve" unicode="&#x115;" horiz-adv-x="599" 
d="M554 330c0 -20.667 -2.83398 -39.3301 -8.50098 -55.9971s-14.667 -30.834 -27 -42.501s-28.666 -20.667 -48.999 -27s-45.5 -9.5 -75.5 -9.5h-200c6 -27.333 22 -50.5 48 -69.5s60.333 -28.5 103 -28.5s75.5 3.16699 98.5 9.5s37.167 10.833 42.5 13.5l38 -99
c-1.33301 -1.33301 -7 -4 -17 -8s-23.5 -8.16699 -40.5 -12.5s-37.167 -8.33301 -60.5 -12s-49.333 -5.5 -78 -5.5c-40 0 -76.833 5.33301 -110.5 16s-63 27 -88 49s-44.5 49.667 -58.5 83s-21 72.666 -21 117.999c0 42 6.5 80 19.5 114s31.333 63.167 55 87.5
s52.167 43.166 85.5 56.499s70.333 20 111 20c38 0 71.5 -5.16699 100.5 -15.5s53.333 -24.5 73 -42.5s34.5 -39 44.5 -63s15 -49.333 15 -76zM421.999 342.004c0 9.33301 -1.83398 19.3311 -5.50098 29.998s-9.5 20.334 -17.5 29.001s-18.667 15.834 -32 21.501
s-29.666 8.5 -48.999 8.5c-21.333 0 -40 -4.66699 -56 -14s-29.333 -21 -40 -35s-18.667 -29.333 -24 -46s-8 -32.667 -8 -48h179c22 0 36.333 4.5 43 13.5s10 22.5 10 40.5zM321.998 644.002c42.667 0 70.001 23.333 82.001 70l69 -10
c-0.666992 -14 -3.5 -28.833 -8.5 -44.5s-13.167 -30.334 -24.5 -44.001s-26.666 -24.834 -45.999 -33.501s-43.333 -13 -72 -13c-29.333 0 -53.5 4.33301 -72.5 13s-34.333 19.834 -46 33.501s-19.834 28.334 -24.501 44.001s-7.33398 30.5 -8.00098 44.5l69 10
c12 -46.667 39.333 -70 82 -70z" />
    <glyph glyph-name="Edotaccent" unicode="&#x116;" horiz-adv-x="648" 
d="M230 282v-155h338v-127h-483v609c0 52 27 78 81 78h339c25.333 0 43 -5.33301 53 -16s15 -26 15 -46c0 -15.333 -2.16699 -29 -6.5 -41s-7.83301 -20 -10.5 -24h-326v-151h261c25.333 0 43 -5.33301 53 -16s15 -26 15 -46c0 -15.333 -2.16699 -29 -6.5 -41
s-7.83301 -20 -10.5 -24h-312zM338 744c-10 0 -19.333 2 -28 6s-16.5 9.33301 -23.5 16s-12.5 14.167 -16.5 22.5s-6 16.833 -6 25.5s2 17.334 6 26.001s9.5 16.334 16.5 23.001s14.833 12 23.5 16s18 6 28 6s19.333 -2 28 -6s16.167 -9.33301 22.5 -16
s11.5 -14.334 15.5 -23.001s6 -17.334 6 -26.001s-2 -17.167 -6 -25.5s-9.16699 -15.833 -15.5 -22.5s-13.833 -12 -22.5 -16s-18 -6 -28 -6z" />
    <glyph glyph-name="edotaccent" unicode="&#x117;" horiz-adv-x="599" 
d="M554 330c0 -20.667 -2.83398 -39.3301 -8.50098 -55.9971s-14.667 -30.834 -27 -42.501s-28.666 -20.667 -48.999 -27s-45.5 -9.5 -75.5 -9.5h-200c6 -27.333 22 -50.5 48 -69.5s60.333 -28.5 103 -28.5s75.5 3.16699 98.5 9.5s37.167 10.833 42.5 13.5l38 -99
c-1.33301 -1.33301 -7 -4 -17 -8s-23.5 -8.16699 -40.5 -12.5s-37.167 -8.33301 -60.5 -12s-49.333 -5.5 -78 -5.5c-40 0 -76.833 5.33301 -110.5 16s-63 27 -88 49s-44.5 49.667 -58.5 83s-21 72.666 -21 117.999c0 42 6.5 80 19.5 114s31.333 63.167 55 87.5
s52.167 43.166 85.5 56.499s70.333 20 111 20c38 0 71.5 -5.16699 100.5 -15.5s53.333 -24.5 73 -42.5s34.5 -39 44.5 -63s15 -49.333 15 -76zM421.999 342.004c0 9.33301 -1.83398 19.3311 -5.50098 29.998s-9.5 20.334 -17.5 29.001s-18.667 15.834 -32 21.501
s-29.666 8.5 -48.999 8.5c-21.333 0 -40 -4.66699 -56 -14s-29.333 -21 -40 -35s-18.667 -29.333 -24 -46s-8 -32.667 -8 -48h179c22 0 36.333 4.5 43 13.5s10 22.5 10 40.5zM321.998 570.002c-9.33301 0 -18.333 2 -27 6s-16.334 9.16699 -23.001 15.5
s-12 13.666 -16 21.999s-6 16.833 -6 25.5s2 17.167 6 25.5s9.33301 15.666 16 21.999s14.334 11.5 23.001 15.5s17.667 6 27 6c10 0 19.167 -2 27.5 -6s15.833 -9.16699 22.5 -15.5s11.834 -13.666 15.501 -21.999s5.5 -16.833 5.5 -25.5s-1.83301 -17.167 -5.5 -25.5
s-8.83398 -15.666 -15.501 -21.999s-14.167 -11.5 -22.5 -15.5s-17.5 -6 -27.5 -6z" />
    <glyph glyph-name="Eogonek" unicode="&#x118;" horiz-adv-x="648" 
d="M230 282v-154.999h338v-127h-47c-6.66699 -1.33301 -15.167 -3.5 -25.5 -6.5s-20.333 -7.5 -30 -13.5s-18 -13.167 -25 -21.5s-10.5 -17.833 -10.5 -28.5c0 -12 4.33301 -20 13 -24s17.667 -6 27 -6c18 0 33 2.66699 45 8s19.333 8.66602 22 9.99902l31 -67
c-9.33301 -5.33301 -24.333 -11.5 -45 -18.5s-46.667 -10.5 -78 -10.5c-34.667 0 -63 6.83301 -85 20.5s-33 35.5 -33 65.5c0 14 2.33301 26.167 7 36.5s10.334 19.166 17.001 26.499s13.667 13.333 21 18s13.666 8.33398 18.999 11.001h-306v609c0 52 27 78 81 78h339
c25.333 0 43 -5.33301 53 -16s15 -26 15 -46c0 -15.333 -2.16699 -29 -6.5 -41s-7.83301 -20 -10.5 -24h-326v-151h261c25.333 0 43 -5.33301 53 -16s15 -26 15 -46c0 -15.333 -2.16699 -29 -6.5 -41s-7.83301 -20 -10.5 -24h-312z" />
    <glyph glyph-name="eogonek" unicode="&#x119;" horiz-adv-x="599" 
d="M554 330c0 -20.667 -2.83203 -39.3359 -8.49902 -56.0029s-14.667 -30.834 -27 -42.501s-28.666 -20.667 -48.999 -27s-45.5 -9.5 -75.5 -9.5h-200c6 -27.333 22 -50.5 48 -69.5s60.333 -28.5 103 -28.5s75.5 3.16699 98.5 9.5s37.167 10.833 42.5 13.5l38 -99
c-1.33301 -1.33301 -6 -3.5 -14 -6.5s-18.667 -6.5 -32 -10.5s-29.333 -7.83301 -48 -11.5s-39.334 -6.16699 -62.001 -7.5c-12 -6 -22.5 -13.667 -31.5 -23s-13.5 -20.666 -13.5 -33.999s4.66699 -22.166 14 -26.499s19 -6.5 29 -6.5c18.667 0 33.667 2.66699 45 8l21 10
l29 -64c-9.33301 -5.33301 -24 -11.333 -44 -18s-45.667 -10 -77 -10c-34 0 -61.833 6.5 -83.5 19.5s-32.5 34.5 -32.5 64.5c0 21.333 5 38.5 15 51.5s20.333 23.167 31 30.5c-32 4.66699 -61.5 13.334 -88.5 26.001s-50.333 29.834 -70 51.501
s-34.834 47.834 -45.501 78.501s-16 66 -16 106c0 42 6.5 80 19.5 114s31.333 63.167 55 87.5s52.167 43.166 85.5 56.499s70.333 20 111 20c38 0 71.5 -5.16699 100.5 -15.5s53.333 -24.5 73 -42.5s34.5 -39 44.5 -63s15 -49.333 15 -76zM422.001 341.998
c0 9.33301 -1.83398 19.3311 -5.50098 29.998s-9.5 20.334 -17.5 29.001s-18.667 15.834 -32 21.501s-29.666 8.5 -48.999 8.5c-21.333 0 -40 -4.66699 -56 -14s-29.333 -21 -40 -35s-18.667 -29.333 -24 -46s-8 -32.667 -8 -48h179c22 0 36.333 4.5 43 13.5
s10 22.5 10 40.5z" />
    <glyph glyph-name="Ecaron" unicode="&#x11a;" horiz-adv-x="648" 
d="M230 282v-155h338v-127h-483v609c0 52 27 78 81 78h339c25.333 0 43 -5.33301 53 -16s15 -26 15 -46c0 -15.333 -2.16699 -29 -6.5 -41s-7.83301 -20 -10.5 -24h-326v-151h261c25.333 0 43 -5.33301 53 -16s15 -26 15 -46c0 -15.333 -2.16699 -29 -6.5 -41
s-7.83301 -20 -10.5 -24h-312zM346 737c-14 0 -27.667 3.66699 -41 11s-25 15.666 -35 24.999l-94 76l39 53l131 -68l133 68l38 -53l-95 -76c-11.333 -9.33301 -22.833 -17.666 -34.5 -24.999s-25.5 -11 -41.5 -11z" />
    <glyph glyph-name="ecaron" unicode="&#x11b;" horiz-adv-x="599" 
d="M554 330c0 -20.667 -2.83398 -39.3301 -8.50098 -55.9971s-14.667 -30.834 -27 -42.501s-28.666 -20.667 -48.999 -27s-45.5 -9.5 -75.5 -9.5h-200c6 -27.333 22 -50.5 48 -69.5s60.333 -28.5 103 -28.5s75.5 3.16699 98.5 9.5s37.167 10.833 42.5 13.5l38 -99
c-1.33301 -1.33301 -7 -4 -17 -8s-23.5 -8.16699 -40.5 -12.5s-37.167 -8.33301 -60.5 -12s-49.333 -5.5 -78 -5.5c-40 0 -76.833 5.33301 -110.5 16s-63 27 -88 49s-44.5 49.667 -58.5 83s-21 72.666 -21 117.999c0 42 6.5 80 19.5 114s31.333 63.167 55 87.5
s52.167 43.166 85.5 56.499s70.333 20 111 20c38 0 71.5 -5.16699 100.5 -15.5s53.333 -24.5 73 -42.5s34.5 -39 44.5 -63s15 -49.333 15 -76zM421.999 342.004c0 9.33301 -1.83398 19.3311 -5.50098 29.998s-9.5 20.334 -17.5 29.001s-18.667 15.834 -32 21.501
s-29.666 8.5 -48.999 8.5c-21.333 0 -40 -4.66699 -56 -14s-29.333 -21 -40 -35s-18.667 -29.333 -24 -46s-8 -32.667 -8 -48h179c22 0 36.333 4.5 43 13.5s10 22.5 10 40.5zM320.998 569.002c-14.667 0 -27.333 3.5 -38 10.5s-20.667 15.167 -30 24.5l-85 81l48 52l105 -76
l105 76l48 -52l-84 -81c-9.33301 -9.33301 -19.5 -17.5 -30.5 -24.5s-23.833 -10.5 -38.5 -10.5z" />
    <glyph glyph-name="Gcircumflex" unicode="&#x11c;" horiz-adv-x="746" 
d="M589 395c54 0 80.9951 -25.9961 80.9951 -77.9961v-317c-2 -0.666992 -9.83301 -1.83398 -23.5 -3.50098s-31.167 -3.5 -52.5 -5.5s-45.333 -3.83301 -72 -5.5s-53.667 -2.5 -81 -2.5c-56 0 -107.5 7.5 -154.5 22.5s-87.667 37.5 -122 67.5s-61.166 67.5 -80.499 112.5
s-29 97.5 -29 157.5c0 56 9.33301 106.167 28 150.5s44.667 82.166 78 113.499s73 55.333 119 72s96.667 25 152 25c27.333 0 51.666 -1.66699 72.999 -5s40.333 -7.5 57 -12.5s30.834 -10.5 42.501 -16.5s21.5 -11.667 29.5 -17c12.667 -9.33301 22.334 -19.5 29.001 -30.5
s10 -21.833 10 -32.5c0 -11.333 -2.16699 -21.5 -6.5 -30.5s-9.5 -17 -15.5 -24s-12.167 -12.667 -18.5 -17s-11.5 -7.5 -15.5 -9.5l-22.5 21.5c-9.66699 9 -22 17.667 -37 26s-33 15.5 -54 21.5s-44.833 9 -71.5 9c-34 0 -64.833 -5.5 -92.5 -16.5s-51.5 -27 -71.5 -48
s-35.5 -46.667 -46.5 -77s-16.5 -64.5 -16.5 -102.5c0 -39.333 5.66699 -73.833 17 -103.5s27.5 -54.334 48.5 -74.001s46.333 -34.5 76 -44.5s62.834 -15 99.501 -15c24.667 0 43.334 0.666992 56.001 2s21.334 2.66602 26.001 3.99902v156h-75
c-25.333 0 -43 5.33301 -53 16s-15 26 -15 46c0 15.333 2.16699 29 6.5 41s7.83301 20 10.5 24h187zM434.995 902.004c14 0 27.667 -3.66699 41 -11s25 -15.666 35 -24.999l94 -76l-39 -53l-131 68l-133 -68l-38 53l95 76c11.333 9.33301 22.833 17.666 34.5 24.999
s25.5 11 41.5 11z" />
    <glyph glyph-name="gcircumflex" unicode="&#x11d;" horiz-adv-x="651" 
d="M570 273c0 -38 -7.49707 -70.6641 -22.4971 -97.9971s-36.167 -52 -63.5 -74c18.667 -10 33.667 -21.167 45 -33.5s20 -24.5 26 -36.5s10 -23.5 12 -34.5s3 -20.5 3 -28.5c0 -27.333 -6.16699 -51.833 -18.5 -73.5s-29.833 -40.334 -52.5 -56.001
s-49.5 -27.667 -80.5 -36s-64.833 -12.5 -101.5 -12.5c-41.333 0 -77.166 2.83301 -107.499 8.5s-55.666 12.167 -75.999 19.5s-35.833 14.166 -46.5 20.499s-17.334 10.5 -20.001 12.5l53 100c2.66699 -2 8.5 -5.83301 17.5 -11.5s21 -11.5 36 -17.5s33 -11.333 54 -16
s44.5 -7 70.5 -7c38 0 67.667 6.66699 89 20s32 33 32 59c0 12 -3.83301 24 -11.5 36s-19.834 21.667 -36.501 29c-2.66699 -0.666992 -6.83398 -1.33398 -12.501 -2.00098s-11.667 -1.33398 -18 -2.00098s-12.5 -1.16699 -18.5 -1.5s-10.667 -0.5 -14 -0.5
c-38 0 -73 6 -105 18s-59.333 28.833 -82 50.5s-40.334 47.5 -53.001 77.5s-19 63 -19 99s6.5 69 19.5 99s31.167 55.833 54.5 77.5s50.666 38.5 81.999 50.5s65.666 18 102.999 18c34.667 0 67.334 -5.66699 98.001 -17h160c24 0 40.167 -4.66699 48.5 -14
s12.5 -22 12.5 -38c0 -12.667 -2 -25.167 -6 -37.5s-7 -20.166 -9 -23.499l-94 9c10 -9.33301 18.333 -19.833 25 -31.5s12 -23.667 16 -36s6.83301 -24.333 8.5 -36s2.5 -21.5 2.5 -29.5zM430.003 282.003c0 42 -11 75.499 -33 100.499s-51.667 37.5 -89 37.5
s-67 -12.667 -89 -38s-33 -58.666 -33 -99.999s11 -74.666 33 -99.999s51.667 -38 89 -38s67 12.667 89 38s33 58.666 33 99.999zM318.003 737.002c14.667 0 27.499 -3.5 38.499 -10.5s21.167 -15.167 30.5 -24.5l84 -81l-48 -52l-105 76l-105 -76l-48 52l85 81
c9.33301 9.33301 19.333 17.5 30 24.5s23.334 10.5 38.001 10.5z" />
    <glyph glyph-name="Gbreve" unicode="&#x11e;" horiz-adv-x="746" 
d="M589 395c54 0 80.9951 -25.9961 80.9951 -77.9961v-317c-2 -0.666992 -9.83301 -1.83398 -23.5 -3.50098s-31.167 -3.5 -52.5 -5.5s-45.333 -3.83301 -72 -5.5s-53.667 -2.5 -81 -2.5c-56 0 -107.5 7.5 -154.5 22.5s-87.667 37.5 -122 67.5s-61.166 67.5 -80.499 112.5
s-29 97.5 -29 157.5c0 56 9.33301 106.167 28 150.5s44.667 82.166 78 113.499s73 55.333 119 72s96.667 25 152 25c27.333 0 51.666 -1.66699 72.999 -5s40.333 -7.5 57 -12.5s30.834 -10.5 42.501 -16.5s21.5 -11.667 29.5 -17c12.667 -9.33301 22.334 -19.5 29.001 -30.5
s10 -21.833 10 -32.5c0 -11.333 -2.16699 -21.5 -6.5 -30.5s-9.5 -17 -15.5 -24s-12.167 -12.667 -18.5 -17s-11.5 -7.5 -15.5 -9.5l-22.5 21.5c-9.66699 9 -22 17.667 -37 26s-33 15.5 -54 21.5s-44.833 9 -71.5 9c-34 0 -64.833 -5.5 -92.5 -16.5s-51.5 -27 -71.5 -48
s-35.5 -46.667 -46.5 -77s-16.5 -64.5 -16.5 -102.5c0 -39.333 5.66699 -73.833 17 -103.5s27.5 -54.334 48.5 -74.001s46.333 -34.5 76 -44.5s62.834 -15 99.501 -15c24.667 0 43.334 0.666992 56.001 2s21.334 2.66602 26.001 3.99902v156h-75
c-25.333 0 -43 5.33301 -53 16s-15 26 -15 46c0 15.333 2.16699 29 6.5 41s7.83301 20 10.5 24h187zM428.995 822.004c21.333 0 39.333 6.16699 54 18.5s25.334 30.833 32.001 55.5l72 -10c-0.666992 -15.333 -3.33398 -31.666 -8.00098 -48.999s-13 -33.333 -25 -48
s-28 -26.834 -48 -36.501s-45.667 -14.5 -77 -14.5c-32 0 -58.333 4.83301 -79 14.5s-37 21.834 -49 36.501s-20.5 30.667 -25.5 48s-7.83301 33.666 -8.5 48.999l74 10c14 -49.333 43.333 -74 88 -74z" />
    <glyph glyph-name="gbreve" unicode="&#x11f;" horiz-adv-x="651" 
d="M570 273c0 -38 -7.49707 -70.6641 -22.4971 -97.9971s-36.167 -52 -63.5 -74c18.667 -10 33.667 -21.167 45 -33.5s20 -24.5 26 -36.5s10 -23.5 12 -34.5s3 -20.5 3 -28.5c0 -27.333 -6.16699 -51.833 -18.5 -73.5s-29.833 -40.334 -52.5 -56.001
s-49.5 -27.667 -80.5 -36s-64.833 -12.5 -101.5 -12.5c-41.333 0 -77.166 2.83301 -107.499 8.5s-55.666 12.167 -75.999 19.5s-35.833 14.166 -46.5 20.499s-17.334 10.5 -20.001 12.5l53 100c2.66699 -2 8.5 -5.83301 17.5 -11.5s21 -11.5 36 -17.5s33 -11.333 54 -16
s44.5 -7 70.5 -7c38 0 67.667 6.66699 89 20s32 33 32 59c0 12 -3.83301 24 -11.5 36s-19.834 21.667 -36.501 29c-2.66699 -0.666992 -6.83398 -1.33398 -12.501 -2.00098s-11.667 -1.33398 -18 -2.00098s-12.5 -1.16699 -18.5 -1.5s-10.667 -0.5 -14 -0.5
c-38 0 -73 6 -105 18s-59.333 28.833 -82 50.5s-40.334 47.5 -53.001 77.5s-19 63 -19 99s6.5 69 19.5 99s31.167 55.833 54.5 77.5s50.666 38.5 81.999 50.5s65.666 18 102.999 18c34.667 0 67.334 -5.66699 98.001 -17h160c24 0 40.167 -4.66699 48.5 -14
s12.5 -22 12.5 -38c0 -12.667 -2 -25.167 -6 -37.5s-7 -20.166 -9 -23.499l-94 9c10 -9.33301 18.333 -19.833 25 -31.5s12 -23.667 16 -36s6.83301 -24.333 8.5 -36s2.5 -21.5 2.5 -29.5zM430.003 282.003c0 42 -11 75.499 -33 100.499s-51.667 37.5 -89 37.5
s-67 -12.667 -89 -38s-33 -58.666 -33 -99.999s11 -74.666 33 -99.999s51.667 -38 89 -38s67 12.667 89 38s33 58.666 33 99.999zM324.003 644.002c42.667 0 70.001 23.333 82.001 70l69 -10c-0.666992 -14 -3.5 -28.833 -8.5 -44.5s-13.167 -30.334 -24.5 -44.001
s-26.666 -24.834 -45.999 -33.501s-43.333 -13 -72 -13c-29.333 0 -53.5 4.33301 -72.5 13s-34.333 19.834 -46 33.501s-19.834 28.334 -24.501 44.001s-7.33398 30.5 -8.00098 44.5l69 10c12 -46.667 39.333 -70 82 -70z" />
    <glyph glyph-name="Gdotaccent" unicode="&#x120;" horiz-adv-x="746" 
d="M589 395c54 0 80.9951 -25.9961 80.9951 -77.9961v-317c-2 -0.666992 -9.83301 -1.83398 -23.5 -3.50098s-31.167 -3.5 -52.5 -5.5s-45.333 -3.83301 -72 -5.5s-53.667 -2.5 -81 -2.5c-56 0 -107.5 7.5 -154.5 22.5s-87.667 37.5 -122 67.5s-61.166 67.5 -80.499 112.5
s-29 97.5 -29 157.5c0 56 9.33301 106.167 28 150.5s44.667 82.166 78 113.499s73 55.333 119 72s96.667 25 152 25c27.333 0 51.666 -1.66699 72.999 -5s40.333 -7.5 57 -12.5s30.834 -10.5 42.501 -16.5s21.5 -11.667 29.5 -17c12.667 -9.33301 22.334 -19.5 29.001 -30.5
s10 -21.833 10 -32.5c0 -11.333 -2.16699 -21.5 -6.5 -30.5s-9.5 -17 -15.5 -24s-12.167 -12.667 -18.5 -17s-11.5 -7.5 -15.5 -9.5l-22.5 21.5c-9.66699 9 -22 17.667 -37 26s-33 15.5 -54 21.5s-44.833 9 -71.5 9c-34 0 -64.833 -5.5 -92.5 -16.5s-51.5 -27 -71.5 -48
s-35.5 -46.667 -46.5 -77s-16.5 -64.5 -16.5 -102.5c0 -39.333 5.66699 -73.833 17 -103.5s27.5 -54.334 48.5 -74.001s46.333 -34.5 76 -44.5s62.834 -15 99.501 -15c24.667 0 43.334 0.666992 56.001 2s21.334 2.66602 26.001 3.99902v156h-75
c-25.333 0 -43 5.33301 -53 16s-15 26 -15 46c0 15.333 2.16699 29 6.5 41s7.83301 20 10.5 24h187zM433.995 744.004c-10 0 -19.333 2 -28 6s-16.5 9.33301 -23.5 16s-12.5 14.167 -16.5 22.5s-6 16.833 -6 25.5s2 17.334 6 26.001s9.5 16.334 16.5 23.001
s14.833 12 23.5 16s18 6 28 6s19.333 -2 28 -6s16.167 -9.33301 22.5 -16s11.5 -14.334 15.5 -23.001s6 -17.334 6 -26.001s-2 -17.167 -6 -25.5s-9.16699 -15.833 -15.5 -22.5s-13.833 -12 -22.5 -16s-18 -6 -28 -6z" />
    </font>
</defs>
</svg>
